<svg width="742" height="453" viewBox="0 0 742 453" fill="none" xmlns="http://www.w3.org/2000/svg">
    <path d="M467.948 337.976C538.949 354.976 629.212 293.935 593.946 227.976C558.681 162.017 494.528 228.202 398.26 136.517C293.261 36.5167 155.858 149.729 247.763 260.017C297.847 320.119 235.947 398.42 312.448 426.976C388.949 455.532 422.971 327.207 467.948 337.976Z" fill="url(#paint0_linear_1286_25781)" fill-opacity="0.1" />
    <g opacity="0.5">
        <path d="M55.0117 173.641L124.268 180.378C141.405 182.045 157 190.994 167.086 204.948L192.442 240.029C202.649 254.15 218.49 263.137 235.848 264.654L275.775 268.141C292.941 269.641 308.633 278.448 318.856 292.32L362.018 350.891" stroke="url(#paint1_linear_1286_25781)" stroke-width="6" />
        <path d="M28.0059 204.676L97.2618 211.413C114.399 213.08 129.994 222.029 140.08 235.983L165.436 271.064C175.643 285.185 191.484 294.172 208.842 295.688L248.769 299.176C265.935 300.676 281.628 309.483 291.85 323.354L335.012 381.926" stroke="url(#paint2_linear_1286_25781)" stroke-width="6" />
        <path d="M1 235.46L70.2559 242.197C87.3931 243.864 102.988 252.813 113.074 266.768L138.43 301.848C148.637 315.97 164.479 324.957 181.837 326.473L221.763 329.961C238.929 331.46 254.622 340.267 264.844 354.139L308.006 412.71" stroke="url(#paint3_linear_1286_25781)" stroke-width="6" />
    </g>
    <path d="M423.001 427.5C39.6297 329.074 94.1731 108.244 274.421 148.303C360.937 167.53 372.008 41.8204 473.672 38.1408C639.689 32.1319 535.877 180.251 660.5 197.5C804.999 217.5 775.5 518 423.001 427.5Z" fill="url(#paint4_linear_1286_25781)" />
    <path d="M269.448 307.24V286.264L317.48 217.56H346.512V284.744H358.976V307.24H346.512V327H320.52V307.24H269.448ZM322.344 246.136L296.808 284.744H322.344V246.136ZM371.707 270C371.707 252.571 375.051 238.84 381.739 228.808C388.529 218.776 399.422 213.76 414.419 213.76C429.417 213.76 440.259 218.776 446.947 228.808C453.737 238.84 457.131 252.571 457.131 270C457.131 287.632 453.737 301.464 446.947 311.496C440.259 321.528 429.417 326.544 414.419 326.544C399.422 326.544 388.529 321.528 381.739 311.496C375.051 301.464 371.707 287.632 371.707 270ZM431.595 270C431.595 259.765 430.481 251.912 428.251 246.44C426.022 240.867 421.411 238.08 414.419 238.08C407.427 238.08 402.817 240.867 400.587 246.44C398.358 251.912 397.243 259.765 397.243 270C397.243 276.891 397.649 282.616 398.459 287.176C399.27 291.635 400.891 295.283 403.323 298.12C405.857 300.856 409.555 302.224 414.419 302.224C419.283 302.224 422.931 300.856 425.363 298.12C427.897 295.283 429.569 291.635 430.379 287.176C431.19 282.616 431.595 276.891 431.595 270ZM471.775 247.352C472.181 236.509 475.727 228.149 482.415 222.272C489.103 216.395 498.173 213.456 509.623 213.456C517.223 213.456 523.709 214.773 529.079 217.408C534.551 220.043 538.655 223.64 541.391 228.2C544.229 232.76 545.647 237.877 545.647 243.552C545.647 250.24 543.975 255.712 540.631 259.968C537.287 264.123 533.386 266.96 528.927 268.48V269.088C534.703 271.013 539.263 274.205 542.607 278.664C545.951 283.123 547.623 288.848 547.623 295.84C547.623 302.123 546.154 307.696 543.215 312.56C540.378 317.323 536.173 321.072 530.599 323.808C525.127 326.544 518.591 327.912 510.991 327.912C498.831 327.912 489.103 324.923 481.807 318.944C474.613 312.965 470.813 303.947 470.407 291.888H495.639C495.741 296.347 497.007 299.893 499.439 302.528C501.871 305.061 505.418 306.328 510.079 306.328C514.031 306.328 517.071 305.213 519.199 302.984C521.429 300.653 522.543 297.613 522.543 293.864C522.543 289 520.973 285.504 517.831 283.376C514.791 281.147 509.877 280.032 503.087 280.032H498.223V258.904H503.087C508.255 258.904 512.41 258.043 515.551 256.32C518.794 254.496 520.415 251.304 520.415 246.744C520.415 243.096 519.402 240.259 517.375 238.232C515.349 236.205 512.562 235.192 509.015 235.192C505.165 235.192 502.277 236.357 500.351 238.688C498.527 241.019 497.463 243.907 497.159 247.352H471.775Z" fill="white" />
    <path d="M260.448 295.24V274.264L308.48 205.56H337.512V272.744H349.976V295.24H337.512V315H311.52V295.24H260.448ZM313.344 234.136L287.808 272.744H313.344V234.136ZM362.707 258C362.707 240.571 366.051 226.84 372.739 216.808C379.529 206.776 390.422 201.76 405.419 201.76C420.417 201.76 431.259 206.776 437.947 216.808C444.737 226.84 448.131 240.571 448.131 258C448.131 275.632 444.737 289.464 437.947 299.496C431.259 309.528 420.417 314.544 405.419 314.544C390.422 314.544 379.529 309.528 372.739 299.496C366.051 289.464 362.707 275.632 362.707 258ZM422.595 258C422.595 247.765 421.481 239.912 419.251 234.44C417.022 228.867 412.411 226.08 405.419 226.08C398.427 226.08 393.817 228.867 391.587 234.44C389.358 239.912 388.243 247.765 388.243 258C388.243 264.891 388.649 270.616 389.459 275.176C390.27 279.635 391.891 283.283 394.323 286.12C396.857 288.856 400.555 290.224 405.419 290.224C410.283 290.224 413.931 288.856 416.363 286.12C418.897 283.283 420.569 279.635 421.379 275.176C422.19 270.616 422.595 264.891 422.595 258ZM462.775 235.352C463.181 224.509 466.727 216.149 473.415 210.272C480.103 204.395 489.173 201.456 500.623 201.456C508.223 201.456 514.709 202.773 520.079 205.408C525.551 208.043 529.655 211.64 532.391 216.2C535.229 220.76 536.647 225.877 536.647 231.552C536.647 238.24 534.975 243.712 531.631 247.968C528.287 252.123 524.386 254.96 519.927 256.48V257.088C525.703 259.013 530.263 262.205 533.607 266.664C536.951 271.123 538.623 276.848 538.623 283.84C538.623 290.123 537.154 295.696 534.215 300.56C531.378 305.323 527.173 309.072 521.599 311.808C516.127 314.544 509.591 315.912 501.991 315.912C489.831 315.912 480.103 312.923 472.807 306.944C465.613 300.965 461.813 291.947 461.407 279.888H486.639C486.741 284.347 488.007 287.893 490.439 290.528C492.871 293.061 496.418 294.328 501.079 294.328C505.031 294.328 508.071 293.213 510.199 290.984C512.429 288.653 513.543 285.613 513.543 281.864C513.543 277 511.973 273.504 508.831 271.376C505.791 269.147 500.877 268.032 494.087 268.032H489.223V246.904H494.087C499.255 246.904 503.41 246.043 506.551 244.32C509.794 242.496 511.415 239.304 511.415 234.744C511.415 231.096 510.402 228.259 508.375 226.232C506.349 224.205 503.562 223.192 500.015 223.192C496.165 223.192 493.277 224.357 491.351 226.688C489.527 229.019 488.463 231.907 488.159 235.352H462.775Z" fill="white" fill-opacity="0.2" />
    <path opacity="0.1" fill-rule="evenodd" clip-rule="evenodd" d="M624.391 107.394C628.21 107.394 631.307 110.49 631.307 114.309V168.486C631.307 172.306 628.21 175.402 624.391 175.402H474.695C471.015 186.69 464.596 194.534 448.436 198.336C447.303 198.602 446.407 197.409 446.938 196.372C450.794 188.835 453.314 182.01 451.201 175.402H442.916C439.097 175.402 436 172.306 436 168.486V114.309C436 110.49 439.097 107.394 442.916 107.394H624.391Z" fill="#001BFF" />
    <path fill-rule="evenodd" clip-rule="evenodd" d="M635.403 87C639.222 87 642.318 90.0963 642.318 93.9158V158.555C642.318 162.375 639.222 165.471 635.403 165.471H485.707C482.027 176.759 475.608 184.603 459.448 188.405C458.314 188.671 457.419 187.478 457.949 186.441C461.805 178.904 464.326 172.08 462.212 165.471H453.928C450.108 165.471 447.012 162.375 447.012 158.555V93.9158C447.012 90.0963 450.108 87 453.928 87H635.403Z" fill="url(#paint5_linear_1286_25781)" />
    <path d="M474.907 108.797L478.822 120.847H491.491L481.242 128.294L485.157 140.343L474.907 132.896L464.657 140.343L468.572 128.294L458.322 120.847H470.992L474.907 108.797Z" fill="url(#paint6_linear_1286_25781)" />
    <path d="M509.784 108.797L513.699 120.847H526.368L516.119 128.294L520.034 140.343L509.784 132.896L499.534 140.343L503.449 128.294L493.199 120.847H505.869L509.784 108.797Z" fill="url(#paint7_linear_1286_25781)" />
    <path d="M579.54 108.797L583.455 120.847H596.124L585.874 128.294L589.789 140.343L579.54 132.896L569.29 140.343L573.205 128.294L562.955 120.847H575.625L579.54 108.797Z" fill="url(#paint8_linear_1286_25781)" />
    <path d="M614.411 108.797L618.326 120.847H630.995L620.745 128.294L624.661 140.343L614.411 132.896L604.161 140.343L608.076 128.294L597.826 120.847H610.496L614.411 108.797Z" fill="#0F1441" fill-opacity="0.2" />
    <path d="M544.663 108.797L548.578 120.847H561.247L550.997 128.294L554.913 140.343L544.663 132.896L534.413 140.343L538.328 128.294L528.078 120.847H540.748L544.663 108.797Z" fill="url(#paint9_linear_1286_25781)" />
    <path d="M563.587 302.739C582.112 314.866 644.769 349.582 592.856 349.582C577.085 349.582 542.718 353.498 537.367 337.349C535.154 330.67 543.534 323.316 547.089 324.193C534.148 302.739 552.456 295.452 563.587 302.739Z" fill="url(#paint10_linear_1286_25781)" />
    <path d="M645 286.5C615 296 574.231 349.582 626.144 349.582C641.915 349.582 676.282 353.498 681.633 337.349C683.846 330.67 675.466 323.316 671.911 324.193C684.852 302.739 671.212 278.199 645 286.5Z" fill="url(#paint11_linear_1286_25781)" />
    <path d="M593.561 298.515C615.426 287.574 616.829 348.158 597.211 348.96C556.442 350.628 548.817 299.21 568.078 303.796C561.418 279.768 586.994 274.685 593.561 298.515Z" fill="url(#paint12_linear_1286_25781)" />
    <path d="M631.192 301.374C664.64 279.248 666.899 342.854 621.689 349.183C598.137 352.48 578.469 345.474 574.172 333.934C569.875 322.393 578.166 312.502 586.567 311.678C586.567 311.678 577.565 283.491 596.475 278.325C615.385 273.159 623.589 283.569 631.192 301.374Z" fill="url(#paint13_linear_1286_25781)" />
    <defs>
        <linearGradient id="paint0_linear_1286_25781" x1="812.5" y1="120.5" x2="241" y2="425.5" gradientUnits="userSpaceOnUse">
            <stop stop-color="#1E2B99" />
            <stop offset="1" stop-color="#7C8AFF" />
        </linearGradient>
        <linearGradient id="paint1_linear_1286_25781" x1="228.515" y1="227.625" x2="208.515" y2="262.266" gradientUnits="userSpaceOnUse">
            <stop stop-color="#F4D156" />
            <stop offset="1" stop-color="#F4D156" stop-opacity="0" />
        </linearGradient>
        <linearGradient id="paint2_linear_1286_25781" x1="201.509" y1="258.66" x2="181.509" y2="293.301" gradientUnits="userSpaceOnUse">
            <stop stop-color="#F4D156" />
            <stop offset="1" stop-color="#F4D156" stop-opacity="0" />
        </linearGradient>
        <linearGradient id="paint3_linear_1286_25781" x1="174.503" y1="289.444" x2="154.503" y2="324.085" gradientUnits="userSpaceOnUse">
            <stop stop-color="#F4D156" />
            <stop offset="1" stop-color="#F4D156" stop-opacity="0" />
        </linearGradient>
        <linearGradient id="paint4_linear_1286_25781" x1="548.39" y1="53.6638" x2="260.039" y2="304.35" gradientUnits="userSpaceOnUse">
            <stop stop-color="#A3ACFF" stop-opacity="0.2" />
            <stop offset="1" stop-color="#8994FD" stop-opacity="0" />
        </linearGradient>
        <linearGradient id="paint5_linear_1286_25781" x1="532.117" y1="274.207" x2="562.742" y2="117.105" gradientUnits="userSpaceOnUse">
            <stop stop-color="#DCE0FF" />
            <stop offset="1" stop-color="#F8F8FF" />
        </linearGradient>
        <linearGradient id="paint6_linear_1286_25781" x1="467.932" y1="110.237" x2="471.616" y2="150.12" gradientUnits="userSpaceOnUse">
            <stop stop-color="#F4D156" />
            <stop offset="1" stop-color="#FFBC3A" />
        </linearGradient>
        <linearGradient id="paint7_linear_1286_25781" x1="502.809" y1="110.237" x2="506.493" y2="150.12" gradientUnits="userSpaceOnUse">
            <stop stop-color="#F4D156" />
            <stop offset="1" stop-color="#FFBC3A" />
        </linearGradient>
        <linearGradient id="paint8_linear_1286_25781" x1="572.564" y1="110.237" x2="576.249" y2="150.12" gradientUnits="userSpaceOnUse">
            <stop stop-color="#F4D156" />
            <stop offset="1" stop-color="#FFBC3A" />
        </linearGradient>
        <linearGradient id="paint9_linear_1286_25781" x1="537.687" y1="110.237" x2="541.372" y2="150.12" gradientUnits="userSpaceOnUse">
            <stop stop-color="#F4D156" />
            <stop offset="1" stop-color="#FFBC3A" />
        </linearGradient>
        <linearGradient id="paint10_linear_1286_25781" x1="537.538" y1="291.906" x2="564.955" y2="346.937" gradientUnits="userSpaceOnUse">
            <stop stop-color="#5FBA35" />
            <stop offset="1" stop-color="#298212" />
        </linearGradient>
        <linearGradient id="paint11_linear_1286_25781" x1="681.462" y1="291.906" x2="654.045" y2="346.937" gradientUnits="userSpaceOnUse">
            <stop stop-color="#5FBA35" />
            <stop offset="1" stop-color="#2F5080" />
        </linearGradient>
        <linearGradient id="paint12_linear_1286_25781" x1="557.618" y1="269.669" x2="585.971" y2="328.643" gradientUnits="userSpaceOnUse">
            <stop stop-color="#93D872" />
            <stop offset="1" stop-color="#44A92A" />
        </linearGradient>
        <linearGradient id="paint13_linear_1286_25781" x1="636.251" y1="276.388" x2="623.499" y2="331.8" gradientUnits="userSpaceOnUse">
            <stop stop-color="#5FBA35" />
            <stop offset="1" stop-color="#298212" />
        </linearGradient>
    </defs>
</svg>
    