<svg width="88" height="88" viewBox="0 0 88 88" fill="none" xmlns="http://www.w3.org/2000/svg">
    <path opacity="0.2" fill-rule="evenodd" clip-rule="evenodd" d="M24 20C18.4772 20 14 24.4772 14 30V62C14 67.5228 18.4772 72 24 72H56.2549C59.3145 78.3293 64.3155 82.9229 73.9132 85.5536C75.5363 85.9985 76.8198 84.28 76.0876 82.7647C74.2608 78.9837 72.958 75.4173 72.8443 71.9649C77.972 71.5362 82 67.2385 82 62V30C82 24.4772 77.5228 20 72 20H24Z" fill="#1E2B99" fill-opacity="0.4"/>
    <path fill-rule="evenodd" clip-rule="evenodd" d="M16 8C10.4772 8 6 12.4772 6 18V50C6 55.5228 10.4772 60 16 60H48.2549C51.3145 66.3293 56.3155 70.9229 65.9132 73.5536C67.5363 73.9985 68.8198 72.28 68.0876 70.7647C66.2608 66.9837 64.958 63.4173 64.8443 59.9649C69.972 59.5362 74 55.2385 74 50V18C74 12.4772 69.5228 8 64 8H16Z" fill="#1E2B99"/>
    <path fill-rule="evenodd" clip-rule="evenodd" d="M20 34C20 29.5817 23.5817 26 28 26C28.8214 26 29.936 26.3924 31.2897 27.2513C32.6055 28.0861 33.9466 29.2323 35.1736 30.4308C36.3928 31.6216 37.4546 32.8196 38.2138 33.7237C38.2942 33.8194 38.371 33.9116 38.4441 34C38.371 34.0884 38.2942 34.1806 38.2138 34.2763C37.4546 35.1804 36.3928 36.3784 35.1736 37.5692C33.9466 38.7677 32.6055 39.9139 31.2897 40.7487C29.936 41.6076 28.8214 42 28 42C23.5817 42 20 38.4183 20 34ZM41 30.8242C40.2094 29.8979 39.1636 28.7364 37.9685 27.5692C36.6359 26.2677 35.0722 24.9139 33.4327 23.8737C31.8311 22.8576 29.94 22 28 22C21.3726 22 16 27.3726 16 34C16 40.6274 21.3726 46 28 46C29.94 46 31.8311 45.1424 33.4327 44.1263C35.0722 43.0861 36.6359 41.7323 37.9685 40.4308C39.1636 39.2636 40.2094 38.1021 41 37.1758C41.7906 38.1021 42.8364 39.2636 44.0315 40.4308C45.3641 41.7323 46.9278 43.0861 48.5673 44.1263C50.1689 45.1424 52.06 46 54 46C60.6274 46 66 40.6274 66 34C66 27.3726 60.6274 22 54 22C52.06 22 50.1689 22.8576 48.5673 23.8737C46.9278 24.9139 45.3641 26.2677 44.0315 27.5692C42.8364 28.7364 41.7906 29.8979 41 30.8242ZM62 34C62 29.5817 58.4183 26 54 26C53.1786 26 52.064 26.3924 50.7103 27.2513C49.3945 28.0861 48.0534 29.2323 46.8264 30.4308C45.6072 31.6216 44.5454 32.8196 43.7862 33.7237C43.7058 33.8194 43.629 33.9116 43.5559 34C43.629 34.0884 43.7058 34.1806 43.7862 34.2763C44.5454 35.1804 45.6072 36.3784 46.8264 37.5692C48.0534 38.7677 49.3945 39.9139 50.7103 40.7487C52.064 41.6076 53.1786 42 54 42C58.4183 42 62 38.4183 62 34Z" fill="url(#paint0_linear)"/>
    <defs>
        <linearGradient id="paint0_linear" x1="29.5" y1="28" x2="68.5" y2="90.5" gradientUnits="userSpaceOnUse">
            <stop stop-color="white"/>
            <stop offset="1" stop-color="#1E2B99"/>
        </linearGradient>
    </defs>
</svg>
