<svg width="88" height="88" viewBox="0 0 88 88" fill="none" xmlns="http://www.w3.org/2000/svg">
    <path fill-rule="evenodd" clip-rule="evenodd" d="M81.2617 33.1024C81.4914 35.7628 78.2391 35.9494 76.7499 33.7329C74.3703 30.1914 71.2794 27.1677 67.6818 24.8665C65.4324 23.4276 65.5452 20.1724 68.21 20.3422C71.4886 20.5513 74.7078 21.9086 77.2134 24.4142C79.6387 26.8395 80.9882 29.9333 81.2617 33.1024ZM80.0418 21.5858C86.2193 27.7632 86.968 37.3136 82.2881 44.3087C81.811 45.0218 81.592 45.8834 81.709 46.7334C81.901 48.1282 82.0002 49.5525 82.0002 51C82.0002 52.3489 81.914 53.6777 81.7469 54.9811C81.6274 55.9136 81.9107 56.8526 82.491 57.5923C88.0325 64.6557 87.5495 74.9066 81.0418 81.4142C74.4414 88.0146 63.9903 88.4175 56.9199 82.6227C56.1931 82.027 55.2605 81.724 54.3261 81.8237C53.2334 81.9402 52.1238 82 51.0002 82C49.8766 82 48.767 81.9402 47.6744 81.8237C46.7399 81.724 45.8074 82.027 45.0805 82.6227C38.0101 88.4175 27.559 88.0146 20.9586 81.4142C14.451 74.9066 13.9679 64.6557 19.5094 57.5924C20.0897 56.8527 20.373 55.9137 20.2534 54.9811C20.0863 53.6777 20.0002 52.3489 20.0002 51C20.0002 49.5525 20.0994 48.1281 20.2914 46.7334C20.4084 45.8834 20.1894 45.0218 19.7123 44.3086C15.0324 37.3136 15.7812 27.7632 21.9586 21.5858C28.2354 15.3089 37.9947 14.6369 45.0173 19.5698C45.7193 20.063 46.5757 20.3014 47.428 20.2036C48.6001 20.0691 49.7921 20 51.0002 20C52.2083 20 53.4003 20.0691 54.5723 20.2036C55.4247 20.3014 56.2811 20.063 56.9831 19.5698C64.0057 14.6369 73.765 15.3089 80.0418 21.5858ZM66.5518 82.5756C64.052 82.2602 64.2405 79.1516 66.425 77.8961C70.999 75.2673 74.8389 71.5052 77.5615 66.9932C78.8633 64.8359 81.975 64.714 82.2374 67.2198C82.6619 71.2743 81.3206 75.4786 78.2134 78.5858C75.0306 81.7686 70.6966 83.0985 66.5518 82.5756ZM19.7631 67.2199C20.0254 64.714 23.1371 64.836 24.4389 66.9932C27.1615 71.5053 31.0014 75.2673 35.5754 77.8961C37.7599 79.1516 37.9484 82.2603 35.4486 82.5756C31.3038 83.0985 26.9698 81.7686 23.787 78.5858C20.6799 75.4786 19.3385 71.2743 19.7631 67.2199ZM33.7904 20.3423C36.4552 20.1724 36.568 23.4276 34.3185 24.8665C30.721 27.1677 27.6301 30.1913 25.2505 33.7329C23.7613 35.9493 20.509 35.7627 20.7387 33.1024C21.0123 29.9332 22.3617 26.8395 24.787 24.4142C27.2926 21.9086 30.5117 20.5513 33.7904 20.3423ZM51.0002 65C58.7322 65 65.0002 58.732 65.0002 51C65.0002 43.268 58.7322 37 51.0002 37C43.2682 37 37.0002 43.268 37.0002 51C37.0002 58.732 43.2682 65 51.0002 65Z" fill="#1E2B99" fill-opacity="0.06"/>
    <path fill-rule="evenodd" clip-rule="evenodd" d="M70.0462 30.1442C66.8282 21.5378 59.8946 14.7445 51.1975 11.7162C56.4155 9.18247 62.881 10.0818 67.2134 14.4142C71.467 18.6679 72.4113 24.9777 70.0462 30.1442ZM70.0418 11.5858C76.5476 18.0915 77.0323 28.3382 71.4959 35.4014C71.8272 37.2173 72.0002 39.0884 72.0002 41C72.0002 42.8617 71.8361 44.6851 71.5215 46.4565C78.0675 53.5163 77.9076 64.5485 71.0418 71.4142C64.085 78.371 52.8505 78.4429 45.8053 71.6298C44.2393 71.8735 42.6345 72 41.0002 72C39.3659 72 37.7611 71.8735 36.1952 71.6299C29.15 78.4429 17.9154 78.371 10.9586 71.4142C4.09289 64.5485 3.93298 53.5163 10.4789 46.4566C10.1643 44.6852 10.0002 42.8617 10.0002 41C10.0002 39.0884 10.1732 37.2173 10.5044 35.4013C4.96816 28.3382 5.45287 18.0915 11.9586 11.5858C18.5625 4.98193 29.0211 4.58214 36.0917 10.3864C37.6904 10.1321 39.3299 10 41.0002 10C42.6705 10 44.31 10.1321 45.9087 10.3864C52.9793 4.58212 63.438 4.98191 70.0418 11.5858ZM50.7143 70.4475C59.8123 67.448 67.0476 60.3497 70.2344 51.3385C73.5675 56.7355 72.8938 63.9054 68.2134 68.5858C63.4598 73.3394 56.1383 73.9599 50.7143 70.4475ZM11.766 51.3385C14.9528 60.3498 22.1881 67.448 31.2861 70.4475C25.8621 73.9599 18.5406 73.3394 13.787 68.5858C9.10664 63.9054 8.43296 56.7356 11.766 51.3385ZM30.8029 11.7162C22.1058 14.7445 15.1722 21.5378 11.9542 30.1442C9.5891 24.9776 10.5334 18.6679 14.787 14.4142C19.1194 10.0818 25.5849 9.18249 30.8029 11.7162ZM41.0002 55C48.7322 55 55.0002 48.732 55.0002 41C55.0002 33.268 48.7322 27 41.0002 27C33.2682 27 27.0002 33.268 27.0002 41C27.0002 48.732 33.2682 55 41.0002 55Z" fill="#1E2B99"/>
    <mask id="mask0" mask-type="alpha" maskUnits="userSpaceOnUse" x="10" y="10" width="62" height="62">
        <path fill-rule="evenodd" clip-rule="evenodd" d="M41 72C58.1208 72 72 58.1208 72 41C72 23.8792 58.1208 10 41 10C23.8792 10 10 23.8792 10 41C10 58.1208 23.8792 72 41 72ZM41 55C48.732 55 55 48.732 55 41C55 33.268 48.732 27 41 27C33.268 27 27 33.268 27 41C27 48.732 33.268 55 41 55Z" fill="#959EF1"/>
    </mask>
    <g mask="url(#mask0)">
        <rect x="37" y="8" width="8" height="22" fill="url(#paint0_linear)"/>
        <rect x="37" y="53" width="8" height="21" fill="url(#paint1_linear)"/>
        <rect x="8" y="45" width="8" height="21" transform="rotate(-90 8 45)" fill="url(#paint2_linear)"/>
        <rect x="52" y="45" width="8" height="22" transform="rotate(-90 52 45)" fill="url(#paint3_linear)"/>
    </g>
    <defs>
        <linearGradient id="paint0_linear" x1="37" y1="19" x2="45.6264" y2="20.9166" gradientUnits="userSpaceOnUse">
            <stop stop-color="#FFDA55"/>
            <stop offset="1" stop-color="#EC9F0B"/>
        </linearGradient>
        <linearGradient id="paint1_linear" x1="37" y1="63.5" x2="45.587" y2="65.4987" gradientUnits="userSpaceOnUse">
            <stop stop-color="#FFDA55"/>
            <stop offset="1" stop-color="#EC9F0B"/>
        </linearGradient>
        <linearGradient id="paint2_linear" x1="8" y1="55.5" x2="16.587" y2="57.4987" gradientUnits="userSpaceOnUse">
            <stop stop-color="#FFDA55"/>
            <stop offset="1" stop-color="#EC9F0B"/>
        </linearGradient>
        <linearGradient id="paint3_linear" x1="52" y1="56" x2="60.6264" y2="57.9166" gradientUnits="userSpaceOnUse">
            <stop stop-color="#FFDA55"/>
            <stop offset="1" stop-color="#EC9F0B"/>
        </linearGradient>
    </defs>
</svg>
