<svg width="88" height="88" viewBox="0 0 88 88" fill="none" xmlns="http://www.w3.org/2000/svg">
    <path opacity="0.2" fill-rule="evenodd" clip-rule="evenodd" d="M24 20C18.4772 20 14 24.4772 14 30V62C14 67.5228 18.4772 72 24 72H56.2549C59.3145 78.3293 64.3155 82.9229 73.9132 85.5536C75.5363 85.9985 76.8198 84.28 76.0876 82.7647C74.2608 78.9837 72.958 75.4173 72.8443 71.9649C77.972 71.5362 82 67.2385 82 62V30C82 24.4772 77.5228 20 72 20H24Z" fill="#1E2B99" fill-opacity="0.4"/>
    <path fill-rule="evenodd" clip-rule="evenodd" d="M16 8C10.4772 8 6 12.4772 6 18V50C6 55.5228 10.4772 60 16 60H48.2549C51.3145 66.3293 56.3155 70.9229 65.9132 73.5536C67.5363 73.9985 68.8198 72.28 68.0876 70.7647C66.2608 66.9837 64.958 63.4173 64.8443 59.9649C69.972 59.5362 74 55.2385 74 50V18C74 12.4772 69.5228 8 64 8H16Z" fill="#1E2B99"/>
    <path d="M40 17L43.8167 28.7467L56.168 28.7467L46.1756 36.0066L49.9923 47.7533L40 40.4934L30.0077 47.7533L33.8244 36.0066L23.832 28.7467L36.1833 28.7467L40 17Z" fill="url(#paint0_linear)"/>
    <defs>
        <linearGradient id="paint0_linear" x1="32.18" y1="25.5" x2="91.6309" y2="71.2315" gradientUnits="userSpaceOnUse">
            <stop stop-color="#FFECA9"/>
            <stop offset="1" stop-color="#F4D156"/>
        </linearGradient>
    </defs>
</svg>
