<svg width="88" height="88" viewBox="0 0 88 88" fill="none" xmlns="http://www.w3.org/2000/svg">
    <path fill-rule="evenodd" clip-rule="evenodd" d="M23 44C23 39.5817 26.5817 36 31 36C31.8214 36 32.936 36.3924 34.2897 37.2513C35.6055 38.0861 36.9466 39.2323 38.1736 40.4308C39.3928 41.6216 40.4546 42.8196 41.2138 43.7237C41.2942 43.8194 41.371 43.9116 41.4441 44C41.371 44.0884 41.2942 44.1806 41.2138 44.2763C40.4546 45.1804 39.3928 46.3784 38.1736 47.5692C36.9466 48.7677 35.6055 49.9139 34.2897 50.7487C32.936 51.6076 31.8214 52 31 52C26.5817 52 23 48.4183 23 44ZM44 40.8242C43.2094 39.8979 42.1636 38.7364 40.9685 37.5692C39.6359 36.2677 38.0722 34.9139 36.4327 33.8737C34.8311 32.8576 32.94 32 31 32C24.3726 32 19 37.3726 19 44C19 50.6274 24.3726 56 31 56C32.94 56 34.8311 55.1424 36.4327 54.1263C38.0722 53.0861 39.6359 51.7323 40.9685 50.4308C42.1636 49.2636 43.2094 48.1021 44 47.1758C44.7906 48.1021 45.8364 49.2636 47.0315 50.4308C48.3641 51.7323 49.9278 53.0861 51.5673 54.1263C53.1689 55.1424 55.06 56 57 56C63.6274 56 69 50.6274 69 44C69 37.3726 63.6274 32 57 32C55.06 32 53.1689 32.8576 51.5673 33.8737C49.9278 34.9139 48.3641 36.2677 47.0315 37.5692C45.8364 38.7364 44.7906 39.8979 44 40.8242ZM65 44C65 39.5817 61.4183 36 57 36C56.1786 36 55.064 36.3924 53.7103 37.2513C52.3945 38.0861 51.0534 39.2323 49.8264 40.4308C48.6072 41.6216 47.5454 42.8196 46.7862 43.7237C46.7058 43.8194 46.629 43.9116 46.5559 44C46.629 44.0884 46.7058 44.1806 46.7862 44.2763C47.5454 45.1804 48.6072 46.3784 49.8264 47.5692C51.0534 48.7677 52.3945 49.9139 53.7103 50.7487C55.064 51.6076 56.1786 52 57 52C61.4183 52 65 48.4183 65 44Z" fill="url(#paint0_linear)"/>
    <path fill-rule="evenodd" clip-rule="evenodd" d="M8 16C8 11.5817 11.5817 8 16 8H32V16H16V32H8V16ZM8 72C8 76.4183 11.5817 80 16 80H32V72H16V56H8V72ZM72 8C76.4183 8 80 11.5817 80 16V32H72V16H56V8H72ZM80 72C80 76.4183 76.4183 80 72 80H56V72H72V56H80V72Z" fill="#1E2B99"/>
    <path opacity="0.2" fill-rule="evenodd" clip-rule="evenodd" d="M12 19C12 15.6863 14.6863 13 18 13H20H36V21H20V37H12V21V19ZM12 79C12 82.3137 14.6863 85 18 85H20H36V77H20V61H12V77V79ZM78 13C81.3137 13 84 15.6863 84 19V21V37H76V21H60V13H76H78ZM84 79C84 82.3137 81.3137 85 78 85H76H60V77H76V61H84V77V79Z" fill="#1E2B99" fill-opacity="0.4"/>
    <defs>
        <linearGradient id="paint0_linear" x1="19" y1="44" x2="40.5923" y2="71.4844" gradientUnits="userSpaceOnUse">
            <stop stop-color="#FFDA55"/>
            <stop offset="1" stop-color="#EC9F0B"/>
        </linearGradient>
    </defs>
</svg>
