<svg width="88" height="88" viewBox="0 0 88 88" fill="none" xmlns="http://www.w3.org/2000/svg">
    <path opacity="0.2" fill-rule="evenodd" clip-rule="evenodd" d="M51.2208 84.9184C51.2208 84.9184 81.0002 58.0496 81.0002 41.6029C81.0002 25.1562 67.6675 11.8235 51.2208 11.8235C34.7741 11.8235 21.4414 25.1562 21.4414 41.6029C21.4414 58.0496 51.2208 84.9184 51.2208 84.9184ZM55.6274 34.1841L51.2208 20.622L46.8142 34.1841H32.5541L44.0908 42.566L39.6842 56.1282L51.2208 47.7463L62.7575 56.1282L58.3509 42.566L69.8875 34.1841H55.6274Z" fill="#1E2B99" fill-opacity="0.4"/>
    <path d="M65.5588 32.7794C65.5588 49.2261 35.7794 76.0949 35.7794 76.0949C35.7794 76.0949 6 49.2261 6 32.7794C6 16.3327 19.3327 3 35.7794 3C52.2261 3 65.5588 16.3327 65.5588 32.7794Z" fill="#1E2B99"/>
    <path d="M35.7797 11.7985L40.1863 25.3606H54.4464L42.9097 33.7425L47.3163 47.3047L35.7797 38.9228L24.243 47.3047L28.6496 33.7425L17.113 25.3606H31.3731L35.7797 11.7985Z" fill="url(#paint0_linear)"/>
    <defs>
        <linearGradient id="paint0_linear" x1="55.0003" y1="41.5" x2="29.5003" y2="12" gradientUnits="userSpaceOnUse">
            <stop stop-color="#FFE794"/>
            <stop offset="1" stop-color="#FFE665"/>
        </linearGradient>
    </defs>
</svg>
