<svg width="88" height="88" viewBox="0 0 88 88" fill="none" xmlns="http://www.w3.org/2000/svg">
    <path opacity="0.2" fill-rule="evenodd" clip-rule="evenodd" d="M30 10C24.4772 10 20 14.4772 20 20V66H12V72C12 77.5229 16.4772 82 22 82H30H62H64V81.8C68.5645 80.8734 72 76.8379 72 72V26H82V15C82 12.2386 79.7614 10 77 10H72H58H30Z" fill="#1E2B99" fill-opacity="0.4"/>
    <path d="M12 14C12 8.47715 16.4772 4 22 4H64V66C64 71.5229 59.5228 76 54 76H22C16.4772 76 12 71.5229 12 66V14Z" fill="#1E2B99"/>
    <circle opacity="0.3" cx="37" cy="33" r="14" fill="#959EF1"/>
    <path d="M25 35.4964L32.3759 43L49 23" stroke="url(#paint0_linear)" stroke-width="6" stroke-linejoin="round"/>
    <rect x="50" y="4" width="19" height="15" fill="#1E2B99"/>
    <path d="M64 9C64 6.23858 66.2386 4 69 4C71.7614 4 74 6.23858 74 9V20H64V9Z" fill="#A2ABFB"/>
    <path d="M4 60H56V76H14C8.47715 76 4 71.5228 4 66V60Z" fill="#A2ABFB"/>
    <path d="M49 60H64V67.1765C64 72.0496 60.0496 76 55.1765 76C51.7653 76 49 73.2347 49 69.8235V60Z" fill="#1E2B99"/>
    <defs>
        <linearGradient id="paint0_linear" x1="43.8191" y1="20.425" x2="23.2554" y2="48.7899" gradientUnits="userSpaceOnUse">
            <stop stop-color="#FFEBA6"/>
            <stop offset="1" stop-color="#F4D156"/>
        </linearGradient>
    </defs>
</svg>
