<svg width="88" height="88" viewBox="0 0 88 88" fill="none" xmlns="http://www.w3.org/2000/svg">
    <path opacity="0.2" fill-rule="evenodd" clip-rule="evenodd" d="M37.2738 18.1971C35.9696 17.1197 34 18.0474 34 19.739V20C34 21.1046 34.8954 22 36 22H41.8773L37.2738 18.1971ZM26 19.739C26 11.2807 35.8478 6.64246 42.3688 12.0294L50 18.3334L57.6312 12.0294C64.1522 6.64246 74 11.2807 74 19.739V20C74 25.4822 69.5885 29.934 64.1218 29.9993L64.1227 30L79 30C81.2091 30 83 31.7909 83 34V44C83 45.8857 81.6951 47.4667 79.939 47.8892C79.9793 48.2539 80 48.6245 80 49V76C80 81.5229 75.5228 86 70 86H55H45H30C24.4772 86 20 81.5229 20 76V49C20 48.6245 20.0207 48.2539 20.061 47.8892C18.3049 47.4667 17 45.8857 17 44V34C17 31.7909 18.7909 30 21 30L35.8773 30L35.8782 29.9993C30.4115 29.934 26 25.4822 26 20V19.739ZM62.7262 18.1971C64.0304 17.1197 66 18.0474 66 19.739V20C66 21.1046 65.1046 22 64 22H58.1227L62.7262 18.1971Z" fill="#1E2B99" fill-opacity="0.4"/>
    <rect x="14" y="33" width="60" height="47" rx="10" fill="#1E2B99"/>
    <rect x="11" y="24" width="66" height="18" rx="4" fill="url(#paint0_linear)"/>
    <rect x="39" y="24" width="10" height="56" fill="url(#paint1_linear)"/>
    <path fill-rule="evenodd" clip-rule="evenodd" d="M28 13.739C28 12.0474 29.9696 11.1197 31.2738 12.1971L35.8773 16H30C28.8954 16 28 15.1046 28 14V13.739ZM36.3688 6.0294C29.8478 0.642463 20 5.28071 20 13.739V14C20 19.4822 24.4115 23.934 29.8782 23.9993L29.8773 24H30H41H47H58H58.1227L58.1218 23.9993C63.5885 23.934 68 19.4822 68 14V13.739C68 5.28071 58.1522 0.642463 51.6312 6.0294L44 12.3334L36.3688 6.0294ZM60 13.739C60 12.0474 58.0304 11.1197 56.7262 12.1971L52.1227 16H58C59.1046 16 60 15.1046 60 14V13.739Z" fill="url(#paint2_linear)"/>
    <defs>
        <linearGradient id="paint0_linear" x1="62.629" y1="44.3226" x2="59.0204" y2="10.4167" gradientUnits="userSpaceOnUse">
            <stop stop-color="#1E2B99"/>
            <stop offset="1" stop-color="#7C8AFF"/>
        </linearGradient>
        <linearGradient id="paint1_linear" x1="39" y1="52" x2="50.1822" y2="53.22" gradientUnits="userSpaceOnUse">
            <stop stop-color="#FFDA55"/>
            <stop offset="1" stop-color="#EC9F0B"/>
        </linearGradient>
        <linearGradient id="paint2_linear" x1="20" y1="13.86" x2="37.5702" y2="39.2684" gradientUnits="userSpaceOnUse">
            <stop stop-color="#FFDA55"/>
            <stop offset="1" stop-color="#EC9F0B"/>
        </linearGradient>
    </defs>
</svg>
