<svg width="718" height="583" fill="none" xmlns="http://www.w3.org/2000/svg"><path d="M68.06 130h89.08v342H48.04l20.02-342z" fill="url(#paint0_linear)"/><path d="M188.17 111a40 40 0 0140-40h8.08a40 40 0 0140 40v45h-88.08v-45z" stroke="url(#paint1_linear)" stroke-width="10"/><path fill-rule="evenodd" clip-rule="evenodd" d="M260.2 66a45 45 0 00-45 45v19h-76.07v342h264.23l-20.02-342h-70.06v-19a45 45 0 00-45-45h-8.08zm43.08 64v-19a35 35 0 00-35-35h-8.08a35 35 0 00-35 35v19h78.08z" fill="url(#paint2_linear)"/><path fill="url(#paint3_linear)" d="M179.16 201h195.18v158H179.16z"/><path d="M463.42 270h194.17l-10 193H473.41l-10-193z" fill="url(#paint4_linear)"/><path d="M589.53 153c0 39.49-32.03 150.5-32.03 150.5s-86.08-91.01-86.08-130.5c0-39.49 31.75-46.98 39.54-96 8.5-53.5 78.57 36.51 78.57 76z" fill="url(#paint5_linear)"/><path d="M503.7 188.87C530.92 201.27 549 250.5 549 276c-51.55 5-95.55-16.13-86.34-32.13 11.51-20-12.5-25.5-21.02-48-8.5-22.5 28.03-22.5 62.06-7z" fill="url(#paint6_linear)"/><path d="M662.1 205.5c2.15 51.33-55.06 69-92.8 77.5 0 0-51.04-117.12-10.8-106.17C599.54 188 655.1 39 662.1 205.5z" fill="url(#paint7_linear)"/><path d="M458.41 267H662.6v47H458.4v-47z" fill="url(#paint8_linear)"/><path d="M247.22 237.97h69.4v266.45h-79.4l10-266.45z" fill="url(#paint9_linear)"/><path d="M271.24 238h69.4v266.45h-79.4l10-266.45z" fill="url(#paint10_linear)"/><path fill-rule="evenodd" clip-rule="evenodd" d="M324.78 226.28A39.3 39.3 0 01364.1 187a39.3 39.3 0 0139.32 39.28v36.94h-78.64v-36.94zM364.1 197a29.3 29.3 0 00-29.3 29.28v26.94h58.6v-26.94A29.3 29.3 0 00364.1 197z" fill="url(#paint11_linear)"/><path d="M291.58 237.97h205.87l10 266.45H291.59V237.97z" fill="url(#paint12_linear)"/><ellipse cx="393.35" cy="374" rx="47.04" ry="47" fill="url(#paint13_linear)"/><path fill-rule="evenodd" clip-rule="evenodd" d="M327.77 248.14a4 4 0 00-3.92 1.05L299.42 274a4 4 0 00-1.02 3.85l25.32 94.38a4 4 0 004.9 2.83l58-15.53a4 4 0 002.84-4.9l-25.31-94.38a4 4 0 00-2.8-2.82l-33.58-9.29zm3.78 23.26a6 6 0 100-12 6 6 0 000 12z" fill="url(#paint14_linear)"/><path d="M349.21 335.25c-2.26.53-4.35.86-6.3 1-1.93.12-3.67.07-5.2-.18l-1.63-6.06c1.55.29 3.4.43 5.57.43 2.17 0 4.2-.22 6.1-.65l-2.47-9.2c-2.89-.23-5.27-.6-7.14-1.1a10.8 10.8 0 01-4.4-2.36 9.21 9.21 0 01-2.3-4.2 7.87 7.87 0 011.32-7.19c1.6-2.13 4-3.76 7.22-4.89l-1.16-4.33 3.58-.95 1.13 4.22a29.88 29.88 0 0111-.52l-.67 5.93a27.64 27.64 0 00-4.52-.19c-1.5.02-2.94.15-4.3.4l2.4 8.98c2.28.13 4.38.38 6.3.75 1.92.38 3.55 1.06 4.9 2.05a7.59 7.59 0 012.8 4.4c.7 2.6.32 5-1.13 7.22-1.43 2.2-3.95 3.97-7.57 5.32l1.5 5.63-3.56.96-1.47-5.47zm-7.72-28.77c-2.76 1.08-3.89 2.58-3.38 4.5a3.3 3.3 0 001.63 2.17 9.8 9.8 0 003.77.85l-2.02-7.52zm9.77 22.14c2.93-1.21 4.12-2.82 3.58-4.85a2.93 2.93 0 00-1.71-2.03c-.85-.43-2.16-.7-3.93-.8l2.06 7.68z" fill="#E09708"/><path fill-rule="evenodd" clip-rule="evenodd" d="M320.32 248.63c2.69-14.35 13.66-27.13 27.5-27.13a2 2 0 110 4c-11.2 0-21.08 10.61-23.56 23.87a2 2 0 01-3.94-.74zM354.92 223.21a2 2 0 012.69.9c3.24 6.47 4.07 15.36.46 23.1-3.66 7.88-11.72 14.21-25.55 15.78a2 2 0 11-.45-3.98c12.7-1.43 19.4-7.1 22.37-13.48 3.03-6.5 2.35-14.11-.41-19.64a2 2 0 01.9-2.68z" fill="#E09708"/><path fill-rule="evenodd" clip-rule="evenodd" d="M345.73 229.28A39.3 39.3 0 01385.05 190a39.3 39.3 0 0139.32 39.28v9.22h-10.01v-9.22A29.3 29.3 0 00385.05 200a29.3 29.3 0 00-29.3 29.28v9.22h-10.02v-9.22z" fill="url(#paint15_linear)"/><path d="M10 388h116.11l-10.1 160h-95.9L10 388z" fill="url(#paint16_linear)"/><path d="M22.02 410s18.19-2.7 46.04 14c22.52 13.5 46.04-14 46.04-14l-8 126H30.03l-8.01-126z" fill="url(#paint17_linear)"/><path d="M14.01 367a40 40 0 0140-40h28.1a40 40 0 0140 40v15H14.01v-15z" fill="url(#paint18_linear)"/><path d="M4 376h128.12l4 16H0l4-16z" fill="url(#paint19_linear)"/><path fill="#FFDA55" d="M11.01 251.1l11.6-3.1 30.83 114.95-11.6 3.1z"/><path d="M12.82 257.87l14.2 6.55 4.14 15.46-14.19-6.56-4.15-15.45z" fill="url(#paint20_linear)"/><path d="M20.08 284.91l14.19 6.56 4.14 15.45-14.19-6.55-4.14-15.46z" fill="url(#paint21_linear)"/><path d="M27.33 311.96l14.19 6.55 4.15 15.46-14.2-6.56-4.14-15.45z" fill="url(#paint22_linear)"/><path d="M34.58 339l14.2 6.56L52.91 361l-14.19-6.55L34.58 339z" fill="url(#paint23_linear)"/><path d="M107.1 423h116.1l-10.1 160h-95.9l-10.1-160z" fill="url(#paint24_linear)"/><path fill="url(#paint25_linear)" d="M110.1 403h110.1v24H110.1z"/><path fill="url(#paint26_linear)" d="M97.09 421h136.12v24H97.09z"/><path opacity=".25" d="M216.2 534.13A37.02 37.02 0 01159.14 503a37.02 37.02 0 0160.55-28.58c0 13.58-3.5 47.58-3.5 59.71z" fill="url(#paint27_linear)"/><path d="M535.48 510H662.6l-8.71 42.06A20 20 0 01634.3 568h-70.52a20 20 0 01-19.59-15.94L535.5 510z" fill="url(#paint28_linear)"/><path d="M661.6 510H535.48c9.89-55 116.55-53.21 126.12 0z" fill="url(#paint29_linear)"/><path fill-rule="evenodd" clip-rule="evenodd" d="M621.56 486h9c0-17.67-14.33-32-32.02-32a32.01 32.01 0 00-32.03 32h9c0-12.7 10.32-23 23.03-23a23.01 23.01 0 0123.02 23z" fill="url(#paint30_linear)"/><ellipse cx="574.02" cy="438.5" rx="37.53" ry="37.5" fill="#fff" fill-opacity=".24"/><path fill="url(#paint31_linear)" d="M552.5 419h41.04v39H552.5z"/><path d="M552.5 419h41.03v39l-12-28.5L552.5 419z" fill="url(#paint32_linear)"/><path d="M552.5 419l13 26 28.03 13H552.5v-39z" fill="url(#paint33_linear)"/><path d="M593.53 419v39H552.5l41.03-39z" fill="url(#paint34_linear)"/><path d="M593.53 419v39l-12-28 12-11z" fill="url(#paint35_linear)"/><path d="M566 445l27.53 13H552.5l13.5-13z" fill="url(#paint36_linear)"/><path d="M628.57 387.01l32.9 122.67 38.4-19.29a19.99 19.99 0 0010.34-23.04l-18.24-68.03a20.01 20.01 0 00-20.48-14.79l-42.92 2.48z" fill="url(#paint37_linear)"/><path fill-rule="evenodd" clip-rule="evenodd" d="M619.68 0c6 0 10.85 4.86 10.85 10.85v75.92c0 6-4.86 10.85-10.85 10.85H435.53c-4.51 13.83-12.33 23.5-31.79 28.3-1.77.45-3.17-1.42-2.35-3.06 4.56-9.04 7.44-17.27 4.88-25.24h-8.08a10.85 10.85 0 01-10.84-10.85V10.85c0-6 4.85-10.85 10.84-10.85h221.5z" fill="url(#paint38_linear)"/><path d="M422.09 27.12l4.87 14.99h15.78l-12.76 9.26 4.87 14.99-12.76-9.26-12.76 9.26 4.87-14.99-12.76-9.26h15.77l4.88-15z" fill="url(#paint39_linear)"/><path d="M465.51 27.12l4.88 14.99h15.77l-12.76 9.26 4.88 14.99-12.77-9.26-12.76 9.26 4.88-14.99-12.77-9.26h15.78l4.87-15z" fill="url(#paint40_linear)"/><path d="M552.36 27.12l4.88 14.99H573l-12.76 9.26 4.88 14.99-12.77-9.26-12.76 9.26 4.88-14.99-12.77-9.26h15.78l4.87-15z" fill="url(#paint41_linear)"/><path d="M595.79 27.12l4.87 14.99h15.78l-12.77 9.26 4.88 14.99-12.76-9.26-12.76 9.26 4.87-14.99-12.76-9.26h15.77l4.88-15z" fill="url(#paint42_linear)"/><path d="M508.94 27.12l4.87 14.99h15.78l-12.76 9.26 4.87 14.99-12.76-9.26-12.76 9.26 4.87-14.99-12.76-9.26h15.77l4.88-15z" fill="url(#paint43_linear)"/><defs><linearGradient id="paint0_linear" x1="59.68" y1="135.1" x2="171.33" y2="164.16" gradientUnits="userSpaceOnUse"><stop stop-color="#F4D156"/><stop offset="1" stop-color="#E09707"/></linearGradient><linearGradient id="paint1_linear" x1="232.21" y1="71" x2="232.21" y2="235.5" gradientUnits="userSpaceOnUse"><stop stop-color="#E9AF28"/><stop offset="1" stop-color="#E09708"/></linearGradient><linearGradient id="paint2_linear" x1="218.4" y1="82.76" x2="283.56" y2="541.76" gradientUnits="userSpaceOnUse"><stop stop-color="#F4D156"/><stop offset="1" stop-color="#FFBC3A"/></linearGradient><linearGradient id="paint3_linear" x1="237.71" y1="207.52" x2="251.27" y2="388.73" gradientUnits="userSpaceOnUse"><stop stop-color="#FFE68D"/><stop offset="1" stop-color="#FFBC3A"/></linearGradient><linearGradient id="paint4_linear" x1="594.53" y1="457" x2="626.33" y2="306.44" gradientUnits="userSpaceOnUse"><stop stop-color="#1E2B99"/><stop offset="1" stop-color="#6474FF"/></linearGradient><linearGradient id="paint5_linear" x1="461.4" y1="65.13" x2="515.91" y2="247.6" gradientUnits="userSpaceOnUse"><stop stop-color="#74C24F"/><stop offset="1" stop-color="#2B7918"/></linearGradient><linearGradient id="paint6_linear" x1="452.98" y1="184.69" x2="456.41" y2="260.49" gradientUnits="userSpaceOnUse"><stop stop-color="#74C24F"/><stop offset="1" stop-color="#31881B"/></linearGradient><linearGradient id="paint7_linear" x1="558.5" y1="130.5" x2="565.53" y2="250.52" gradientUnits="userSpaceOnUse"><stop stop-color="#74C24F"/><stop offset="1" stop-color="#31881B"/></linearGradient><linearGradient id="paint8_linear" x1="609.08" y1="321.44" x2="610.59" y2="275.06" gradientUnits="userSpaceOnUse"><stop stop-color="#6C7BFF"/><stop offset="1" stop-color="#A5AEFF"/></linearGradient><linearGradient id="paint9_linear" x1="240.69" y1="241.94" x2="327.68" y2="264.58" gradientUnits="userSpaceOnUse"><stop stop-color="#F4D156"/><stop offset="1" stop-color="#E09707"/></linearGradient><linearGradient id="paint10_linear" x1="405.86" y1="323" x2="289.67" y2="408.9" gradientUnits="userSpaceOnUse"><stop stop-color="#F4D156"/><stop offset="1" stop-color="#E09707"/></linearGradient><linearGradient id="paint11_linear" x1="410.37" y1="218.5" x2="321.8" y2="237.53" gradientUnits="userSpaceOnUse"><stop stop-color="#FFDF9A"/><stop offset="1" stop-color="#F1B104"/></linearGradient><linearGradient id="paint12_linear" x1="356.34" y1="248.97" x2="390.94" y2="552.33" gradientUnits="userSpaceOnUse"><stop stop-color="#F4D156"/><stop offset="1" stop-color="#FFBC3A"/></linearGradient><linearGradient id="paint13_linear" x1="374.54" y1="330.88" x2="384.46" y2="438.38" gradientUnits="userSpaceOnUse"><stop stop-color="#FFE68D"/><stop offset="1" stop-color="#FFBC3A"/></linearGradient><linearGradient id="paint14_linear" x1="313.9" y1="256.37" x2="372.01" y2="383.13" gradientUnits="userSpaceOnUse"><stop stop-color="#fff"/><stop offset="1" stop-color="#FFEBC4"/></linearGradient><linearGradient id="paint15_linear" x1="361.82" y1="204.5" x2="385.01" y2="261.24" gradientUnits="userSpaceOnUse"><stop stop-color="#FFF8E3"/><stop offset="1" stop-color="#FFE082"/></linearGradient><linearGradient id="paint16_linear" x1="93.22" y1="573.33" x2="125.62" y2="422.24" gradientUnits="userSpaceOnUse"><stop stop-color="#1E2B99"/><stop offset="1" stop-color="#6474FF"/></linearGradient><linearGradient id="paint17_linear" x1="46.54" y1="360" x2="40.78" y2="518.16" gradientUnits="userSpaceOnUse"><stop stop-color="#A5AEFF"/><stop offset="1" stop-color="#6474FF"/></linearGradient><linearGradient id="paint18_linear" x1="88.08" y1="474.81" x2="69.98" y2="320.44" gradientUnits="userSpaceOnUse"><stop stop-color="#8C98FF"/><stop offset="1" stop-color="#F8F8FF"/></linearGradient><linearGradient id="paint19_linear" x1="93.27" y1="419" x2="96.67" y2="378.88" gradientUnits="userSpaceOnUse"><stop stop-color="#8C98FF"/><stop offset="1" stop-color="#C8CEFF"/></linearGradient><linearGradient id="paint20_linear" x1="27.44" y1="266.49" x2="15.05" y2="260.46" gradientUnits="userSpaceOnUse"><stop stop-color="#FFE794"/><stop offset="1" stop-color="#FFE665"/></linearGradient><linearGradient id="paint21_linear" x1="34.69" y1="293.53" x2="22.3" y2="287.5" gradientUnits="userSpaceOnUse"><stop stop-color="#FFE794"/><stop offset="1" stop-color="#FFE665"/></linearGradient><linearGradient id="paint22_linear" x1="41.95" y1="320.58" x2="29.56" y2="314.55" gradientUnits="userSpaceOnUse"><stop stop-color="#FFE794"/><stop offset="1" stop-color="#FFE665"/></linearGradient><linearGradient id="paint23_linear" x1="49.2" y1="347.63" x2="36.81" y2="341.6" gradientUnits="userSpaceOnUse"><stop stop-color="#FFE794"/><stop offset="1" stop-color="#FFE665"/></linearGradient><linearGradient id="paint24_linear" x1="190.3" y1="608.33" x2="222.71" y2="457.24" gradientUnits="userSpaceOnUse"><stop stop-color="#1E2B99"/><stop offset="1" stop-color="#6474FF"/></linearGradient><linearGradient id="paint25_linear" x1="80.03" y1="388.5" x2="148.62" y2="487.01" gradientUnits="userSpaceOnUse"><stop stop-color="#fff"/><stop offset="1" stop-color="#C8CEFF"/></linearGradient><linearGradient id="paint26_linear" x1="190.36" y1="485.5" x2="197.95" y2="425.85" gradientUnits="userSpaceOnUse"><stop stop-color="#8C98FF"/><stop offset="1" stop-color="#C8CEFF"/></linearGradient><linearGradient id="paint27_linear" x1="209.89" y1="664.88" x2="298.57" y2="541.96" gradientUnits="userSpaceOnUse"><stop stop-color="#8C98FF"/><stop offset="1" stop-color="#C8CEFF"/></linearGradient><linearGradient id="paint28_linear" x1="626.58" y1="577.18" x2="630.63" y2="520.18" gradientUnits="userSpaceOnUse"><stop stop-color="#1E2B99"/><stop offset="1" stop-color="#6474FF"/></linearGradient><linearGradient id="paint29_linear" x1="625.86" y1="516.43" x2="627.87" y2="476.44" gradientUnits="userSpaceOnUse"><stop stop-color="#1E2B99"/><stop offset="1" stop-color="#6474FF"/></linearGradient><linearGradient id="paint30_linear" x1="572.51" y1="470" x2="595.49" y2="502.01" gradientUnits="userSpaceOnUse"><stop stop-color="#F4D156"/><stop offset="1" stop-color="#FFBC3A"/></linearGradient><linearGradient id="paint31_linear" x1="569.01" y1="433.5" x2="590.51" y2="462.02" gradientUnits="userSpaceOnUse"><stop stop-color="#fff"/><stop offset="1" stop-color="#C8CEFF"/></linearGradient><linearGradient id="paint32_linear" x1="593.53" y1="395.5" x2="578.04" y2="431.01" gradientUnits="userSpaceOnUse"><stop stop-color="#fff"/><stop offset="1" stop-color="#C8CEFF"/></linearGradient><linearGradient id="paint33_linear" x1="552.5" y1="421.5" x2="576.5" y2="445.52" gradientUnits="userSpaceOnUse"><stop stop-color="#fff"/><stop offset="1" stop-color="#C8CEFF"/></linearGradient><linearGradient id="paint34_linear" x1="600.04" y1="460.5" x2="572.53" y2="442.48" gradientUnits="userSpaceOnUse"><stop stop-color="#fff"/><stop offset="1" stop-color="#C8CEFF"/></linearGradient><linearGradient id="paint35_linear" x1="586.53" y1="446" x2="600.52" y2="414.49" gradientUnits="userSpaceOnUse"><stop stop-color="#fff"/><stop offset="1" stop-color="#C8CEFF"/></linearGradient><linearGradient id="paint36_linear" x1="552.5" y1="458" x2="581.01" y2="444.98" gradientUnits="userSpaceOnUse"><stop stop-color="#fff"/><stop offset="1" stop-color="#A9B2FF"/></linearGradient><linearGradient id="paint37_linear" x1="713.78" y1="509.73" x2="630.76" y2="399.19" gradientUnits="userSpaceOnUse"><stop stop-color="#1E2B99"/><stop offset="1" stop-color="#9DA8FF"/></linearGradient><linearGradient id="paint38_linear" x1="435.39" y1="244" x2="498.4" y2="-16.92" gradientUnits="userSpaceOnUse"><stop stop-color="#DEE2FF"/><stop offset="1" stop-color="#F8F8FF"/></linearGradient><linearGradient id="paint39_linear" x1="413.4" y1="28.91" x2="417.98" y2="78.52" gradientUnits="userSpaceOnUse"><stop stop-color="#F4D156"/><stop offset="1" stop-color="#FFBC3A"/></linearGradient><linearGradient id="paint40_linear" x1="456.83" y1="28.91" x2="461.41" y2="78.52" gradientUnits="userSpaceOnUse"><stop stop-color="#F4D156"/><stop offset="1" stop-color="#FFBC3A"/></linearGradient><linearGradient id="paint41_linear" x1="543.68" y1="28.91" x2="548.26" y2="78.52" gradientUnits="userSpaceOnUse"><stop stop-color="#F4D156"/><stop offset="1" stop-color="#FFBC3A"/></linearGradient><linearGradient id="paint42_linear" x1="587.1" y1="28.91" x2="591.68" y2="78.52" gradientUnits="userSpaceOnUse"><stop stop-color="#F4D156"/><stop offset="1" stop-color="#FFBC3A"/></linearGradient><linearGradient id="paint43_linear" x1="500.25" y1="28.91" x2="504.83" y2="78.52" gradientUnits="userSpaceOnUse"><stop stop-color="#F4D156"/><stop offset="1" stop-color="#FFBC3A"/></linearGradient></defs></svg>
