<svg width="346" height="260" fill="none" xmlns="http://www.w3.org/2000/svg"><path d="M241.8 186.6c55.2 13.2 125.4-34.2 98-85.4-27.5-51.3-77.4.1-152.2-71.1C106-47.6-1 40.4 70.6 126c39 46.7-9.2 107.5 50.3 129.7 59.5 22.2 86-77.5 120.9-69.2z" fill="url(#paint0_linear)" fill-opacity=".1"/><path d="M168 225.4C-61 189.2-18-67.5 74.7 25 112.4 62.8 175.8-5 202.1.1c58.4 11.3 14 95.4 81.8 135.9 63 37.5 1.4 108-115.8 89.4z" fill="url(#paint1_linear)"/><circle r="61.5" transform="rotate(-45 217.1 -117.8)" fill="url(#paint2_linear)" stroke="url(#paint3_linear)" stroke-width="5" stroke-linejoin="round"/><circle r="51.2" transform="rotate(-45 218.7 -123.2)" fill="url(#paint4_linear)"/><circle r="51.2" transform="rotate(-45 217.1 -117.8)" fill="url(#paint5_linear)"/><path d="M105.8 131.1c-7.3-12.5-3-37 5.4-37.7 8.5-.8-5.7 21.1-5.4 37.7z" fill="url(#paint6_linear)"/><path d="M189.3 124.8c1.6 12.4-14.2 30.3-17.9 25-3.7-5.3 14-13.5 17.9-25z" fill="url(#paint7_linear)"/><rect width="27" height="13.5" rx="5" transform="rotate(-45 299.5 -132.9)" fill="url(#paint8_linear)"/><rect width="18.9" height="64.7" rx="4" transform="rotate(-45 313.7 -144.5)" fill="url(#paint9_linear)"/><rect width="12.8" height="64.7" rx="4" transform="rotate(-45 313.7 -144.5)" fill="url(#paint10_linear)"/><path opacity=".1" fill-rule="evenodd" clip-rule="evenodd" d="M303.1 49a7 7 0 017 7v39a7 7 0 01-7 6.9H188.3c-2.8 8.6-7.7 14.6-19.8 17.6-1.1.3-2-.9-1.5-2 2.8-5.6 4.6-10.7 3-15.6h-4.9a7 7 0 01-7-7V56a7 7 0 017-6.9h138z" fill="#001BFF"/><path fill-rule="evenodd" clip-rule="evenodd" d="M311.7 33.2a7 7 0 017 6.9v47.1a7 7 0 01-7 7H196.8c-2.8 8.6-7.6 14.6-19.8 17.6-1 .3-2-.9-1.5-2 2.9-5.6 4.7-10.7 3-15.7h-4.8a7 7 0 01-7-6.9V40.1a7 7 0 017-7h138z" fill="url(#paint11_linear)"/><path d="M188.4 50.1l3 9.4h10l-8 5.7 3 9.4-8-5.8-8 5.8 3.1-9.4-8-5.7h9.9l3-9.4z" fill="url(#paint12_linear)"/><path d="M215.6 50.1l3 9.4h9.9l-8 5.7 3 9.4-8-5.8-8 5.8 3.1-9.4-8-5.7h10l3-9.4z" fill="url(#paint13_linear)"/><path d="M269.8 50.1l3 9.4h9.9l-8 5.7 3 9.4-7.9-5.8-8 5.8 3-9.4-7.9-5.7h9.9l3-9.4z" fill="url(#paint14_linear)"/><path d="M297 50.1l3 9.4h9.8l-8 5.7 3 9.4-7.9-5.8-8 5.8 3-9.4-7.9-5.7h9.9l3-9.4z" fill="url(#paint15_linear)"/><path d="M242.7 50.1l3 9.4h9.9l-8 5.7 3 9.4-8-5.8-7.9 5.8 3-9.4-8-5.7h10l3-9.4z" fill="url(#paint16_linear)"/><defs><linearGradient id="paint0_linear" x1="1091.1" y1="-375.7" x2="1180" y2="394.9" gradientUnits="userSpaceOnUse"><stop stop-color="#1E2B99"/><stop offset="1" stop-color="#7C8AFF"/></linearGradient><linearGradient id="paint1_linear" x1="108.3" y1="-58.8" x2="128.6" y2="214.9" gradientUnits="userSpaceOnUse"><stop stop-color="#3D4AB6" stop-opacity=".1"/><stop offset="1" stop-color="#3F4BB8" stop-opacity="0"/></linearGradient><linearGradient id="paint2_linear" x1="0" y1="19.3" x2="69.1" y2="161.3" gradientUnits="userSpaceOnUse"><stop stop-color="#2838BE"/><stop offset="1" stop-color="#1E2B99"/></linearGradient><linearGradient id="paint3_linear" x1="64" y1="0" x2="64" y2="128" gradientUnits="userSpaceOnUse"><stop stop-color="#6572E6"/><stop offset="1" stop-color="#1F2C9B"/></linearGradient><linearGradient id="paint4_linear" x1="91" y1="91" x2="20.5" y2="30.6" gradientUnits="userSpaceOnUse"><stop stop-color="#0D1A84" stop-opacity=".8"/><stop offset="1" stop-color="#1E2B99" stop-opacity="0"/></linearGradient><linearGradient id="paint5_linear" x1="13.1" y1="207.4" x2="156.6" y2="23.6" gradientUnits="userSpaceOnUse"><stop stop-color="#fff"/><stop offset="1" stop-color="#7C8AFF"/></linearGradient><linearGradient id="paint6_linear" x1="125.4" y1="124" x2="110.7" y2="100.6" gradientUnits="userSpaceOnUse"><stop stop-color="#fff" stop-opacity="0"/><stop offset="1" stop-color="#fff"/></linearGradient><linearGradient id="paint7_linear" x1="175.9" y1="120.7" x2="173.6" y2="150.9" gradientUnits="userSpaceOnUse"><stop stop-color="#fff" stop-opacity="0"/><stop offset="1" stop-color="#fff"/></linearGradient><linearGradient id="paint8_linear" x1="20.2" y1="19.1" x2="15.8" y2="-6.2" gradientUnits="userSpaceOnUse"><stop stop-color="#1E2B99"/><stop offset="1" stop-color="#7C8AFF"/></linearGradient><linearGradient id="paint9_linear" x1="9.4" y1="62.3" x2="-20.1" y2="34.7" gradientUnits="userSpaceOnUse"><stop stop-color="#2838BE"/><stop offset="1" stop-color="#1E2B99"/></linearGradient><linearGradient id="paint10_linear" x1="6.4" y1="62.3" x2="-20.4" y2="45.4" gradientUnits="userSpaceOnUse"><stop stop-color="#4654C5"/><stop offset="1" stop-color="#1E2B99"/></linearGradient><linearGradient id="paint11_linear" x1="232.9" y1="178.4" x2="256.6" y2="56.5" gradientUnits="userSpaceOnUse"><stop stop-color="#DCE0FF"/><stop offset="1" stop-color="#F8F8FF"/></linearGradient><linearGradient id="paint12_linear" x1="183" y1="51.2" x2="185.9" y2="82.2" gradientUnits="userSpaceOnUse"><stop stop-color="#F4D156"/><stop offset="1" stop-color="#FFBC3A"/></linearGradient><linearGradient id="paint13_linear" x1="210.1" y1="51.2" x2="213" y2="82.2" gradientUnits="userSpaceOnUse"><stop stop-color="#F4D156"/><stop offset="1" stop-color="#FFBC3A"/></linearGradient><linearGradient id="paint14_linear" x1="264.4" y1="51.2" x2="267.2" y2="82.2" gradientUnits="userSpaceOnUse"><stop stop-color="#F4D156"/><stop offset="1" stop-color="#FFBC3A"/></linearGradient><linearGradient id="paint15_linear" x1="291.5" y1="51.2" x2="294.4" y2="82.2" gradientUnits="userSpaceOnUse"><stop stop-color="#F4D156"/><stop offset="1" stop-color="#FFBC3A"/></linearGradient><linearGradient id="paint16_linear" x1="237.3" y1="51.2" x2="240.1" y2="82.2" gradientUnits="userSpaceOnUse"><stop stop-color="#F4D156"/><stop offset="1" stop-color="#FFBC3A"/></linearGradient></defs></svg>
