<svg width="548" height="495" fill="none" xmlns="http://www.w3.org/2000/svg"><path d="M398.1 172.89c-4.44-6.11-8.32-16.61-5.37-18.04-21.72-9.97-8.87-37.24 11.1-30.08 23.27-3.18 43.48-10.41 59.09-5.49 16.63 5.25 18.86 19.32 9.08 28.88 9.43 34.85-58.2 46.35-73.9 24.73z" fill="url(#paint0_linear)"/><path d="M386.56 204.09c8.9-4.25 38.38-16.1 47.89-18.35 22.9 1.77 59.5 0 67.72 24.63 3.78 11.32 9.6 122.85-8.3 169.7-15.24 39.9-107.3 35.94-107.3-6.77 0-36.7-6.4-97.45-14.52-115.6-10.16-22.7 3.39-48.3 14.51-53.61z" fill="url(#paint1_linear)"/><path d="M434.93 242.72c-6.29-17.87-17.57-37.02-29.99-46.84l-10.15 3.86c39.5 32.87 28.43 138.25 20.8 162.75-4.43 14.2-10.4 28.4-28.62 14.2 1.45 7.08-2.7 19.6 13.55 24.62s93.72 11.78 98.19-24.63c3.87-31.55 6.85-97.74 6.85-107.4 0-9.66 0-43.46-20.8-65.67-20.8-22.22-29.51-16.43-29.51-16.43 10.93 9.12 38.52 51.86 27.57 59.4-10.95 7.55-42.1 12.58-47.89-3.86z" fill="url(#paint2_linear)"/><path d="M427.6 381.51c20.32 0 37.25-11.59 32.9-46.36l34.82-6.28c-2.41 12.56-5.8 40.09 3.88 40.09l-1.46 11.1c-9.67 11.6-41.11 24.63-72.07 16.9.16-4.66 1.94-15.45 1.94-15.45z" fill="url(#paint3_linear)"/><path fill-rule="evenodd" clip-rule="evenodd" d="M396.72 127.03c0-13.53 9.03-21.1 13.54-23.19 0 0 15.57-9.95 26.13-8.2 17.67 2.92 27.97 21.9 29.87 41.76.4.11.81.26 1.2.45 4.33 2.1 5.67 8.26 2.99 13.79a12.97 12.97 0 01-5.2 5.68c-2.07 9.91-6.6 18.63-13.74 23.89l2.22 13.77c-9.94 9.39-18.41 8.96-37.74 0v-12.76c-8.78-4.97-13.58-13.68-16.2-22.9-3.1-.66-6.14-3.1-7.9-6.72-2.67-5.52-1.34-11.7 3-13.78.6-.3 1.25-.5 1.9-.6-.12-3.54-.1-6.68-.08-9.14l.01-2.06z" fill="url(#paint4_linear)"/><path d="M420.42 121.5c-.8 5.32-4.74 19.13-15.96 22.22-19.08 5.26-19.35-14-7.74-19.8l23.7-2.41z" fill="url(#paint5_linear)"/><path d="M465.82 131.36c-30.8 1.63-46.92 1-71.1-6.28 0 0-3.3-44.7 42.15-37.38 29.99 4.83 28.95 43.66 28.95 43.66z" fill="url(#paint6_linear)"/><path d="M439.29 123.44h-20.32c0-14 20.32-16.42 20.32 0z" fill="#F8F8FF"/><path d="M448.96 131.17c-1.93 6.56-29.85-.14-28.05-11.11 2.84-17.43 33.54-7.52 28.05 11.1z" fill="url(#paint7_linear)"/><path fill-rule="evenodd" clip-rule="evenodd" d="M545.4 245.87a15.9 15.9 0 00-4.04-14.12l-3.07 15.16-18.01-3.64 3.07-15.15a15.95 15.95 0 00-1.78 28.29l-9.2 45.31a15.98 15.98 0 00-13.4 12.64 15.9 15.9 0 004.03 14.12l3.08-15.16 18 3.64-3.07 15.15a15.95 15.95 0 001.79-28.29l9.2-45.31a15.98 15.98 0 0013.4-12.64z" fill="url(#paint8_linear)"/><path d="M506.52 266.38c-9.67 3.48-12.09 16.26-12.09 22.22l2.9 17.38 42.09-24.14c-.97-5.15-3.68-16.13-6.78-18.84-3.87-3.38-14.02-.96-26.12 3.38z" fill="url(#paint9_linear)"/><path d="M405.91 224.24c-11.22-23.95-25.63-22.21-31.44-18.35-44.99 29.94 13.54 116.03 37.73 123.28 24.19 7.24 81.27-11.11 89-24.28 4.21-7.16-7.73-19.8-7.73-19.8s-67.73 16.55-70.63 5.92c-2.9-10.62-5.7-42.82-16.93-66.77z" fill="url(#paint10_linear)"/><path d="M12.6 180.13c-6.78-11.1-12.97-11-12.58-8.7 1.83 10.98 18.58 24.73 24.67 35.75l15-6.28c1.2-3.12 7.55-15.73 7.25-20.77-.3-5.09-7.26-2.6-7.26-4.34-7.74 12.55-15.93-5.67-11.12-10.63 0 0-16.13 8.21-15.97 14.97z" fill="url(#paint11_linear)"/><path d="M72.1 254.6c13.53-3.38 19.42-50.22 48.85-66.16 24.33-13.18 43.55-17.62 71.1-9.66 61.78 17.84 15.48 154.99 15.48 208.63-15.48 38.15-136.4 44.78-123.83-20.29 12.71-65.83 25.64-102.86 25.64-102.86s-12.81 27.5-37.25 29.94c-44.75 4.47-48.85-90.79-48.85-90.79l15-5.8c-.01 0 24.18 59.4 33.85 57z" fill="url(#paint12_linear)"/><path d="M227.85 387.79L189.15 410c6.8-37.47 9.63-55.23 11.6-72.43-11.63 0-30.95-.49-37.72-6.28-6.77-5.8-1.14-4.75-.97-7.25.26-3.68 30.48 1.45 49.34 0-.73-25.76-51.3-107.3-33.86-137.15l50.3 53.6v147.3z" fill="url(#paint13_linear)"/><path d="M219.14 314.38c-15.86 4.25-58.53 7.73-91.42-7.72l15.48 15.45c31.34 6.6 49.25 7.52 82.23 0 2.58-5.15 9.58-11.98-6.29-7.73z" fill="url(#paint14_linear)"/><path d="M77.9 292.65c-51.28 12.08-55.15-89.34-55.15-89.34S42.58 286 77.9 279.61c26.5-4.79 42.08-57.46 42.08-57.46l2.9 24.63s-20.54 40.12-44.98 45.87z" fill="url(#paint15_linear)"/><path d="M109.82 266.1c7.83-32.52 13.06-64.72 28.06-84.04l5.32-1.45c-7.74 16.9-10.16 22.7-15.48 50.71l31.44 1.93c4.28-28.12 15-46.84 20.8-55.53 5.32 0 5.8.96 5.8.96s-15.47 8.7-15.47 90.8c1.12 49.25 8.82 135.67-13.06 140.52-21.77 4.83-83.69 1.94-95.78-20.76 15-49.34 25.38-76.69 48.37-123.15z" fill="url(#paint16_linear)"/><path d="M109.82 266.1c7.83-32.52 13.06-64.72 28.06-84.04l5.32-1.44c-2.42 4.34-11.61 26.07-15.48 50.7-7.26 1.93-12.58 23.67-10.16 38.15C57.58 385.37 105.46 410 105.46 410c-14.5-2.41-39.15-8.8-44.01-20.76 15-49.34 25.38-76.69 48.37-123.15z" fill="url(#paint17_linear)"/><path d="M143.2 383.44c16.44-3.38 27.09 15.46 16.44 25.12 12.4-4.36 14.58-33.6 10.65-132.33-.9 48.53-27.1 107.21-27.1 107.21z" fill="url(#paint18_linear)"/><path d="M158.68 266.1c-2.42 10.62-8.02 17.86-17.9 17.86-9.89 0-14.51-6.76-17.9-17.87-3.38-11.1 8.01-17.87 17.9-17.87 9.88 0 20.31 7.25 17.9 17.87z" fill="url(#paint19_linear)"/><path d="M138.84 252.57l-.48-6.28 2.42-1.45v7.73h-1.94z" fill="url(#paint20_linear)"/><path d="M133.55 303.83c10.45 6.18 68.97 13.61 72.51 13.94l5.8-16.42c-5.64-2.1-51.9-8.44-54.6-13.46-2.15-3.97-11.5-4.87-17.47-3.93-5.2.82 9.44 3.3 7.3 4.9-5.8 4.34-25.15-12.58-25.15-7.25 0 8.7-1.45 14.49 11.61 22.22z" fill="url(#paint21_linear)"/><path d="M134.97 294.1c10.45 6.18 21.61 6.92 25.16 7.25l5.8-16.42c-5.64-2.1-4.55-1.74-7.25-6.76-2.15-3.98-8.06-13.5-14.03-12.56-5.2.82 6 11.93 3.87 13.52-5.8 4.35-25.16-12.58-25.16-7.24 0 8.69-1.45 14.49 11.61 22.21z" fill="url(#paint22_linear)"/><path d="M155.77 245.33c-5.1-3.48-15.42 1.09-16.93 6.76 11.13 6.28 18.69-5.89 16.93-6.76z" fill="url(#paint23_linear)"/><path d="M217.69 185.94c-18.96-17-49.82-2.42-36.76 26.07 13.06 28.5 59.32 74.37 20.8 74.37-15 0-38.7-3.38-38.7-3.38l-3.87 19.31s91.9 24.15 91.9-4.35c0-28.49-14.4-95.03-33.37-112.02z" fill="url(#paint24_linear)"/><path d="M217.69 186.41c-21.77-14-6.77 5.31 6.29 33.8l.27.6c12.96 28.27 25.03 54.6 19.08 75.7-7.73 27.37-82.72-1.44-82.72-1.44l-1.45 6.76s91.9 26.08 91.9-2.42c0-28.49-11.95-99.22-33.37-113z" fill="url(#paint25_linear)" fill-opacity=".3"/><path fill-rule="evenodd" clip-rule="evenodd" d="M174.42 158.9a72.1 72.1 0 0010.38-11.13c21.76-28.97 9.67-58.76-25.16-65.19-34.82-6.43-46.43 35.8-39.18 80.24 1.6 9.83 11.76 13.38 24.27 11.1-.15 3.47-.19 7.17-.08 11.04.41 15.15 30.47.97 31.44-7.73l-1.67-18.33z" fill="url(#paint26_linear)"/><path d="M129.65 120.73c15.5 3.39 35.31-1.13 39.67-10.14-5.24 20.27-7.56 48.3 4.84 48.3 39.66 0 53.69-55.54 24.66-64.72 9.68-17.38-24.15-40.06-36.28-19.32-38.7-18.83-79.32 35.74-32.89 45.88z" fill="url(#paint27_linear)"/><path d="M199.8 94.85c-15.49 6.28-49.35-3.86-52.73-16.9L156.74 34c-21.77-24.14 12.1-52.64 21.77-16.9 3.87-27.53 40.43-19.9 28.54 9.18C237.52 14 241.39 53.8 214.79 53.8l-15 41.05z" fill="url(#paint28_linear)"/><path d="M164.54 138.65c4.81-17.1 22.88-7.1 15.68 3.36-7.2 10.47-20.5 13.75-15.68-3.36z" fill="url(#paint29_linear)"/><path fill-rule="evenodd" clip-rule="evenodd" d="M53.71 112l.63-2.35.18.04a15.99 15.99 0 0118.75-8.99 15.93 15.93 0 0111.27 19.53l-1.37 5.13-28.97-7.74-37.8 140.86-1.87-.5 37.8-140.86 1.2-4.45.18-.68z" fill="url(#paint30_linear)"/><path d="M74.67 101.08c7.22 2.94 13.53 11.12 8.5 24.28l-17.75-4.75c16.13 3.32 21.2-11.83 9.25-19.53z" fill="url(#paint31_linear)"/><path d="M47.42 176.27a13.83 13.83 0 01-3.87 11.59h-8.22c.48-1.93 1.84-6.47 3.39-9.18 1.93-3.38-1.73-11.4 2.9-15.45 3.87-3.38 4.83 5.8 5.8 13.04z" fill="url(#paint32_linear)"/><path d="M12.6 180.61c5.64 2.1 15.76 3.1 16.92 0 0-6.76 12.4-17.59 12.1-21.73-2.86-5-15.97 1.94-22.74 7.73-6.77 5.8-6.29 14-6.29 14z" fill="url(#paint33_linear)"/><path d="M347.54 271.72l-28.39 44.62 17.2 28.36s25.45-49.41 32-64.2c7.6-17.17-5.6-87.26-5.6-87.26 2.17-11.59 2.17-40.69-4.55-40.69-6.71 0-11.17-8.77-19.12-6.7-4.65 0-.46 30.2 8.46 47.39 5.05 30.65 4.77 47.83 0 78.48z" fill="url(#paint34_linear)"/><path d="M328.04 165.23c-.8 2 4.8 4.4 6.8 10.39 2.63 7.87 14.68 22.74 20.8 13.57 3.2-4.79-2-14.37-8.4-15.57-3.17-.6-6.4-.8-8.8-5.2-2.4-4.39-9.6-5.19-10.4-3.19z" fill="url(#paint35_linear)"/><path d="M363.27 192.2l-19.12 6.2c9.3 65.51 13.86 93.91-21.88 118.5l25.3 25.4c50.04-53.51 34.82-88.7 15.7-150.1z" fill="url(#paint36_linear)"/><path d="M321.55 223.28l-27.6 66.3-40.8 53.12c66.03-6.34 94.8-5.6 94.8-40.74 0 0 21.76-12.38 14.8-43.93-5.13-23.29-41.2-34.75-41.2-34.75z" fill="url(#paint37_linear)"/><path d="M215.94 462.12c-25.81 26.69 113.21 43.53 113.21 15.57 0-27.95-4.3-44.6 8.4-68.3 33.6-62.7 11.32-82.2-18.4-101.44l-61.6 23.97s11.28 47.92 4.8 77.48c-5.09 23.17-24 29.55-46.4 52.72z" fill="url(#paint38_linear)"/><path d="M280.07 471.34c-2.32-6.19-18.7-5.15-26.6-3.87H237.5s3.22 10.27 8.23 14.97c4.94 4.64 10.89 0 16.93 2.9 5.31 2.56 5.18 9.74 11.6 9.66 6.26-.08 16.45-3.7 14.52-6.76-1.94-3.06-6.39-10.72-8.7-16.9z" fill="url(#paint39_linear)"/><path d="M269.55 324.77c18.2-7.85 27.9 1.03 21.19 21.15-6.72 20.12-35.82 31.66-41.86 59.84-5.52 25.77 9.82 63.97 9.82 63.97l-18.6 4.13s-37.38-58.81-24.29-79.96c13.1-21.16 35.55-61.3 53.74-69.13z" fill="url(#paint40_linear)"/><path d="M344.35 321.53c11.52-14.06-2.4-43.53-7.2-41.93l-30.8 27.15c2.76 9.33 26.48 28.84 38 14.78z" fill="url(#paint41_linear)"/><path fill-rule="evenodd" clip-rule="evenodd" d="M324.35 230.87s19.2 17.57 19.2 44.73c0 23.48-7.86 35.19-22 34.65-2.69 6.23-2.14 10.91-1.63 15.24.34 2.85.66 5.54.03 8.42-1.98 9.1-28.4-12.78-28.4-12.78l6.34-19.63a143.33 143.33 0 01-15.94-11.52c-17.86-14.67 0-59.1 0-59.1h42.4z" fill="url(#paint42_linear)"/><path d="M289.7 253.06c22.22 0 49.73-8.08 39.85-26.18-13.01-23.86-46.08-22.77-68.8-3.6-24.8 20.93-18 47.93-18 47.93s-21.6-7.3-34.41 8.79c-12.4 15.57-16.4 39.93 6.4 60.7 20.08 18.3 77.76 9.46 74.96-27.28 25.2 5.19 20.67-40.24 0-60.36z" fill="url(#paint43_linear)"/><path d="M242.34 270.8c-25.2-7.98-52 13.59-41.2 49.53-4.2-13.97 0-59.1 48.8-40.33-8.25-30.35 4.22-51.98 20.76-63.09 3.35-1.95 6.97-3.82 10.85-5.6a53.07 53.07 0 00-10.85 5.6c-23.46 13.63-33.96 31.19-28.36 53.9z" fill="url(#paint44_linear)"/><g clip-path="url(#clip0)"><path d="M316.81 125.89l-7.18 7.17 4.1 16.24 13.26-13.25-10.18-10.16z" fill="url(#paint45_linear)"/><path d="M282.88 92l-13.14 13.12 16.12 4.24 7.2-7.19-10.19-10.16z" fill="url(#paint46_linear)"/><path d="M250.7 138.81c-2.23 1.6-4.97 4.97-4.97 4.97l18.13 11.68 10.18-18.1s-15.93-3.88-23.34 1.45z" fill="url(#paint47_linear)"/><path d="M263 154.4l11.57 18.17s3.37-2.73 4.98-4.96c5.34-7.4 1.46-23.3 1.46-23.3L263 154.39z" fill="url(#paint48_linear)"/><path d="M309.48 116.04l-18.3 19.73 22.93 36.87 4.66-4.66a10 10 0 002.56-9.78l-11.85-42.16z" fill="url(#paint49_linear)"/><path d="M260.65 97.67a10 10 0 00-9.76 2.56l-4.67 4.65 36.94 22.88 19.76-18.27-42.27-11.82z" fill="url(#paint50_linear)"/><path fill-rule="evenodd" clip-rule="evenodd" d="M324.44 94l-.08-.09a5.5 5.5 0 00-6.09-1.17l-.55.24c-6.13 2.62-11.2 5.92-15.1 9.8l-29.94 29.9c-3.99 3.98-7.06 8.7-9.96 15.28l-2.12 5.4 2.2 2.2 2.58 2.57 5.32-2.08.09-.04c5.25-2.3 10.77-5.09 15.47-9.78l29.98-29.93c4.76-4.75 7.55-10.38 9.85-15.75.9-2.09.44-4.47-1.17-6.07l-.48-.48z" fill="url(#paint51_linear)"/><path d="M325.95 100.71c-2.3 5.37-5.1 11-9.86 15.75l-29.97 29.93c-4.7 4.7-10.22 7.48-15.48 9.79l-.09.03-5.32 2.08c12.42-9.07 56.44-44.8 59.55-63.65a5.48 5.48 0 011.17 6.07z" fill="url(#paint52_linear)"/></g><path opacity=".1" fill-rule="evenodd" clip-rule="evenodd" d="M477.7 465.37c6 0 10.85-4.85 10.85-10.84v-22.8c0-5.99-4.85-10.84-10.84-10.84h-91.77c-2.2-6.76-5.92-11.63-14.65-14.32-1.74-.53-3.13 1.32-2.38 2.99 1.83 4.01 2.8 7.74 1.62 11.36a10.85 10.85 0 00-9.94 10.81v22.8c0 5.99 4.85 10.84 10.84 10.84h106.28z" fill="url(#paint53_linear)"/><path fill-rule="evenodd" clip-rule="evenodd" d="M392.54 424c-2.17-7.3-5.8-12.54-14.98-15.36-1.74-.53-3.13 1.32-2.37 2.99 2 4.39 2.96 8.43 1.23 12.38h-9.56a10.85 10.85 0 00-10.85 10.85v29.63c0 6 4.86 10.85 10.85 10.85h106.28c5.99 0 10.84-4.85 10.84-10.85v-29.63c0-6-4.85-10.85-10.84-10.85h-80.6z" fill="url(#paint54_linear)"/><path d="M374.3 438.27l2.56 7.88h8.3l-6.71 4.87 2.56 7.88-6.71-4.87-6.72 4.87 2.56-7.88-6.71-4.87h8.3l2.57-7.88z" fill="url(#paint55_linear)"/><path d="M397.15 438.27l2.56 7.88h8.3l-6.71 4.87 2.56 7.88-6.71-4.87-6.72 4.87 2.57-7.88-6.72-4.87h8.3l2.57-7.88z" fill="url(#paint56_linear)"/><path d="M442.85 438.27l2.56 7.88h8.3l-6.71 4.87 2.56 7.88-6.71-4.87-6.72 4.87 2.57-7.88-6.72-4.87h8.3l2.57-7.88z" fill="url(#paint57_linear)"/><path d="M465.7 438.27l2.57 7.88h8.3l-6.72 4.87 2.57 7.88-6.72-4.87-6.71 4.87 2.56-7.88-6.72-4.87h8.3l2.57-7.88z" fill="url(#paint58_linear)"/><path d="M420 438.27l2.56 7.88h8.3l-6.71 4.87 2.56 7.88-6.71-4.87-6.72 4.87 2.57-7.88-6.72-4.87h8.3l2.57-7.88z" fill="url(#paint59_linear)"/><defs><linearGradient id="paint0_linear" x1="352" y1="115.35" x2="390.8" y2="197.74" gradientUnits="userSpaceOnUse"><stop stop-color="#F4D156"/><stop offset="1" stop-color="#E09707"/></linearGradient><linearGradient id="paint1_linear" x1="386.56" y1="355.73" x2="515.55" y2="254.59" gradientUnits="userSpaceOnUse"><stop stop-color="#2231A7" stop-opacity=".5"/><stop offset="1" stop-color="#828FFF"/></linearGradient><linearGradient id="paint2_linear" x1="512.81" y1="248.03" x2="408.42" y2="311.93" gradientUnits="userSpaceOnUse"><stop stop-color="#4B60FF"/><stop offset="1" stop-color="#2637B5"/></linearGradient><linearGradient id="paint3_linear" x1="491.89" y1="350.45" x2="457.35" y2="388.07" gradientUnits="userSpaceOnUse"><stop stop-color="#4357EE"/><stop offset="1" stop-color="#2C3EC0"/></linearGradient><linearGradient id="paint4_linear" x1="438.27" y1="225.7" x2="429.21" y2="202.9" gradientUnits="userSpaceOnUse"><stop stop-color="#8C98FF"/><stop offset="1" stop-color="#F8F8FF"/></linearGradient><linearGradient id="paint5_linear" x1="416.06" y1="138.65" x2="411.2" y2="118.92" gradientUnits="userSpaceOnUse"><stop stop-color="#FDC140"/><stop offset="1" stop-color="#FFD481"/></linearGradient><linearGradient id="paint6_linear" x1="463.96" y1="141.79" x2="424.72" y2="83.47" gradientUnits="userSpaceOnUse"><stop stop-color="#2231A7"/><stop offset="1" stop-color="#828FFF"/></linearGradient><linearGradient id="paint7_linear" x1="445.62" y1="129.49" x2="439.59" y2="108.66" gradientUnits="userSpaceOnUse"><stop stop-color="#FDC140"/><stop offset="1" stop-color="#FFD481"/></linearGradient><linearGradient id="paint8_linear" x1="536.02" y1="311.6" x2="471.88" y2="271.05" gradientUnits="userSpaceOnUse"><stop stop-color="#8C98FF"/><stop offset="1" stop-color="#F8F8FF"/></linearGradient><linearGradient id="paint9_linear" x1="520.85" y1="315.99" x2="517.8" y2="305.85" gradientUnits="userSpaceOnUse"><stop stop-color="#8C98FF"/><stop offset="1" stop-color="#F8F8FF"/></linearGradient><linearGradient id="paint10_linear" x1="362.38" y1="272.66" x2="443.38" y2="233.28" gradientUnits="userSpaceOnUse"><stop stop-color="#2231A7"/><stop offset=".85" stop-color="#828FFF"/></linearGradient><linearGradient id="paint11_linear" x1="25.9" y1="228.21" x2="15.47" y2="195.4" gradientUnits="userSpaceOnUse"><stop stop-color="#8C98FF"/><stop offset="1" stop-color="#F8F8FF"/></linearGradient><linearGradient id="paint12_linear" x1="238.96" y1="266.57" x2="123.84" y2="246.71" gradientUnits="userSpaceOnUse"><stop stop-color="#2231A7"/><stop offset="1" stop-color="#828FFF"/></linearGradient><linearGradient id="paint13_linear" x1="203.49" y1="187.86" x2="203.49" y2="410" gradientUnits="userSpaceOnUse"><stop stop-color="#5B6AE3" stop-opacity=".4"/><stop offset="1" stop-color="#2433AD" stop-opacity="0"/></linearGradient><linearGradient id="paint14_linear" x1="226.4" y1="320.18" x2="186.09" y2="291.14" gradientUnits="userSpaceOnUse"><stop stop-color="#8C98FF"/><stop offset="1" stop-color="#F8F8FF"/></linearGradient><linearGradient id="paint15_linear" x1="72.82" y1="203.31" x2="72.82" y2="293.65" gradientUnits="userSpaceOnUse"><stop stop-color="#5B6AE3"/><stop offset="1" stop-color="#2433AD" stop-opacity="0"/></linearGradient><linearGradient id="paint16_linear" x1="212.84" y1="370.89" x2="109.46" y2="281.86" gradientUnits="userSpaceOnUse"><stop stop-color="#8C98FF"/><stop offset="1" stop-color="#F8F8FF"/></linearGradient><linearGradient id="paint17_linear" x1="85.64" y1="273.34" x2="140.28" y2="287.38" gradientUnits="userSpaceOnUse"><stop stop-color="#8C98FF"/><stop offset="1" stop-color="#F8F8FF" stop-opacity="0"/></linearGradient><linearGradient id="paint18_linear" x1="153.35" y1="354.95" x2="178.99" y2="358.34" gradientUnits="userSpaceOnUse"><stop stop-color="#8C98FF"/><stop offset="1" stop-color="#F8F8FF"/></linearGradient><linearGradient id="paint19_linear" x1="127.23" y1="252.09" x2="144.13" y2="280.12" gradientUnits="userSpaceOnUse"><stop stop-color="#FF9872"/><stop offset="1" stop-color="#FF7546"/></linearGradient><linearGradient id="paint20_linear" x1="140.3" y1="252.57" x2="143.18" y2="248.33" gradientUnits="userSpaceOnUse"><stop stop-color="#5C6CF3"/><stop offset="1" stop-color="#828FFF"/></linearGradient><linearGradient id="paint21_linear" x1="132.54" y1="290.24" x2="179.67" y2="317.83" gradientUnits="userSpaceOnUse"><stop stop-color="#5B6AE3" stop-opacity=".1"/><stop offset="1" stop-color="#2433AD" stop-opacity=".3"/></linearGradient><linearGradient id="paint22_linear" x1="127.7" y1="394.07" x2="137.84" y2="270.13" gradientUnits="userSpaceOnUse"><stop stop-color="#8C98FF"/><stop offset="1" stop-color="#F8F8FF"/></linearGradient><linearGradient id="paint23_linear" x1="134.49" y1="257.88" x2="156.73" y2="248.2" gradientUnits="userSpaceOnUse"><stop stop-color="#3B8A23"/><stop offset="1" stop-color="#58BC3A"/></linearGradient><linearGradient id="paint24_linear" x1="264.59" y1="271.89" x2="152.5" y2="189.13" gradientUnits="userSpaceOnUse"><stop stop-color="#354BD1"/><stop offset="1" stop-color="#8F9BFF"/></linearGradient><linearGradient id="paint25_linear" x1="251.53" y1="256.92" x2="159.7" y2="206.08" gradientUnits="userSpaceOnUse"><stop stop-color="#354CD1"/><stop offset="1" stop-color="#354CD1" stop-opacity="0"/></linearGradient><linearGradient id="paint26_linear" x1="163.99" y1="242.79" x2="128.3" y2="173.25" gradientUnits="userSpaceOnUse"><stop stop-color="#8C98FF"/><stop offset="1" stop-color="#F8F8FF"/></linearGradient><linearGradient id="paint27_linear" x1="207.66" y1="133.84" x2="183.1" y2="51.73" gradientUnits="userSpaceOnUse"><stop stop-color="#FDC140"/><stop offset="1" stop-color="#FFD481"/></linearGradient><linearGradient id="paint28_linear" x1="196.51" y1="185.66" x2="130.96" y2="43.15" gradientUnits="userSpaceOnUse"><stop stop-color="#8C98FF"/><stop offset="1" stop-color="#F8F8FF"/></linearGradient><linearGradient id="paint29_linear" x1="176.05" y1="162.48" x2="168.3" y2="150.68" gradientUnits="userSpaceOnUse"><stop stop-color="#8C98FF"/><stop offset="1" stop-color="#F8F8FF"/></linearGradient><linearGradient id="paint30_linear" x1="58.85" y1="230.84" x2="-10.87" y2="193.51" gradientUnits="userSpaceOnUse"><stop stop-color="#8C98FF"/><stop offset="1" stop-color="#F8F8FF"/></linearGradient><linearGradient id="paint31_linear" x1="84.78" y1="113.79" x2="58.63" y2="106.76" gradientUnits="userSpaceOnUse"><stop stop-color="#8C98FF"/><stop offset="1" stop-color="#F8F8FF" stop-opacity="0"/></linearGradient><linearGradient id="paint32_linear" x1="64.84" y1="173.37" x2="43.24" y2="181.57" gradientUnits="userSpaceOnUse"><stop stop-color="#8C98FF"/><stop offset="1" stop-color="#F8F8FF"/></linearGradient><linearGradient id="paint33_linear" x1="22.27" y1="141.5" x2="28.23" y2="179.76" gradientUnits="userSpaceOnUse"><stop stop-color="#8C98FF"/><stop offset="1" stop-color="#F8F8FF"/></linearGradient><linearGradient id="paint34_linear" x1="368.66" y1="405.73" x2="419.78" y2="341.75" gradientUnits="userSpaceOnUse"><stop stop-color="#8C98FF"/><stop offset="1" stop-color="#F8F8FF"/></linearGradient><linearGradient id="paint35_linear" x1="343.18" y1="202.08" x2="349.31" y2="187.6" gradientUnits="userSpaceOnUse"><stop stop-color="#8C98FF"/><stop offset="1" stop-color="#F8F8FF"/></linearGradient><linearGradient id="paint36_linear" x1="348.68" y1="348.5" x2="329.8" y2="251.7" gradientUnits="userSpaceOnUse"><stop stop-color="#3F51D2"/><stop offset="1" stop-color="#8F9BFF"/></linearGradient><linearGradient id="paint37_linear" x1="350.75" y1="208.91" x2="315.87" y2="324.54" gradientUnits="userSpaceOnUse"><stop stop-color="#F4D156"/><stop offset="1" stop-color="#E09707"/></linearGradient><linearGradient id="paint38_linear" x1="225.94" y1="510.04" x2="286.43" y2="354.29" gradientUnits="userSpaceOnUse"><stop stop-color="#1E2B99" stop-opacity="0"/><stop offset="1" stop-color="#6474FF"/></linearGradient><linearGradient id="paint39_linear" x1="261.31" y1="505.3" x2="263.05" y2="455.4" gradientUnits="userSpaceOnUse"><stop stop-color="#8C98FF"/><stop offset="1" stop-color="#F8F8FF"/></linearGradient><linearGradient id="paint40_linear" x1="234.32" y1="480.52" x2="212.86" y2="376.87" gradientUnits="userSpaceOnUse"><stop stop-color="#3F51D2"/><stop offset="1" stop-color="#8F9BFF"/></linearGradient><linearGradient id="paint41_linear" x1="358.75" y1="274" x2="312.82" y2="316.01" gradientUnits="userSpaceOnUse"><stop stop-color="#F4D156"/><stop offset="1" stop-color="#E09707"/></linearGradient><linearGradient id="paint42_linear" x1="311.27" y1="374.16" x2="341.32" y2="328.72" gradientUnits="userSpaceOnUse"><stop stop-color="#8C98FF"/><stop offset="1" stop-color="#F8F8FF"/></linearGradient><linearGradient id="paint43_linear" x1="215.14" y1="323.13" x2="268.03" y2="195.51" gradientUnits="userSpaceOnUse"><stop stop-color="#FDC140"/><stop offset="1" stop-color="#FFD481"/></linearGradient><linearGradient id="paint44_linear" x1="300.97" y1="198.46" x2="197.44" y2="278" gradientUnits="userSpaceOnUse"><stop stop-color="#F4D156"/><stop offset="1" stop-color="#E09707"/></linearGradient><linearGradient id="paint45_linear" x1="316.24" y1="151.61" x2="334.09" y2="135.63" gradientUnits="userSpaceOnUse"><stop stop-color="#2231A7"/><stop offset="1" stop-color="#828FFF"/></linearGradient><linearGradient id="paint46_linear" x1="278.62" y1="111.07" x2="290.51" y2="91.79" gradientUnits="userSpaceOnUse"><stop stop-color="#2231A7"/><stop offset="1" stop-color="#828FFF"/></linearGradient><linearGradient id="paint47_linear" x1="264.94" y1="156.26" x2="265.88" y2="143.36" gradientUnits="userSpaceOnUse"><stop stop-color="#3F51D2"/><stop offset="1" stop-color="#8F9BFF"/></linearGradient><linearGradient id="paint48_linear" x1="275.21" y1="173.82" x2="278.73" y2="154.21" gradientUnits="userSpaceOnUse"><stop stop-color="#3F51D2"/><stop offset="1" stop-color="#8F9BFF"/></linearGradient><linearGradient id="paint49_linear" x1="312.71" y1="175.13" x2="320.63" y2="136.22" gradientUnits="userSpaceOnUse"><stop stop-color="#3F51D2"/><stop offset="1" stop-color="#8F9BFF"/></linearGradient><linearGradient id="paint50_linear" x1="284.69" y1="129.15" x2="286.13" y2="106.58" gradientUnits="userSpaceOnUse"><stop stop-color="#3F51D2"/><stop offset="1" stop-color="#8F9BFF"/></linearGradient><linearGradient id="paint51_linear" x1="297.49" y1="211.67" x2="263.56" y2="120.28" gradientUnits="userSpaceOnUse"><stop stop-color="#8C98FF"/><stop offset="1" stop-color="#F8F8FF"/></linearGradient><linearGradient id="paint52_linear" x1="281.04" y1="119.61" x2="311.04" y2="141.13" gradientUnits="userSpaceOnUse"><stop stop-color="#8C98FF"/><stop offset="1" stop-color="#F8F8FF" stop-opacity="0"/></linearGradient><linearGradient id="paint53_linear" x1="416.35" y1="340.74" x2="439.46" y2="450.89" gradientUnits="userSpaceOnUse"><stop stop-color="#8C98FF"/><stop offset="1" stop-color="#F8F8FF"/></linearGradient><linearGradient id="paint54_linear" x1="428.22" y1="547.12" x2="408.02" y2="443.86" gradientUnits="userSpaceOnUse"><stop stop-color="#8C98FF"/><stop offset="1" stop-color="#F8F8FF"/></linearGradient><linearGradient id="paint55_linear" x1="369.73" y1="439.21" x2="372.13" y2="465.3" gradientUnits="userSpaceOnUse"><stop stop-color="#F4D156"/><stop offset="1" stop-color="#FFBC3A"/></linearGradient><linearGradient id="paint56_linear" x1="392.58" y1="439.21" x2="394.98" y2="465.3" gradientUnits="userSpaceOnUse"><stop stop-color="#F4D156"/><stop offset="1" stop-color="#FFBC3A"/></linearGradient><linearGradient id="paint57_linear" x1="438.28" y1="439.21" x2="440.69" y2="465.3" gradientUnits="userSpaceOnUse"><stop stop-color="#F4D156"/><stop offset="1" stop-color="#FFBC3A"/></linearGradient><linearGradient id="paint58_linear" x1="461.13" y1="439.21" x2="463.54" y2="465.3" gradientUnits="userSpaceOnUse"><stop stop-color="#F4D156"/><stop offset="1" stop-color="#FFBC3A"/></linearGradient><linearGradient id="paint59_linear" x1="415.43" y1="439.21" x2="417.83" y2="465.3" gradientUnits="userSpaceOnUse"><stop stop-color="#F4D156"/><stop offset="1" stop-color="#FFBC3A"/></linearGradient><clipPath id="clip0"><path fill="#fff" transform="translate(245.73 91.76)" d="M0 0h81.26v81.13H0z"/></clipPath></defs></svg>
