<svg width="438" height="339" fill="none" xmlns="http://www.w3.org/2000/svg"><path d="M228 321.6c-75.1 0-162.5-44.7-191-122C0 99.5 68-5.9 152.8 1c87.3 7 104.4 97.8 191.6 80C467.5 55.6 503 321.5 228 321.5z" fill="url(#paint0_linear)"/><path d="M200.7 335C-93.8 288.5-9.6-46 109.5 73.2c48.6 48.6 89.9-6.5 123.8 0 75 14.4 29 94.7 116.4 146.8 81 48.3 1.7 139-149 115.2z" fill="url(#paint1_linear)"/><path d="M214.5 128.7l57.4 18-14.8 24.6s-54.9-22.2-60.6-35c-6.5-14.8 13.9-72.2 13.9-72.2-1-5.6-3.8-13-1-22.2 2.7-9.1 5.7-16 10-18.3 8.7-4.8 13.3 2.2 12.6 7a144.4 144.4 0 01-8.5 33.5l-9 64.6z" fill="url(#paint2_linear)"/><path d="M239.8 43.3c.7 1.8-4.2 3.8-6 9-2.2 6.8-12.6 19.7-17.9 11.8-2.8-4.2 1.7-12.5 7.3-13.5 2.7-.5 5.5-.7 7.6-4.5 2-3.8 8.3-4.5 9-2.8z" fill="url(#paint3_linear)"/><path d="M223.2 67.2l-8 60.9c30.9-3.2 47.7-8.5 61.6 20l-25.3 46.6c-38.8 3.1-78.2-17.4-80.9-55.2-2.4-33.2 26.5-64.1 39.8-75.4l12.8 3z" fill="url(#paint4_linear)"/><path opacity=".1" fill-rule="evenodd" clip-rule="evenodd" d="M78.5 167.3a7 7 0 00-7 7v40a7 7 0 007 7h117.3c2.8 8.8 7.8 15 20.2 18 1.2.3 2-1 1.5-2-2.9-5.7-4.7-11-3-16h5a7 7 0 007-7v-40a7 7 0 00-7-7h-141z" fill="#001BFF"/><path fill-rule="evenodd" clip-rule="evenodd" d="M71.2 149.1a7 7 0 00-7 7v48.4a7 7 0 007 6.9h117.3c2.9 8.8 7.9 15 20.3 18 1 .3 2-.9 1.4-2-2.9-5.7-4.7-11-3-16h5a7 7 0 007-7V156a7 7 0 00-7-6.9h-141z" fill="url(#paint5_linear)"/><path d="M86.4 166.4l3.1 9.6h10l-8 5.9 3 9.5-8-5.9-8.2 6 3-9.6-8-6h10l3.1-9.5z" fill="url(#paint6_linear)"/><path d="M114 166.4l3.2 9.6h10l-8.1 5.9 3.1 9.5-8.1-5.9-8.2 6 3.1-9.6-8-6h10l3-9.5z" fill="url(#paint7_linear)"/><path d="M169.4 166.4l3.1 9.6h10l-8 5.9 3 9.5-8.1-5.9-8.1 6 3-9.6-8-6h10l3.1-9.5z" fill="url(#paint8_linear)"/><path d="M197 166.4l3.2 9.6h10l-8.1 5.9 3 9.5-8-5.9-8.2 6 3.1-9.6-8-6h10l3-9.5z" fill="url(#paint9_linear)"/><path d="M141.7 166.4l3.1 9.6h10l-8 5.9 3 9.5-8-5.9-8.2 6 3.1-9.6-8.1-6h10l3.1-9.5z" fill="url(#paint10_linear)"/><path d="M269.9 66.2l23.8 57.4 35.3 46c-57-5.5-82-4.9-82-35.3 0 0-18.8-10.7-12.8-38C238.7 76 270 66.1 270 66.1z" fill="url(#paint11_linear)"/><path d="M361.1 273c22.4 23-100.8 44.3-97.8 13.4 3-30.8 3.7-38.6-7.3-59.1-29-54.3-9.8-71.2 16-87.8l53.2 20.7s-9.8 41.5-4.2 67c4.4 20.2 20.8 25.7 40.1 45.7z" fill="url(#paint12_linear)"/><path d="M364.6 189.3c-11.5-9.7-37.2-30-47.7-33.2-15.8-5-19.6 13-13.2 22.4 7.3 10.8 62.1 36 66.8 31.8 13.8-12 36.6-54.2 36.6-54.2s19-3.8 27-20.8c1.4-5.5-2.1-3.6-4.8-8.6 1.3-7-2.6-10.8-4.2-7.3a28.3 28.3 0 01-19.7 16c0-6.3 0-11.8-3.5-12.9-3-.9-1 6.1-2 11-1 4.8-2 11.3-1.8 14.3l-33.5 41.5z" fill="url(#paint13_linear)"/><path d="M250.1 151.2c-10-12.2 2.1-37.7 6.3-36.3l26.6 23.5c-2.4 8.1-22.9 25-32.9 12.8z" fill="url(#paint14_linear)"/><path d="M406.8 156s-1.4 63.3-41.2 81c-39.7 17.6-103-37.4-59.8-81 21.7-21.8 45.5 23.6 59.8 32.6l29.4-37 11.8 4.5z" fill="url(#paint15_linear)"/><path fill-rule="evenodd" clip-rule="evenodd" d="M267.4 72.7s-16.6 15.2-16.6 38.8c0 20.3 6.8 30.4 19 30a23 23 0 011.5 13.1c-.3 2.5-.6 4.8 0 7.3 1.6 8 24.5-11 24.5-11l-5.5-17c4.3-2.7 8.9-6 13.8-10 15.4-12.7 0-51.2 0-51.2h-36.7z" fill="url(#paint16_linear)"/><path d="M279.9 115.3c-21.3-11.1-25.5-30.4-17-46 11.3-20.7 39.9-19.7 59.5-3.1 21.5 18 15.6 41.4 15.6 41.4s18.6-6.3 29.7 7.7c10.7 13.4 14.2 34.5-5.5 52.5-17.4 15.9-59.5 7.3-57-24.5-21.9 4.5-32.6-12.8-25.3-28z" fill="url(#paint17_linear)"/><path d="M338.3 107.3c21.8-7 45 11.8 35.6 42.9 3.7-12.1 0-51.2-42.1-35 7-26.2-3.7-45-18-54.6 20.3 11.8 29.4 27 24.5 46.7z" fill="url(#paint18_linear)"/><defs><linearGradient id="paint0_linear" x1="53" y1="-2.1" x2="334.9" y2="322" gradientUnits="userSpaceOnUse"><stop stop-color="#3D4AB6" stop-opacity=".3"/><stop offset="1" stop-color="#3F4BB8" stop-opacity="0"/></linearGradient><linearGradient id="paint1_linear" x1="123.8" y1="-30.7" x2="150" y2="321.5" gradientUnits="userSpaceOnUse"><stop stop-color="#3D4AB6" stop-opacity=".1"/><stop offset="1" stop-color="#3F4BB8" stop-opacity="0"/></linearGradient><linearGradient id="paint2_linear" x1="229.1" y1="224.1" x2="184.9" y2="168.8" gradientUnits="userSpaceOnUse"><stop stop-color="#8C98FF"/><stop offset="1" stop-color="#F8F8FF"/></linearGradient><linearGradient id="paint3_linear" x1="226.7" y1="75.2" x2="221.4" y2="62.7" gradientUnits="userSpaceOnUse"><stop stop-color="#8C98FF"/><stop offset="1" stop-color="#F8F8FF"/></linearGradient><linearGradient id="paint4_linear" x1="215.5" y1="206.9" x2="269.4" y2="112" gradientUnits="userSpaceOnUse"><stop stop-color="#1E2B99"/><stop offset="1" stop-color="#8895FF" stop-opacity=".7"/></linearGradient><linearGradient id="paint5_linear" x1="151.7" y1="297.4" x2="127.5" y2="173" gradientUnits="userSpaceOnUse"><stop stop-color="#DCE0FF"/><stop offset="1" stop-color="#F8F8FF"/></linearGradient><linearGradient id="paint6_linear" x1="80.9" y1="167.6" x2="83.8" y2="199.2" gradientUnits="userSpaceOnUse"><stop stop-color="#F4D156"/><stop offset="1" stop-color="#FFBC3A"/></linearGradient><linearGradient id="paint7_linear" x1="108.5" y1="167.6" x2="111.5" y2="199.2" gradientUnits="userSpaceOnUse"><stop stop-color="#F4D156"/><stop offset="1" stop-color="#FFBC3A"/></linearGradient><linearGradient id="paint8_linear" x1="163.9" y1="167.6" x2="166.8" y2="199.2" gradientUnits="userSpaceOnUse"><stop stop-color="#F4D156"/><stop offset="1" stop-color="#FFBC3A"/></linearGradient><linearGradient id="paint9_linear" x1="191.5" y1="167.6" x2="194.5" y2="199.2" gradientUnits="userSpaceOnUse"><stop stop-color="#F4D156"/><stop offset="1" stop-color="#FFBC3A"/></linearGradient><linearGradient id="paint10_linear" x1="136.2" y1="167.6" x2="139.1" y2="199.2" gradientUnits="userSpaceOnUse"><stop stop-color="#F4D156"/><stop offset="1" stop-color="#FFBC3A"/></linearGradient><linearGradient id="paint11_linear" x1="244.6" y1="53.7" x2="274.9" y2="153.8" gradientUnits="userSpaceOnUse"><stop stop-color="#F4D156"/><stop offset="1" stop-color="#E09707"/></linearGradient><linearGradient id="paint12_linear" x1="321.9" y1="307.3" x2="274.5" y2="189.5" gradientUnits="userSpaceOnUse"><stop stop-color="#1E2B99" stop-opacity="0"/><stop offset="1" stop-color="#212E9C"/></linearGradient><linearGradient id="paint13_linear" x1="368.2" y1="244.8" x2="355.6" y2="194.1" gradientUnits="userSpaceOnUse"><stop stop-color="#8C98FF"/><stop offset="1" stop-color="#F8F8FF"/></linearGradient><linearGradient id="paint14_linear" x1="237.7" y1="110.1" x2="277.5" y2="146.4" gradientUnits="userSpaceOnUse"><stop stop-color="#F4D156"/><stop offset="1" stop-color="#E09707"/></linearGradient><linearGradient id="paint15_linear" x1="384.5" y1="240.5" x2="390.7" y2="155.9" gradientUnits="userSpaceOnUse"><stop stop-color="#1E2B99"/><stop offset="1" stop-color="#8895FF"/></linearGradient><linearGradient id="paint16_linear" x1="278.7" y1="196.8" x2="252.7" y2="157.5" gradientUnits="userSpaceOnUse"><stop stop-color="#8C98FF"/><stop offset="1" stop-color="#F8F8FF"/></linearGradient><linearGradient id="paint17_linear" x1="361.8" y1="152.6" x2="316" y2="42.2" gradientUnits="userSpaceOnUse"><stop stop-color="#FDC140"/><stop offset="1" stop-color="#FFD481"/></linearGradient><linearGradient id="paint18_linear" x1="287.6" y1="44.7" x2="377.2" y2="113.4" gradientUnits="userSpaceOnUse"><stop stop-color="#F4D156"/><stop offset="1" stop-color="#E09707"/></linearGradient></defs></svg>
