<svg xmlns="http://www.w3.org/2000/svg" width="103" height="113" fill="none" viewBox="0 0 103 113">
    <defs/>
    <path fill="url(#paint0_linear)" d="M69 102C47 89 11 67 21 48c9-15 21-9 27-2-9-13-16-36 1-44 18-9 26 13 27 25 2-7 19-10 25 6 7 19-5 41-32 69z"/>
    <path fill="url(#paint1_linear)" d="M14 46c20-7 42 31 47 53-18 11-54 23-60 0-4-11 9-18 16-17-11-4-18-31-3-36z"/>
    <path fill="url(#paint2_linear)" d="M52 67c-18 0-13 27 7 42 6 4 39-12 32-27-6-14-17-8-22-4-1-3-8-11-17-11z"/>
    <defs>
        <linearGradient id="paint0_linear" x1="18.8" x2="83.1" y1="-17.9" y2="98" gradientUnits="userSpaceOnUse">
            <stop stop-color="#5FBA35"/>
            <stop offset="1" stop-color="#298212"/>
        </linearGradient>
        <linearGradient id="paint1_linear" x1=".9" x2="28.2" y1="25.9" y2="87.4" gradientUnits="userSpaceOnUse">
            <stop stop-color="#93D872"/>
            <stop offset="1" stop-color="#44A92A"/>
        </linearGradient>
        <linearGradient id="paint2_linear" x1="41.8" x2="56.8" y1="54.1" y2="98.8" gradientUnits="userSpaceOnUse">
            <stop stop-color="#93D872"/>
            <stop offset="1" stop-color="#44A92A"/>
        </linearGradient>
    </defs>
</svg>
