<svg xmlns="http://www.w3.org/2000/svg" width="192" height="526" fill="none" viewBox="0 0 192 526">
    <defs/>
    <path fill="url(#paint0_linear)" d="M0 60L182 0l10 6-10 454-172 66-10-6V60z"/>
    <path fill="url(#paint1_linear)" d="M10 66L192 6v460L10 526V66z"/>
    <path fill="url(#paint2_linear)" fill-rule="evenodd" d="M108 83c0-2 1-3 3-4l41-13c2-1 5 1 5 4v114c0 2-1 3-3 4l-41 13c-2 1-5-1-5-4V83zm-12 4c0-3-3-5-5-4L50 96c-2 1-3 2-3 4v114c0 3 3 5 5 4l41-13c2-1 3-2 3-4V87zm0 134c0-3-3-5-5-4l-41 13c-2 1-3 2-3 4v94c0 3 3 5 5 4l41-13c2-1 3-2 3-4v-94zm61-17c0-3-3-5-5-4l-41 13c-2 1-3 2-3 4v94c0 3 3 5 5 4l41-13c2-1 3-2 3-4v-94z" clip-rule="evenodd"/>
    <ellipse cx="30" cy="325.5" fill="#2535B0" fill-opacity=".2" rx="9" ry="10.5"/>
    <ellipse cx="27" cy="320.5" fill="url(#paint3_linear)" rx="9" ry="10.5"/>
    <path fill="url(#paint4_linear)" d="M44 229l49-16v103l-49 16V229z"/>
    <path fill="url(#paint5_linear)" d="M44 112l49-16v103l-49 16V112z"/>
    <path fill="url(#paint6_linear)" d="M105 212l49-16v103l-49 16V212z"/>
    <path fill="url(#paint7_linear)" d="M105 95l49-16v103l-49 16V95z"/>
    <path stroke="url(#paint8_linear)" stroke-linejoin="round" stroke-width="2" d="M80 166l22-36 21 29"/>
    <circle cx="102.5" cy="131.5" r="2.5" fill="url(#paint9_linear)"/>
    <path fill="#2535B0" fill-opacity=".2" d="M54 181c0-2 1-3 3-4l89-20c3 0 5 1 5 4v26c0 2-1 3-3 4l-89 20c-3 0-5-1-5-4v-26z"/>
    <path fill="url(#paint10_linear)" d="M51 173c0-2 1-3 3-4l87-17 3 1 2 1 1 3-2 24c0 2-1 3-3 4l-83 21-3-1-3-1-2-4v-27z"/>
    <path fill="url(#paint11_linear)" d="M54 176c0-2 1-3 3-4l86-18c3-1 5 1 5 4v26c0 2-1 3-3 4l-86 18c-3 1-5-1-5-4v-26z"/>
    <ellipse cx="59.5" cy="177.9" fill="#E9AC2B" rx="2" ry="2.5" transform="rotate(14 60 178)"/>
    <ellipse cx="59.5" cy="199.9" fill="#E9AC2B" rx="2" ry="2.5" transform="rotate(14 60 200)"/>
    <ellipse cx="143.5" cy="159.9" fill="#E9AC2B" rx="2" ry="2.5" transform="rotate(14 144 160)"/>
    <ellipse cx="143.5" cy="182.9" fill="#E9AC2B" rx="2" ry="2.5" transform="rotate(14 144 183)"/>
    <defs>
        <linearGradient id="paint0_linear" x1="139" x2="-55" y1="455" y2="284.5" gradientUnits="userSpaceOnUse">
            <stop offset="0" stop-color="#3044CB"/>
            <stop offset="1" stop-color="#B4BCFF"/>
        </linearGradient>
        <linearGradient id="paint1_linear" x1="101" x2="10" y1="463.4" y2="140" gradientUnits="userSpaceOnUse">
            <stop offset="0" stop-color="#3044CB"/>
            <stop offset="1" stop-color="#8B98FF"/>
        </linearGradient>
        <linearGradient id="paint2_linear" x1="56.5" x2="120.5" y1="105" y2="334.2" gradientUnits="userSpaceOnUse">
            <stop offset="0" stop-color="#B4BCFF"/>
            <stop offset="1" stop-color="#8B98FF"/>
        </linearGradient>
        <linearGradient id="paint3_linear" x1="33.8" x2="26.5" y1="326.1" y2="309.6" gradientUnits="userSpaceOnUse">
            <stop stop-color="#FDC140"/>
            <stop offset="1" stop-color="#FFD481"/>
        </linearGradient>
        <linearGradient id="paint4_linear" x1="41.5" x2="81.4" y1="304" y2="324.6" gradientUnits="userSpaceOnUse">
            <stop offset="0" stop-color="#4B5DDB" stop-opacity="0"/>
            <stop offset="1" stop-color="#4A5CDA" stop-opacity=".3"/>
        </linearGradient>
        <linearGradient id="paint5_linear" x1="41.5" x2="81.4" y1="187" y2="207.6" gradientUnits="userSpaceOnUse">
            <stop offset="0" stop-color="#4B5DDB" stop-opacity="0"/>
            <stop offset="1" stop-color="#4A5CDA" stop-opacity=".3"/>
        </linearGradient>
        <linearGradient id="paint6_linear" x1="102.5" x2="142.4" y1="287" y2="307.6" gradientUnits="userSpaceOnUse">
            <stop offset="0" stop-color="#4B5DDB" stop-opacity="0"/>
            <stop offset="1" stop-color="#4A5CDA" stop-opacity=".3"/>
        </linearGradient>
        <linearGradient id="paint7_linear" x1="102.5" x2="142.4" y1="170" y2="190.6" gradientUnits="userSpaceOnUse">
            <stop offset="0" stop-color="#4B5DDB" stop-opacity="0"/>
            <stop offset="1" stop-color="#4A5CDA" stop-opacity=".3"/>
        </linearGradient>
        <linearGradient id="paint8_linear" x1="101.5" x2="101.5" y1="130" y2="166" gradientUnits="userSpaceOnUse">
            <stop stop-color="#F6CF53"/>
            <stop offset="1" stop-color="#E29A0D"/>
        </linearGradient>
        <linearGradient id="paint9_linear" x1="100.5" x2="105.5" y1="130" y2="133.3" gradientUnits="userSpaceOnUse">
            <stop stop-color="#FFEBA3"/>
            <stop offset="1" stop-color="#FFB800"/>
        </linearGradient>
        <linearGradient id="paint10_linear" x1="66" x2="72.5" y1="162" y2="195.5" gradientUnits="userSpaceOnUse">
            <stop stop-color="#FFE588"/>
            <stop offset="1" stop-color="#E09707"/>
        </linearGradient>
        <linearGradient id="paint11_linear" x1="121.5" x2="114.5" y1="203.5" y2="147.5" gradientUnits="userSpaceOnUse">
            <stop stop-color="#F4D156"/>
            <stop offset="1" stop-color="#FFBC3A"/>
        </linearGradient>
    </defs>
</svg>
