<svg width="405" height="402" fill="none" xmlns="http://www.w3.org/2000/svg"><path fill-rule="evenodd" clip-rule="evenodd" d="M11 0C5 0 0 5 0 11v119c0 6 5 11 11 11h105c3 11 10 19 25 23 2 0 3-2 2-3-3-8-5-14-4-20h26c6 0 10-5 10-11V11c0-6-4-11-10-11H11z" fill="url(#paint0_linear)"/><g filter="url(#filter0_d)"><path d="M43 36c-1-4 1-7 4-8l44-12 25 14 18 66c1 4-1 7-5 8l-58 15c-3 1-6-1-7-4L43 36z" fill="url(#paint1_linear)"/></g><rect width="52.1" height="2" rx="1" transform="rotate(-15 258 -196)" fill="#1E2B99" fill-opacity=".4"/><rect width="52.1" height="2" rx="1" transform="rotate(-15 281 -199)" fill="#1E2B99" fill-opacity=".4"/><rect width="52.1" height="2" rx="1" transform="rotate(-15 303 -202)" fill="#1E2B99" fill-opacity=".4"/><rect width="32.1" height="2" rx="1" transform="rotate(-15 326 -205)" fill="#1E2B99" fill-opacity=".4"/><path d="M73 48l-2 1-3-9-3 1v-2l8-3v2l-3 1 3 9zM78 35h3v4l-1 1 3 2a9 9 0 000-3h2v4l3 1-3 1h-1l-2 1h-5l-1-2v-2l1-1-1-1-1-2v-1l1-1 2-1zm0 2h-1v1l1 1 1-1v-1h-1zm1 5l-1 1 1 1h1a3 3 0 002-1l-3-1zM91 33l-2 2v3l2 3h2l1-1h2v2a8 8 0 01-3 1h-3l-2-2-1-2v-4l1-2 3-2h3v3l-2-1h-1z" fill="#1E2B99"/><path transform="rotate(-15 362 -272)" stroke="#1E2B99" stroke-width="2" d="M-1-1h22v22H-1z"/><path d="M89 91l7 4 8-17" stroke="url(#paint2_linear)" stroke-width="4.3" stroke-linecap="square" stroke-linejoin="round"/><g filter="url(#filter1_f)"><path d="M89 17l25 14-14 4c-3 1-7-1-7-4l-4-14z" fill="url(#paint3_linear)"/></g><path d="M91 16l25 14-14 4c-3 1-6-1-7-4l-4-14z" fill="url(#paint4_linear)"/><path opacity=".2" fill-rule="evenodd" clip-rule="evenodd" d="M378 59c6 0 11 5 11 11v35c0 6-5 11-11 11h-35c-4 7-9 12-19 15-2 0-4-2-3-3 2-4 4-8 4-12-6-1-10-5-10-11V70c0-6 5-11 11-11h52z" fill="url(#paint5_linear)"/><path fill-rule="evenodd" clip-rule="evenodd" d="M387 46c6 0 10 5 10 11v35c0 6-4 11-10 11h-36c-3 7-8 12-19 15-2 0-3-2-2-3l3-12c-5-1-10-5-10-11V57c0-6 5-11 11-11h53z" fill="url(#paint6_linear)"/><circle cx="360.4" cy="74.6" fill="url(#paint7_linear)" fill-opacity=".6" r="19.6"/><ellipse cx="360.4" cy="74.6" rx="16.3" ry="16.4" fill="url(#paint8_linear)"/><path d="M352 74l7 7 14-17" stroke="url(#paint9_linear)" stroke-width="4.3" stroke-linecap="square" stroke-linejoin="round"/><g filter="url(#filter2_d)"><path d="M122 183l74 23-19 32s-70-29-78-45c-8-20 18-94 18-94-1-7-5-16-1-28 3-12 18-1 18-1l5-21c3-7 8 0 8 0-3 20-6 31-13 50l-12 84z" fill="url(#paint10_linear)"/></g><path d="M155 73c1 2-6 5-8 11-3 9-16 26-23 15-3-5 2-16 9-17 4-1 8-1 10-6 3-5 11-6 12-3z" fill="url(#paint11_linear)"/><path d="M202 208l-32 36c-9 6-32-9-52-20 0-12 21-46 32-42 16 6 30 2 52 26z" fill="url(#paint12_linear)"/><path d="M311 369c29 29-126 48-126 17s5-50-9-76c-38-70-13-92 20-113l69 26s-13 54-6 87c6 26 27 33 52 59z" fill="url(#paint13_linear)"/><path d="M315 261c-15-13-48-39-61-43-20-6-25 17-17 29 9 14 80 46 86 41 18-16 47-70 47-70s24-5 35-27c1-7-3-4-7-11 2-9-3-14-5-9-4 9-13 18-25 20 0-8 0-15-5-16-4-1-1 8-2 14l-3 18-43 54z" fill="url(#paint14_linear)"/><path d="M168 212c-17-10-19-73 17-100l25 83c-3 11-18 31-42 17z" fill="url(#paint15_linear)"/><path d="M240 218c15-14 34 5 53 16 0 16-6 45-18 45s-70-28-35-61z" fill="url(#paint16_linear)"/><path fill-rule="evenodd" clip-rule="evenodd" d="M190 111s-21 19-21 49c0 27 9 40 24 39 3 7 3 12 2 17v10c2 10 32-15 32-15l-7-22 17-12c20-17 0-66 0-66h-47z" fill="url(#paint17_linear)"/><path d="M221 141c-28 8-47-15-36-35 14-26 63-23 81 4 17 23 61 89 9 111-29 12-69 4-54-80z" fill="url(#paint18_linear)"/><path d="M299 175c-17-60-42-79-56-83 0 0 31 14 45 75 8 35-3 49-3 49 9-6 19-21 14-41z" fill="url(#paint19_linear)"/><path opacity=".1" fill-rule="evenodd" clip-rule="evenodd" d="M66 282c-6 0-10 5-10 11v33c0 6 4 10 10 10h34c3 7 8 12 18 15 2 0 3-2 3-3-2-4-4-8-4-12 6 0 10-5 10-10v-33c0-6-5-11-11-11H66z" fill="url(#paint20_linear)"/><path fill-rule="evenodd" clip-rule="evenodd" d="M58 272c-6 0-11 5-11 11v33c0 6 5 11 11 11h33c4 7 9 11 19 14 2 1 3-1 2-3-2-4-3-7-3-11 5-1 9-5 9-11v-33c0-6-4-11-10-11H58z" fill="url(#paint21_linear)"/><circle cx="82.8" cy="299.7" fill="url(#paint22_linear)" fill-opacity=".3" r="18.9"/><ellipse cx="82.8" cy="299.7" rx="15.7" ry="15.8" fill="url(#paint23_linear)" fill-opacity=".6"/><path fill-rule="evenodd" clip-rule="evenodd" d="M77 291l-3 3 5 6-5 5 3 3 5-5 5 5 3-3-5-5 6-6-3-3-6 6-5-6z" fill="url(#paint24_linear)"/><defs><linearGradient id="paint0_linear" x1="68.2" y1="190.7" x2="37.1" y2="30.7" gradientUnits="userSpaceOnUse"><stop stop-color="#8C98FF"/><stop offset="1" stop-color="#F8F8FF"/></linearGradient><linearGradient id="paint1_linear" x1="158.9" y1="118.8" x2="59.9" y2="89.7" gradientUnits="userSpaceOnUse"><stop stop-color="#E8EAFF"/><stop offset="1" stop-color="#F8F8FF"/></linearGradient><linearGradient id="paint2_linear" x1="95.2" y1="80.8" x2="98.9" y2="94.4" gradientUnits="userSpaceOnUse"><stop stop-color="#62B942"/><stop offset="1" stop-color="#2F7B19"/></linearGradient><linearGradient id="paint3_linear" x1="93.7" y1="30.2" x2="111.4" y2="23.8" gradientUnits="userSpaceOnUse"><stop stop-color="#9AA5FF" stop-opacity=".8"/><stop offset="1" stop-color="#F8F8FF"/></linearGradient><linearGradient id="paint4_linear" x1="100.9" y1="34.5" x2="105.8" y2="15.4" gradientUnits="userSpaceOnUse"><stop stop-color="#EAECFF"/><stop offset="1" stop-color="#E6E8FF"/></linearGradient><linearGradient id="paint5_linear" x1="382.2" y1="53.9" x2="338.4" y2="140.3" gradientUnits="userSpaceOnUse"><stop stop-color="#74C24F"/><stop offset="1" stop-color="#44A92A"/></linearGradient><linearGradient id="paint6_linear" x1="304.4" y1="134.5" x2="378.2" y2="73.8" gradientUnits="userSpaceOnUse"><stop stop-color="#E8EAFF"/><stop offset="1" stop-color="#F8F8FF"/></linearGradient><linearGradient id="paint7_linear" x1="347.4" y1="43.5" x2="395" y2="89.4" gradientUnits="userSpaceOnUse"><stop stop-color="#D6EFBC"/><stop offset="1" stop-color="#BEF295"/></linearGradient><linearGradient id="paint8_linear" x1="349.6" y1="48.7" x2="389.3" y2="86.9" gradientUnits="userSpaceOnUse"><stop stop-color="#B8EC84"/><stop offset="1" stop-color="#8FE14F"/></linearGradient><linearGradient id="paint9_linear" x1="362.6" y1="63.7" x2="362.6" y2="81.1" gradientUnits="userSpaceOnUse"><stop stop-color="#62B942"/><stop offset="1" stop-color="#2F7B19"/></linearGradient><linearGradient id="paint10_linear" x1="141.2" y1="305.7" x2="84.1" y2="234.5" gradientUnits="userSpaceOnUse"><stop stop-color="#8C98FF"/><stop offset="1" stop-color="#F8F8FF"/></linearGradient><linearGradient id="paint11_linear" x1="138" y1="113.8" x2="131.1" y2="97.7" gradientUnits="userSpaceOnUse"><stop stop-color="#8C98FF"/><stop offset="1" stop-color="#F8F8FF"/></linearGradient><linearGradient id="paint12_linear" x1="193.9" y1="251.8" x2="180.4" y2="190.1" gradientUnits="userSpaceOnUse"><stop stop-color="#1E2B99" stop-opacity="0"/><stop offset="1" stop-color="#6474FF"/></linearGradient><linearGradient id="paint13_linear" x1="299.7" y1="422" x2="232" y2="248.4" gradientUnits="userSpaceOnUse"><stop stop-color="#1E2B99" stop-opacity="0"/><stop offset="1" stop-color="#6474FF"/></linearGradient><linearGradient id="paint14_linear" x1="319.9" y1="332.3" x2="303.6" y2="267" gradientUnits="userSpaceOnUse"><stop stop-color="#8C98FF"/><stop offset="1" stop-color="#F8F8FF"/></linearGradient><linearGradient id="paint15_linear" x1="152.2" y1="158.7" x2="203.4" y2="205.4" gradientUnits="userSpaceOnUse"><stop stop-color="#F4D156"/><stop offset="1" stop-color="#E09707"/></linearGradient><linearGradient id="paint16_linear" x1="276.2" y1="296.5" x2="269.6" y2="210.5" gradientUnits="userSpaceOnUse"><stop stop-color="#4755D4" stop-opacity=".8"/><stop offset="1" stop-color="#8995FF"/></linearGradient><linearGradient id="paint17_linear" x1="204.9" y1="270.4" x2="171.3" y2="219.9" gradientUnits="userSpaceOnUse"><stop stop-color="#8C98FF"/><stop offset="1" stop-color="#F8F8FF"/></linearGradient><linearGradient id="paint18_linear" x1="311.7" y1="213.5" x2="252.5" y2="71.3" gradientUnits="userSpaceOnUse"><stop stop-color="#FDC140"/><stop offset="1" stop-color="#FFD481"/></linearGradient><linearGradient id="paint19_linear" x1="230.9" y1="78.8" x2="316.8" y2="117.8" gradientUnits="userSpaceOnUse"><stop stop-color="#F4D156"/><stop offset="1" stop-color="#E09707"/></linearGradient><linearGradient id="paint20_linear" x1="95.7" y1="427.7" x2="46" y2="315" gradientUnits="userSpaceOnUse"><stop stop-color="#8C98FF"/><stop offset="1" stop-color="#F8F8FF"/></linearGradient><linearGradient id="paint21_linear" x1="136.7" y1="357.4" x2="65.7" y2="298.8" gradientUnits="userSpaceOnUse"><stop stop-color="#E8EAFF"/><stop offset="1" stop-color="#F8F8FF"/></linearGradient><linearGradient id="paint22_linear" x1="68.4" y1="277.2" x2="92.6" y2="323.7" gradientUnits="userSpaceOnUse"><stop stop-color="#FF8F77"/><stop offset="1" stop-color="#FFB054"/></linearGradient><linearGradient id="paint23_linear" x1="73.8" y1="283.9" x2="91" y2="319.6" gradientUnits="userSpaceOnUse"><stop stop-color="#FF8F77"/><stop offset="1" stop-color="#FFB054"/></linearGradient><linearGradient id="paint24_linear" x1="99.3" y1="293.3" x2="58" y2="315.5" gradientUnits="userSpaceOnUse"><stop stop-color="#FF774B"/><stop offset="1" stop-color="#D9622F"/></linearGradient><filter id="filter0_d" x="29.4" y="13.3" width="105.4" height="117.3" filterUnits="userSpaceOnUse" color-interpolation-filters="sRGB"><feFlood flood-opacity="0" result="BackgroundImageFix"/><feColorMatrix in="SourceAlpha" values="0 0 0 0 0 0 0 0 0 0 0 0 0 0 0 0 0 0 127 0" result="hardAlpha"/><feOffset dx="-6" dy="4"/><feGaussianBlur stdDeviation="3.5"/><feColorMatrix values="0 0 0 0 0.191684 0 0 0 0 0.250893 0 0 0 0 0.754167 0 0 0 0.3 0"/><feBlend in2="BackgroundImageFix" result="effect1_dropShadow"/><feBlend in="SourceGraphic" in2="effect1_dropShadow" result="shape"/></filter><filter id="filter1_f" x="85" y="13.2" width="32.6" height="26.1" filterUnits="userSpaceOnUse" color-interpolation-filters="sRGB"><feFlood flood-opacity="0" result="BackgroundImageFix"/><feBlend in="SourceGraphic" in2="BackgroundImageFix" result="shape"/><feGaussianBlur stdDeviation="2" result="effect1_foregroundBlur"/></filter><filter id="filter2_d" x="86.6" y="46.1" width="109.6" height="199.4" filterUnits="userSpaceOnUse" color-interpolation-filters="sRGB"><feFlood flood-opacity="0" result="BackgroundImageFix"/><feColorMatrix in="SourceAlpha" values="0 0 0 0 0 0 0 0 0 0 0 0 0 0 0 0 0 0 127 0" result="hardAlpha"/><feOffset dx="-7" dy="4"/><feGaussianBlur stdDeviation="2"/><feColorMatrix values="0 0 0 0 0.117647 0 0 0 0 0.168627 0 0 0 0 0.6 0 0 0 0.2 0"/><feBlend in2="BackgroundImageFix" result="effect1_dropShadow"/><feBlend in="SourceGraphic" in2="effect1_dropShadow" result="shape"/></filter></defs></svg>
