<svg xmlns="http://www.w3.org/2000/svg" width="394" height="449" fill="none" viewBox="0 0 394 449">
    <defs/>
    <rect width="306" height="378" x="19" y="71" fill="url(#paint0_linear)" rx="6.7"/>
    <rect width="117" height="117" x="47" y="89" fill="url(#paint1_linear)" rx="10"/>
    <rect width="117" height="117" x="180" y="89" fill="url(#paint2_linear)" rx="10"/>
    <rect width="117" height="117" x="180" y="222" fill="url(#paint3_linear)" rx="10"/>
    <rect width="117" height="117" x="47" y="222" fill="url(#paint4_linear)" rx="10"/>
    <path fill="url(#paint5_linear)" d="M20.3 2h305.4L345 68H1L20.3 2z"/>
    <path fill="url(#paint6_linear)" fill-opacity=".1" fill-rule="evenodd" d="M19 93a10 10 0 0110-10h39a10 10 0 0110 10 10 10 0 0110-10h48a10 10 0 0110 10 10 10 0 0110-10h48a10 10 0 0110 10 10 10 0 0110-10h48a10 10 0 0110 10 10 10 0 0110-10h23a10 10 0 0110 10v27a10 10 0 01-10 10h-23a10 10 0 01-10-10 10 10 0 01-10 10h-48a10 10 0 01-10-10 10 10 0 01-10 10h-48a10 10 0 01-10-10 10 10 0 01-10 10H88a10 10 0 01-10-10 10 10 0 01-10 10H29a10 10 0 01-10-10V93z" clip-rule="evenodd"/>
    <path fill="url(#paint7_linear)" d="M2 71h68v27c0 11-9 20-20 20H22c-11 0-20-9-20-20V71z"/>
    <path fill="url(#paint8_linear)" d="M70 71h68v27c0 11-9 20-20 20H90c-11 0-20-9-20-20V71z"/>
    <path fill="url(#paint9_linear)" d="M138 71h68v27c0 11-9 20-20 20h-28c-11 0-20-9-20-20V71z"/>
    <path fill="url(#paint10_linear)" d="M206 71h68v27c0 11-9 20-20 20h-28c-11 0-20-9-20-20V71z"/>
    <path fill="url(#paint11_linear)" d="M274 71h68v27c0 11-9 20-20 20h-28c-11 0-20-9-20-20V71z"/>
    <path fill="url(#paint12_linear)" fill-opacity=".2" d="M80 2h58v72H70L80 2z"/>
    <path fill="url(#paint13_linear)" fill-opacity=".4" d="M263 3h-58v72h68L263 3z"/>
    <rect width="344" height="6" y="68" fill="url(#paint14_linear)" rx="3"/>
    <rect width="308" height="6" x="19" fill="url(#paint15_linear)" rx="3"/>
    <path fill="url(#paint16_linear)" d="M300.2 310c46 30 24 72.7 27.5 108-38.5-2.7-79.4 17.4-92.7-22.5-5.5-16.5 15.3-34.7 24.2-32.5-32.2-53 13.3-71 41-53z"/>
    <path fill="url(#paint17_linear)" d="M363.7 287.3c49.6-25.6 30.3 87.7-2 114-88-20.5-99.5-112.4-55.8-101.7-15.1-56.2 43-68 57.8-12.3z"/>
    <path fill="url(#paint18_linear)" d="M372.5 363c9.2 21.6 0 48-11.5 58-28.5 4-52.3-4.5-57.5-18.5-5.2-14 4.8-26 15-27 0 0-14-25 0-34.5s44.8.4 54 22z"/>
    <defs>
        <linearGradient id="paint0_linear" x1="172" x2="172" y1="403.5" y2="42.3" gradientUnits="userSpaceOnUse">
            <stop offset="0" stop-color="#8592FF" stop-opacity="0"/>
            <stop offset="1" stop-color="#3B4BD3"/>
        </linearGradient>
        <linearGradient id="paint1_linear" x1="105.5" x2="105.5" y1="89" y2="206" gradientUnits="userSpaceOnUse">
            <stop stop-color="#fff"/>
            <stop offset="1" stop-color="#BFC7FF"/>
        </linearGradient>
        <linearGradient id="paint2_linear" x1="238.5" x2="238.5" y1="89" y2="206" gradientUnits="userSpaceOnUse">
            <stop stop-color="#fff"/>
            <stop offset="1" stop-color="#BFC7FF"/>
        </linearGradient>
        <linearGradient id="paint3_linear" x1="238.5" x2="238.5" y1="222" y2="339" gradientUnits="userSpaceOnUse">
            <stop stop-color="#fff"/>
            <stop offset="1" stop-color="#BFC7FF"/>
        </linearGradient>
        <linearGradient id="paint4_linear" x1="105.5" x2="105.5" y1="222" y2="339" gradientUnits="userSpaceOnUse">
            <stop stop-color="#fff"/>
            <stop offset="1" stop-color="#BFC7FF"/>
        </linearGradient>
        <linearGradient id="paint5_linear" x1="242.1" x2="105.9" y1="230.8" y2="-134.3" gradientUnits="userSpaceOnUse">
            <stop stop-color="#1E2B99"/>
            <stop offset="1" stop-color="#7C8AFF"/>
        </linearGradient>
        <linearGradient id="paint6_linear" x1="283.5" x2="327.6" y1="135.6" y2="76.4" gradientUnits="userSpaceOnUse">
            <stop stop-color="#8592FF"/>
            <stop offset="1" stop-color="#3B4BD3"/>
        </linearGradient>
        <linearGradient id="paint7_linear" x1="2" x2="21.5" y1="78.1" y2="136" gradientUnits="userSpaceOnUse">
            <stop stop-color="#202D9B"/>
            <stop offset="1" stop-color="#4555E2"/>
        </linearGradient>
        <linearGradient id="paint8_linear" x1="70" x2="89.5" y1="78.1" y2="136" gradientUnits="userSpaceOnUse">
            <stop stop-color="#202D9B"/>
            <stop offset="1" stop-color="#4555E2"/>
        </linearGradient>
        <linearGradient id="paint9_linear" x1="138" x2="157.5" y1="78.1" y2="136" gradientUnits="userSpaceOnUse">
            <stop stop-color="#202D9B"/>
            <stop offset="1" stop-color="#4555E2"/>
        </linearGradient>
        <linearGradient id="paint10_linear" x1="206" x2="225.5" y1="78.1" y2="136" gradientUnits="userSpaceOnUse">
            <stop stop-color="#202D9B"/>
            <stop offset="1" stop-color="#4555E2"/>
        </linearGradient>
        <linearGradient id="paint11_linear" x1="274" x2="293.5" y1="78.1" y2="136" gradientUnits="userSpaceOnUse">
            <stop stop-color="#202D9B"/>
            <stop offset="1" stop-color="#4555E2"/>
        </linearGradient>
        <linearGradient id="paint12_linear" x1="70" x2="110.2" y1="12.9" y2="90.9" gradientUnits="userSpaceOnUse">
            <stop stop-color="#202D9B"/>
            <stop offset="1" stop-color="#4555E2"/>
        </linearGradient>
        <linearGradient id="paint13_linear" x1="273" x2="232.8" y1="13.9" y2="91.9" gradientUnits="userSpaceOnUse">
            <stop stop-color="#202D9B"/>
            <stop offset="1" stop-color="#4555E2"/>
        </linearGradient>
        <linearGradient id="paint14_linear" x1="44.1" x2="44.3" y1="80.2" y2="62.8" gradientUnits="userSpaceOnUse">
            <stop stop-color="#fff"/>
            <stop offset="1" stop-color="#7C8AFF"/>
        </linearGradient>
        <linearGradient id="paint15_linear" x1="58.5" x2="58.8" y1="12.2" y2="-5.2" gradientUnits="userSpaceOnUse">
            <stop stop-color="#fff"/>
            <stop offset="1" stop-color="#7C8AFF"/>
        </linearGradient>
        <linearGradient id="paint16_linear" x1="235.4" x2="302.9" y1="283.2" y2="419.5" gradientUnits="userSpaceOnUse">
            <stop stop-color="#5FBA35"/>
            <stop offset="1" stop-color="#298212"/>
        </linearGradient>
        <linearGradient id="paint17_linear" x1="282.2" x2="349.7" y1="219.8" y2="356.1" gradientUnits="userSpaceOnUse">
            <stop stop-color="#93D872"/>
            <stop offset="1" stop-color="#44A92A"/>
        </linearGradient>
        <linearGradient id="paint18_linear" x1="304.9" x2="331.7" y1="329.9" y2="405.6" gradientUnits="userSpaceOnUse">
            <stop stop-color="#93D872"/>
            <stop offset="1" stop-color="#44A92A"/>
        </linearGradient>
    </defs>
</svg>
