<svg xmlns="http://www.w3.org/2000/svg" width="239" height="482" fill="none" viewBox="0 0 239 482">
    <defs/>
    <path fill="url(#paint0_linear)" d="M35.1 138.2c-2.1 4.5-1 13.2-1 16.5l-5 2c-1.1-2-9-8.6-16.1-12.7-7.1-4.1-12.9-7.3-12.9-8.3-1.5-5.5 13.4 5.3 13.5 2.5 0-1.8-13-9.7-13-13.5 1.9-4.5 13.5 10 16.5 8.5 1.9-1-15.3-18.2-9.6-19.7 3.5 0 12.6 15.7 14.1 15.7 3.2 0-6.1-14.1-3.6-16.7 2.5-2.6 9.4 18.8 10.5 18.5 4-1 4.9-13.7 8.6-10.8-.8 3.6.2 13.3-2 18z"/>
    <path fill="url(#paint1_linear)" d="M73.5 170c3.2-6.9 8-60 28.3-69 58.6-25.7 6 85.1-14.3 98.5-20.3 13.4-63-45-63-45l10.8-13.7s35 36 38.2 29.2z"/>
    <path fill="#212FA3" d="M47.6 464c9.6 1.2 28.4-9.5 36.5-15h17s6 16.5 0 22.5-11.7 0-25.5 4.5c-35.6 11.5-40.8-13.6-28-12zM143.4 466c9.6 1.2 28.3-9.5 36.5-15h17s6 16.5 0 22.5-11.8 0-25.5 4.5c-35.7 11.5-40.9-13.6-28-12z"/>
    <path fill="url(#paint2_linear)" d="M99 323.5c7.6-40.4 44.5-85.8 62-103.5l48.5 6.5-67 97-39 130S79 455.5 79 447s12.4-83.1 20-123.5z"/>
    <path fill="url(#paint3_linear)" d="M152 331.5c3-23.5 19-95.3 36.5-113l46 5-46 113 3 117-23 2C172 431.2 149 355 152 331.5z"/>
    <path fill="url(#paint4_linear)" fill-rule="evenodd" d="M210 91.6L223 35h15s3.3 39.3-2.4 65.3c-3 14-16.8 20.1-33 21.6 12.6 30.8 19.2 74.7 7.9 108.9-11 33.2-71.8 23.1-71.8 0 2.7-13-8.6-32.4-20.7-53-14-24.2-29.2-50.2-24.7-70.2 2.6-11 57.2-30.9 81.5-22.3 3.2 1 6.4 3.3 9.6 6.5 12 4 22.4 6.7 25.7 0z" clip-rule="evenodd"/>
    <path fill="url(#paint5_linear)" d="M97 94.7C72.7 98.9 77.4 37 77.4 37S89.9 14.3 111 16.1c19 1.6 17.7 36.6 19.3 57.8 1.2 11.8 5.6 15 5.6 15-5 12.8-15.7 22.9-20 20.8-3.7-.8-1.3-11.4-6.5-21.5 0 0-2.8 4.8-12.5 6.5z"/>
    <path fill="url(#paint6_linear)" d="M124.1 16.2s-28.4-27.7-50-10.6c-27.7 22 0 66.4 42.3 42 0 14 1.4 24.4 13 24.4 20 0 31.3-59.5-5.3-55.8z"/>
    <ellipse cx="120.5" cy="57.5" fill="#F8F8FF" rx="6.5" ry="7.5" transform="rotate(16 120.5 57.5)"/>
    <defs>
        <linearGradient id="paint0_linear" x1="19.6" x2="7.3" y1="172.2" y2="149.5" gradientUnits="userSpaceOnUse">
            <stop stop-color="#8C98FF"/>
            <stop offset="1" stop-color="#F8F8FF"/>
        </linearGradient>
        <linearGradient id="paint1_linear" x1="81.9" x2="120.7" y1="239.6" y2="95.3" gradientUnits="userSpaceOnUse">
            <stop stop-color="#3040CC"/>
            <stop offset="1" stop-color="#6474FF"/>
        </linearGradient>
        <linearGradient id="paint2_linear" x1="186.5" x2="89" y1="321.5" y2="272.5" gradientUnits="userSpaceOnUse">
            <stop stop-color="#3040CC"/>
            <stop offset="1" stop-color="#6474FF"/>
        </linearGradient>
        <linearGradient id="paint3_linear" x1="244.5" x2="189.6" y1="390" y2="258" gradientUnits="userSpaceOnUse">
            <stop stop-color="#3040CC"/>
            <stop offset="1" stop-color="#6474FF"/>
        </linearGradient>
        <linearGradient id="paint4_linear" x1="226.5" x2="92.4" y1="146.5" y2="112.3" gradientUnits="userSpaceOnUse">
            <stop stop-color="#1F2EAE"/>
            <stop offset="1" stop-color="#7C8AFF"/>
        </linearGradient>
        <linearGradient id="paint5_linear" x1="102.3" x2="74.7" y1="133.5" y2="96.8" gradientUnits="userSpaceOnUse">
            <stop stop-color="#8C98FF"/>
            <stop offset="1" stop-color="#F8F8FF"/>
        </linearGradient>
        <linearGradient id="paint6_linear" x1="137.7" x2="117.9" y1="55.1" y2="-6.3" gradientUnits="userSpaceOnUse">
            <stop stop-color="#FDC140"/>
            <stop offset="1" stop-color="#FFD481"/>
        </linearGradient>
    </defs>
</svg>
