<svg xmlns="http://www.w3.org/2000/svg" width="237" height="157" fill="none" viewBox="0 0 237 157">
    <defs/>
    <path stroke="url(#paint0_linear)" stroke-width="4" d="M58 53l59.5-48.5 59 60"/>
    <rect width="213" height="85" x="22.8" y="49.39" fill="url(#paint1_linear)" fill-opacity=".15" rx="6.72" transform="rotate(6 22.8 49.39)"/>
    <path fill="url(#paint2_linear)" d="M13.32 48.69a10 10 0 0110.75-8.38l191.2 16.75a10 10 0 013.4.92l1.54.74a10 10 0 015.68 10.08l-7.1 67.54a10 10 0 01-10.99 8.9L12.88 124.76a10 10 0 01-8.66-7.53l-.64-2.58a10 10 0 01-.17-4l9.91-61.96z"/>
    <rect width="213" height="85" x="10.35" y="34.1" fill="url(#paint3_linear)" rx="10" transform="rotate(6 10.35 34.1)"/>
    <path fill="url(#paint4_linear)" d="M38.09 61.43l2.77 13.07 13.29 1.4-11.57 6.67 2.77 13.07-9.92-8.94-11.57 6.68 5.44-12.2-9.93-8.94 13.28 1.4 5.44-12.2z"/>
    <path fill="url(#paint5_linear)" d="M74.54 65.27l2.78 13.06 13.28 1.4-11.57 6.68 2.78 13.06-9.93-8.94-11.56 6.68 5.43-12.2-9.93-8.94 13.29 1.4 5.43-12.2z"/>
    <path fill="url(#paint6_linear)" d="M147.45 72.93L150.22 86l13.29 1.4-11.57 6.67 2.78 13.07-9.93-8.94-11.57 6.68 5.44-12.2-9.93-8.94 13.28 1.4 5.44-12.2z"/>
    <path fill="url(#paint7_linear)" d="M183.9 76.77l2.78 13.06 13.28 1.4-11.57 6.68 2.78 13.06-9.93-8.94-11.56 6.68 5.43-12.2-9.93-8.94 13.29 1.4 5.43-12.2z"/>
    <path fill="url(#paint8_linear)" d="M111 69.1l2.77 13.07 13.28 1.4-11.56 6.67 2.77 13.07-9.92-8.94-11.57 6.67 5.43-12.2-9.92-8.93 13.28 1.4 5.43-12.2z"/>
    <path fill="url(#paint9_linear)" d="M29.13 46.08c2.44 3-.14 10.94-.14 10.94s-8.3.88-10.74-2.13a7 7 0 0110.88-8.81z"/>
    <path fill="url(#paint10_linear)" d="M201.2 64.05c-3 2.44-2.14 10.74-2.14 10.74s7.94 2.57 10.95.14a7 7 0 00-8.81-10.88z"/>
    <path fill="url(#paint11_linear)" d="M22.26 110.51c3-2.43 2.14-10.73 2.14-10.73s-7.94-2.58-10.95-.15a7 7 0 108.81 10.88z"/>
    <path fill="url(#paint12_linear)" d="M194.53 128.5c-2.44-3 .14-10.94.14-10.94s8.3-.87 10.74 2.14a7 7 0 11-10.88 8.8z"/>
    <circle cx="118" cy="5" r="5" fill="url(#paint13_linear)"/>
    <defs>
        <linearGradient id="paint0_linear" x1="117.25" x2="117.25" y1="4.5" y2="64.5" gradientUnits="userSpaceOnUse">
            <stop stop-color="#F6CF53"/>
            <stop offset="1" stop-color="#E29A0D"/>
        </linearGradient>
        <linearGradient id="paint1_linear" x1="91.27" x2="147.37" y1="144.58" y2="-.34" gradientUnits="userSpaceOnUse">
            <stop stop-color="#8592FF"/>
            <stop offset="1" stop-color="#3B4BD3"/>
        </linearGradient>
        <linearGradient id="paint2_linear" x1="-5.28" x2="23.46" y1="38.66" y2="140.41" gradientUnits="userSpaceOnUse">
            <stop stop-color="#F4D156"/>
            <stop offset="1" stop-color="#E09707"/>
        </linearGradient>
        <linearGradient id="paint3_linear" x1="74.25" x2="77.86" y1="37.61" y2="135.51" gradientUnits="userSpaceOnUse">
            <stop stop-color="#F4D156"/>
            <stop offset="1" stop-color="#FFBC3A"/>
        </linearGradient>
        <linearGradient id="paint4_linear" x1="30.61" x2="30.08" y1="62.17" y2="104.39" gradientUnits="userSpaceOnUse">
            <stop stop-color="#fff"/>
            <stop offset="1" stop-color="#fff"/>
        </linearGradient>
        <linearGradient id="paint5_linear" x1="67.07" x2="66.53" y1="66.01" y2="108.23" gradientUnits="userSpaceOnUse">
            <stop stop-color="#fff"/>
            <stop offset="1" stop-color="#fff"/>
        </linearGradient>
        <linearGradient id="paint6_linear" x1="139.98" x2="139.44" y1="73.68" y2="115.9" gradientUnits="userSpaceOnUse">
            <stop stop-color="#fff"/>
            <stop offset="1" stop-color="#fff"/>
        </linearGradient>
        <linearGradient id="paint7_linear" x1="176.43" x2="175.9" y1="77.51" y2="119.73" gradientUnits="userSpaceOnUse">
            <stop stop-color="#fff"/>
            <stop offset="1" stop-color="#fff"/>
        </linearGradient>
        <linearGradient id="paint8_linear" x1="103.52" x2="102.99" y1="69.84" y2="112.06" gradientUnits="userSpaceOnUse">
            <stop stop-color="#fff"/>
            <stop offset="1" stop-color="#fff"/>
        </linearGradient>
        <linearGradient id="paint9_linear" x1="26.42" x2="38.17" y1="81.94" y2="46.3" gradientUnits="userSpaceOnUse">
            <stop stop-color="#F4D156"/>
            <stop offset="1" stop-color="#E09707"/>
        </linearGradient>
        <linearGradient id="paint10_linear" x1="196.4" x2="192.31" y1="99.7" y2="62.39" gradientUnits="userSpaceOnUse">
            <stop stop-color="#F4D156"/>
            <stop offset="1" stop-color="#E09707"/>
        </linearGradient>
        <linearGradient id="paint11_linear" x1="27.06" x2="31.15" y1="74.87" y2="112.17" gradientUnits="userSpaceOnUse">
            <stop stop-color="#F4D156"/>
            <stop offset="1" stop-color="#E09707"/>
        </linearGradient>
        <linearGradient id="paint12_linear" x1="197.24" x2="185.5" y1="92.64" y2="128.28" gradientUnits="userSpaceOnUse">
            <stop stop-color="#F4D156"/>
            <stop offset="1" stop-color="#E09707"/>
        </linearGradient>
        <linearGradient id="paint13_linear" x1="105.37" x2="126.59" y1="21.51" y2="6.48" gradientUnits="userSpaceOnUse">
            <stop stop-color="#F4D156"/>
            <stop offset="1" stop-color="#E09707"/>
        </linearGradient>
    </defs>
</svg>
