<svg width="693" height="388" fill="none" xmlns="http://www.w3.org/2000/svg"><g clip-path="url(#clip0)"><path d="M505.4 35.8c-98.5 76.6-201.5 0-255.8 76.6-77 108.6 62.3 259.7 261.3 219.2 226.6-90.8 207.1-437.4-5.5-295.8z" fill="url(#paint0_linear)" fill-opacity=".1"/><path d="M26.6 327.7c18.5 12.2 81.2 46.9 29.3 46.9-15.8 0-50.2 3.9-55.5-12.3-2.2-6.6 6.1-14 9.7-13.1-13-21.5 5.4-28.7 16.5-21.5z" fill="url(#paint1_linear)"/><path d="M56.6 323.5c21.8-11 23.2 49.7 3.6 50.5-40.8 1.6-48.4-49.8-29.1-45.2-6.7-24 18.9-29.1 25.5-5.3z" fill="url(#paint2_linear)"/><path d="M94.2 326.4c33.4-22.2 35.7 41.5-9.5 47.8-23.6 3.3-43.2-3.7-47.5-15.3-4.3-11.5 4-21.4 12.4-22.2 0 0-9-28.2 9.9-33.4 18.9-5.1 27 5.3 34.7 23z" fill="url(#paint3_linear)"/><path d="M82 171h561v204H82V171z" fill="#1E2B99"/><path d="M88 140.5a10 10 0 019.7-7.5H232a10 10 0 0110 10v56a10 10 0 01-10 10H83a10 10 0 01-9.7-12.5l14.7-56z" fill="url(#paint4_linear)"/><path opacity=".1" d="M185 133h26l-15 76h-26l15-76z" fill="url(#paint5_linear)"/><path opacity=".6" d="M116 133h26l-21 76H95l21-76z" fill="url(#paint6_linear)"/><path opacity=".2" d="M142 133h24l-19 76h-26l21-76z" fill="url(#paint7_linear)"/><path d="M647 140.5a10 10 0 00-9.7-7.5H503a10 10 0 00-10 10v56a10 10 0 0010 10h149a10 10 0 009.7-12.5l-14.7-56z" fill="url(#paint8_linear)"/><path opacity=".1" d="M550 133h-26l15 76h26l-15-76z" fill="url(#paint9_linear)"/><path opacity=".6" d="M619 133h-26l21 76h26l-21-76z" fill="url(#paint10_linear)"/><path opacity=".2" d="M593 133h-24l19 76h26l-21-76z" fill="url(#paint11_linear)"/><path fill="url(#paint12_linear)" d="M539 133h61v76h-61z"/><path fill="url(#paint13_linear)" d="M196 116h349v259H196z"/><rect x="225" y="197" width="80" height="155" rx="2" fill="url(#paint14_linear)"/><rect x="233" y="205" width="30" height="40" rx="4" fill="url(#paint15_linear)"/><rect x="233" y="249" width="30" height="40" rx="4" fill="url(#paint16_linear)"/><rect x="267" y="205" width="30" height="40" rx="4" fill="url(#paint17_linear)"/><rect x="267" y="249" width="30" height="40" rx="4" fill="url(#paint18_linear)"/><rect x="209" y="365" width="112" height="12" rx="2" fill="url(#paint19_linear)"/><rect x="221" y="341" width="88" height="12" rx="2" fill="url(#paint20_linear)"/><rect x="215" y="353" width="100" height="12" rx="2" fill="url(#paint21_linear)"/><ellipse cx="295.5" cy="291.4" rx="4" ry="4.1" fill="url(#paint22_linear)"/><path d="M259.1 246.3l6.3-10.1 8.4 14.2" stroke="#FFE68D" stroke-width="1.1" stroke-linejoin="round"/><rect width="30" height="14" rx="2" transform="matrix(.9848 .17365 -.16847 .9857 251 243)" fill="url(#paint23_linear)"/><path d="M206.2 65h328.6l22.2 59H184l22.2-59z" fill="url(#paint24_linear)"/><path d="M184 124h37v15.8c0 6.2-5 11.2-11.2 11.2h-14.6c-6.2 0-11.2-5-11.2-11.2V124z" fill="url(#paint25_linear)"/><path d="M221 124h38v15.8c0 6.2-5 11.2-11.2 11.2h-15.6c-6.2 0-11.2-5-11.2-11.2V124z" fill="url(#paint26_linear)"/><path d="M259 124h37v15.8c0 6.2-5 11.2-11.2 11.2h-14.6c-6.2 0-11.2-5-11.2-11.2V124z" fill="url(#paint27_linear)"/><path d="M371 124h37v15.8c0 6.2-5 11.2-11.2 11.2h-14.6c-6.2 0-11.2-5-11.2-11.2V124z" fill="url(#paint28_linear)"/><path d="M296 124h37v15.8c0 6.2-5 11.2-11.2 11.2h-14.6c-6.2 0-11.2-5-11.2-11.2V124z" fill="url(#paint29_linear)"/><path d="M408 124h37v15.8c0 6.2-5 11.2-11.2 11.2h-14.6c-6.2 0-11.2-5-11.2-11.2V124z" fill="url(#paint30_linear)"/><path d="M333 124h38v15.8c0 6.2-5 11.2-11.2 11.2h-15.6c-6.2 0-11.2-5-11.2-11.2V124z" fill="url(#paint31_linear)"/><path d="M445 124h38v15.8c0 6.2-5 11.2-11.2 11.2h-15.6c-6.2 0-11.2-5-11.2-11.2V124z" fill="url(#paint32_linear)"/><path d="M483 124h37v15.8c0 6.2-5 11.2-11.2 11.2h-14.6c-6.2 0-11.2-5-11.2-11.2V124z" fill="url(#paint33_linear)"/><path d="M520 124h37v15.8c0 6.2-5 11.2-11.2 11.2h-14.6c-6.2 0-11.2-5-11.2-11.2V124z" fill="url(#paint34_linear)"/><rect x="182" y="124" width="377" height="3" rx="1.5" fill="url(#paint35_linear)"/><rect x="202" y="65" width="337" height="3" rx="1.5" fill="url(#paint36_linear)"/><path d="M107 256a30 30 0 0130-30h4a30 30 0 0130 30v119h-64V256z" fill="url(#paint37_linear)"/><rect x="113" y="260" width="24" height="51" rx="4" fill="url(#paint38_linear)"/><rect x="141" y="260" width="24" height="51" rx="4" fill="url(#paint39_linear)"/><path d="M139 232c18 0 23.6 13 25.3 19.8.5 2.3-1.3 4.2-3.6 4.2h-43.4c-2.3 0-4.1-2-3.6-4.2C115.4 245 121 232 139 232z" fill="url(#paint40_linear)"/><rect x="114" y="317" width="51" height="50" rx="4" fill="url(#paint41_linear)"/><rect x="73" y="360" width="123" height="15" rx="2" fill="url(#paint42_linear)"/><rect x="338" y="181" width="190" height="152" rx="10" fill="url(#paint43_linear)"/><rect x="344" y="187" width="55" height="140" rx="10" fill="url(#paint44_linear)"/><rect x="405" y="187" width="56" height="140" rx="10" fill="url(#paint45_linear)"/><rect x="467" y="187" width="55" height="140" rx="10" fill="url(#paint46_linear)"/><path d="M404.5 298.5c-7.2-1.6-12.8 4.7-11 10-3.7-2.8-10 8.5 5 12 17 3 21-12.5 11-10.5 2-1.5 2.2-9.9-5-11.5z" fill="url(#paint47_linear)"/><path d="M332 323h202l-9.4 56.7a4 4 0 01-4 3.3H345.4a4 4 0 01-4-3.3L332 323z" fill="url(#paint48_linear)"/><path d="M446.5 306c-1.5 4.5-1.2 18 12 16h38c0-5.3-1.3-17.2-6.5-22-5.2-4.8-11.7 2-14.5 6-1.5-5-7-9-11-10 0 0-6 1.5-6 14-1.5-4-7-5.5-12-4z" fill="url(#paint49_linear)"/><path d="M504.6 290.4c-11.4 6.3-11.5 25.3-5.7 38.4l28.5-1.4c7.7-4.8 11-20.3 2-19.5 4.3-11.8-6.3-14.9-11.5-8.2 1.6-7-5.2-13.7-13.3-9.3z" fill="url(#paint50_linear)"/><path d="M503.4 310.4c15.6-3.3 13.9 16.3-4.1 21-10 2.7-17.7.3-19.6-4.7-3.5-9.6 7-25.4 16-27.8 8.2-2.3 10.8 5.4 7.7 11.5z" fill="url(#paint51_linear)"/><path d="M339.5 286c-7.2 3-7.7 13.3-2 18.5-13.5-2-11 18 5 16h52c5.5-11.5-7-32-19-17 2-11.5-11-22.5-22.5-10.5 0-3.7-6.5-10-13.5-7z" fill="url(#paint52_linear)"/><path d="M372.8 321h21c11.6-6.5 7.5-18.1 0-15.8 4-8.8-6.5-19-11.1-7.8-4.1-8.2-17.4-1.9-14 11.3-9.6-3.7-6.2 13.6 4 12.2z" fill="url(#paint53_linear)"/><rect x="332" y="318" width="202" height="18" rx="4" fill="url(#paint54_linear)"/><circle cx="163" cy="309" r="5" fill="url(#paint55_linear)"/><path d="M567 236a10 10 0 0110-10h44a10 10 0 0110 10v139h-64V236z" fill="url(#paint56_linear)"/><rect x="573" y="260" width="24" height="38" rx="4" fill="url(#paint57_linear)"/><rect x="601" y="260" width="24" height="38" rx="4" fill="url(#paint58_linear)"/><path d="M573 237.5a4 4 0 014-4h44a4 4 0 014 4V252a4 4 0 01-4 4h-44a4 4 0 01-4-4v-14.5z" fill="url(#paint59_linear)"/><rect x="573" y="316" width="52" height="53" rx="4" fill="url(#paint60_linear)"/><circle cx="623" cy="308" r="4" fill="url(#paint61_linear)"/><path d="M563 188a4 4 0 014-4h72a4 4 0 014 4v22a4 4 0 01-4 4h-72a4 4 0 01-4-4v-22z" fill="url(#paint62_linear)"/><path d="M559 182c0-1.1.9-2 2-2h76a2 2 0 012 2v26a2 2 0 01-2 2h-76a2 2 0 01-2-2v-26z" fill="url(#paint63_linear)"/><path d="M99 197c0-1.1.9-2 2-2h76a2 2 0 012 2v20a2 2 0 01-2 2h-76a2 2 0 01-2-2v-20z" fill="url(#paint64_linear)"/><path d="M563 186c0-1.1.9-2 2-2h68a2 2 0 012 2v18a2 2 0 01-2 2h-68a2 2 0 01-2-2v-18z" fill="url(#paint65_linear)"/><path d="M103 201c0-1.1.9-2 2-2h68a2 2 0 012 2v12a2 2 0 01-2 2h-68a2 2 0 01-2-2v-12z" fill="url(#paint66_linear)"/><path d="M229 173c0-1.1.9-2 2-2h68a2 2 0 012 2v12a2 2 0 01-2 2h-68a2 2 0 01-2-2v-12z" fill="url(#paint67_linear)"/><path fill="url(#paint68_linear)" d="M660 301h8v48h-8z"/><path d="M682.5 339.3c8-1.7 7.2 8.6-2 11.1-5.3 1.4-9.2.2-10.1-2.5-1.9-5 3.6-13.4 8.2-14.7 4.2-1.2 5.5 2.9 4 6.1z" fill="url(#paint69_linear)"/><path d="M672.5 341.3c8-1.7 7.2 8.6-2 11.1-5.3 1.4-10.5-6.7-11.5-9.4-1.7-5 5-7.3 7-4.5 1.5-5.5 10-4.2 6.5 2.8z" fill="url(#paint70_linear)"/><path d="M638.2 344.2a2 2 0 012-2.2h47.6c1.2 0 2.1 1 2 2.2l-3.6 42c-.1 1-1 1.8-2 1.8h-40.4a2 2 0 01-2-1.8l-3.6-42z" fill="url(#paint71_linear)"/><path d="M642 274.5c-14.4-2.1-13.2 25.4 3.8 23.2-3.2 21.4 25.3 24.6 30.6 6.4 16.5 2.7 24-19.7 7-26.1 18-14-7-36.5-17-18.2-10.4-20.3-37.9-3.8-24.4 14.7z" fill="url(#paint72_linear)"/><path d="M659.9 283.5c0-11.5-18.5-6.8-12.7 6.2-23.7 9.3-1.7 36.8 12.7 16.9 5.8 8.4 18.7-4 10.6-9.6 8.7-2.8 2.8-22.6-10.6-13.5z" fill="url(#paint73_linear)"/></g><defs><linearGradient id="paint0_linear" x1="-682.4" y1="836.5" x2="-796.9" y2="-155.2" gradientUnits="userSpaceOnUse"><stop stop-color="#1E2B99"/><stop offset="1" stop-color="#7C8AFF"/></linearGradient><linearGradient id="paint1_linear" x1=".5" y1="316.9" x2="28" y2="371.9" gradientUnits="userSpaceOnUse"><stop stop-color="#5FBA35"/><stop offset="1" stop-color="#298212"/></linearGradient><linearGradient id="paint2_linear" x1="20.6" y1="294.7" x2="49" y2="353.6" gradientUnits="userSpaceOnUse"><stop stop-color="#93D872"/><stop offset="1" stop-color="#44A92A"/></linearGradient><linearGradient id="paint3_linear" x1="99.3" y1="301.4" x2="86.5" y2="356.8" gradientUnits="userSpaceOnUse"><stop stop-color="#5FBA35"/><stop offset="1" stop-color="#298212"/></linearGradient><linearGradient id="paint4_linear" x1="242" y1="233.5" x2="91.9" y2="262" gradientUnits="userSpaceOnUse"><stop stop-color="#1E2B99"/><stop offset="1" stop-color="#7C8AFF"/></linearGradient><linearGradient id="paint5_linear" x1="170" y1="222" x2="234" y2="160.5" gradientUnits="userSpaceOnUse"><stop stop-color="#B8C0FF"/><stop offset="1" stop-color="#7C8AFF"/></linearGradient><linearGradient id="paint6_linear" x1="95" y1="222" x2="159" y2="160.5" gradientUnits="userSpaceOnUse"><stop stop-color="#B8C0FF"/><stop offset="1" stop-color="#7C8AFF"/></linearGradient><linearGradient id="paint7_linear" x1="121" y1="222" x2="185" y2="160.5" gradientUnits="userSpaceOnUse"><stop stop-color="#B8C0FF"/><stop offset="1" stop-color="#7C8AFF"/></linearGradient><linearGradient id="paint8_linear" x1="493" y1="233.5" x2="643.1" y2="262" gradientUnits="userSpaceOnUse"><stop stop-color="#1E2B99"/><stop offset="1" stop-color="#7C8AFF"/></linearGradient><linearGradient id="paint9_linear" x1="565" y1="222" x2="501" y2="160.5" gradientUnits="userSpaceOnUse"><stop stop-color="#B8C0FF"/><stop offset="1" stop-color="#7C8AFF"/></linearGradient><linearGradient id="paint10_linear" x1="640" y1="222" x2="576" y2="160.5" gradientUnits="userSpaceOnUse"><stop stop-color="#B8C0FF"/><stop offset="1" stop-color="#7C8AFF"/></linearGradient><linearGradient id="paint11_linear" x1="614" y1="222" x2="550" y2="160.5" gradientUnits="userSpaceOnUse"><stop stop-color="#B8C0FF"/><stop offset="1" stop-color="#7C8AFF"/></linearGradient><linearGradient id="paint12_linear" x1="539" y1="173.5" x2="595.5" y2="174.6" gradientUnits="userSpaceOnUse"><stop stop-color="#1E2B99" stop-opacity=".8"/><stop offset="1" stop-color="#1E2B99" stop-opacity="0"/></linearGradient><linearGradient id="paint13_linear" x1="440.7" y1="1013.9" x2="-323.3" y2="484.7" gradientUnits="userSpaceOnUse"><stop stop-color="#1E2B99"/><stop offset="1" stop-color="#7C8AFF"/></linearGradient><linearGradient id="paint14_linear" x1="271" y1="203" x2="273.5" y2="359.5" gradientUnits="userSpaceOnUse"><stop stop-color="#313EAE"/><stop offset="1" stop-color="#3F4CBC"/></linearGradient><linearGradient id="paint15_linear" x1="236.8" y1="286" x2="294.6" y2="230.5" gradientUnits="userSpaceOnUse"><stop stop-color="#8C98FF"/><stop offset="1" stop-color="#5263E9"/></linearGradient><linearGradient id="paint16_linear" x1="236.8" y1="330" x2="294.6" y2="274.5" gradientUnits="userSpaceOnUse"><stop stop-color="#8C98FF"/><stop offset="1" stop-color="#5263E9"/></linearGradient><linearGradient id="paint17_linear" x1="270.8" y1="286" x2="328.6" y2="230.5" gradientUnits="userSpaceOnUse"><stop stop-color="#8C98FF"/><stop offset="1" stop-color="#5263E9"/></linearGradient><linearGradient id="paint18_linear" x1="270.8" y1="330" x2="328.6" y2="274.5" gradientUnits="userSpaceOnUse"><stop stop-color="#8C98FF"/><stop offset="1" stop-color="#5263E9"/></linearGradient><linearGradient id="paint19_linear" x1="265" y1="365" x2="265" y2="387.5" gradientUnits="userSpaceOnUse"><stop stop-color="#D5D9FF"/><stop offset="1" stop-color="#A2ABFB"/></linearGradient><linearGradient id="paint20_linear" x1="265" y1="341" x2="265" y2="363.5" gradientUnits="userSpaceOnUse"><stop stop-color="#D5D9FF"/><stop offset="1" stop-color="#A2ABFB"/></linearGradient><linearGradient id="paint21_linear" x1="265" y1="353" x2="265" y2="375.5" gradientUnits="userSpaceOnUse"><stop stop-color="#D5D9FF"/><stop offset="1" stop-color="#A2ABFB"/></linearGradient><linearGradient id="paint22_linear" x1="295.5" y1="287.3" x2="295.5" y2="295.5" gradientUnits="userSpaceOnUse"><stop stop-color="#FFE794"/><stop offset="1" stop-color="#F4D156"/></linearGradient><linearGradient id="paint23_linear" x1="18.8" y1="0" x2="29" y2="14.9" gradientUnits="userSpaceOnUse"><stop stop-color="#FFE68D"/><stop offset="1" stop-color="#FFBC3A"/></linearGradient><linearGradient id="paint24_linear" x1="445.5" y1="269.5" x2="341" y2="-70.1" gradientUnits="userSpaceOnUse"><stop stop-color="#1E2B99"/><stop offset="1" stop-color="#7C8AFF"/></linearGradient><linearGradient id="paint25_linear" x1="184" y1="128.1" x2="195.7" y2="161" gradientUnits="userSpaceOnUse"><stop stop-color="#2838BE"/><stop offset="1" stop-color="#1E2B99"/></linearGradient><linearGradient id="paint26_linear" x1="221" y1="128.1" x2="232.4" y2="161.1" gradientUnits="userSpaceOnUse"><stop stop-color="#2838BE"/><stop offset="1" stop-color="#1E2B99"/></linearGradient><linearGradient id="paint27_linear" x1="259" y1="128.1" x2="270.7" y2="161" gradientUnits="userSpaceOnUse"><stop stop-color="#2838BE"/><stop offset="1" stop-color="#1E2B99"/></linearGradient><linearGradient id="paint28_linear" x1="371" y1="128.1" x2="382.7" y2="161" gradientUnits="userSpaceOnUse"><stop stop-color="#2838BE"/><stop offset="1" stop-color="#1E2B99"/></linearGradient><linearGradient id="paint29_linear" x1="296" y1="128.1" x2="307.7" y2="161" gradientUnits="userSpaceOnUse"><stop stop-color="#2838BE"/><stop offset="1" stop-color="#1E2B99"/></linearGradient><linearGradient id="paint30_linear" x1="408" y1="128.1" x2="419.7" y2="161" gradientUnits="userSpaceOnUse"><stop stop-color="#2838BE"/><stop offset="1" stop-color="#1E2B99"/></linearGradient><linearGradient id="paint31_linear" x1="333" y1="128.1" x2="344.4" y2="161.1" gradientUnits="userSpaceOnUse"><stop stop-color="#2838BE"/><stop offset="1" stop-color="#1E2B99"/></linearGradient><linearGradient id="paint32_linear" x1="445" y1="128.1" x2="456.4" y2="161.1" gradientUnits="userSpaceOnUse"><stop stop-color="#2838BE"/><stop offset="1" stop-color="#1E2B99"/></linearGradient><linearGradient id="paint33_linear" x1="483" y1="128.1" x2="494.7" y2="161" gradientUnits="userSpaceOnUse"><stop stop-color="#2838BE"/><stop offset="1" stop-color="#1E2B99"/></linearGradient><linearGradient id="paint34_linear" x1="520" y1="128.1" x2="531.7" y2="161" gradientUnits="userSpaceOnUse"><stop stop-color="#2838BE"/><stop offset="1" stop-color="#1E2B99"/></linearGradient><linearGradient id="paint35_linear" x1="230.3" y1="130.1" x2="230.4" y2="121.4" gradientUnits="userSpaceOnUse"><stop stop-color="#fff"/><stop offset="1" stop-color="#7C8AFF"/></linearGradient><linearGradient id="paint36_linear" x1="245.2" y1="71.1" x2="245.3" y2="62.4" gradientUnits="userSpaceOnUse"><stop stop-color="#fff"/><stop offset="1" stop-color="#7C8AFF"/></linearGradient><linearGradient id="paint37_linear" x1="155" y1="436.9" x2="14.2" y2="264" gradientUnits="userSpaceOnUse"><stop stop-color="#1E2B99"/><stop offset="1" stop-color="#7C8AFF"/></linearGradient><linearGradient id="paint38_linear" x1="116.1" y1="363.3" x2="181.2" y2="324" gradientUnits="userSpaceOnUse"><stop stop-color="#fff"/><stop offset="1" stop-color="#7C8AFF"/></linearGradient><linearGradient id="paint39_linear" x1="144.1" y1="363.3" x2="209.2" y2="324" gradientUnits="userSpaceOnUse"><stop stop-color="#fff"/><stop offset="1" stop-color="#7C8AFF"/></linearGradient><linearGradient id="paint40_linear" x1="119.7" y1="280.6" x2="141.8" y2="219.3" gradientUnits="userSpaceOnUse"><stop stop-color="#fff"/><stop offset="1" stop-color="#7C8AFF"/></linearGradient><linearGradient id="paint41_linear" x1="139.5" y1="317" x2="139.5" y2="367" gradientUnits="userSpaceOnUse"><stop stop-color="#1E2B99" stop-opacity=".4"/><stop offset="1" stop-color="#1E2B99" stop-opacity="0"/></linearGradient><linearGradient id="paint42_linear" x1="196" y1="379.8" x2="120.6" y2="431.8" gradientUnits="userSpaceOnUse"><stop stop-color="#1E2B99"/><stop offset="1" stop-color="#7C8AFF"/></linearGradient><linearGradient id="paint43_linear" x1="456.5" y1="333" x2="458.5" y2="186.5" gradientUnits="userSpaceOnUse"><stop stop-color="#6875E1"/><stop offset="1" stop-color="#7C8AFF"/></linearGradient><linearGradient id="paint44_linear" x1="351.1" y1="470.6" x2="513.4" y2="388.8" gradientUnits="userSpaceOnUse"><stop stop-color="#fff"/><stop offset="1" stop-color="#7C8AFF"/></linearGradient><linearGradient id="paint45_linear" x1="412.2" y1="470.6" x2="576.3" y2="386.4" gradientUnits="userSpaceOnUse"><stop stop-color="#fff"/><stop offset="1" stop-color="#7C8AFF"/></linearGradient><linearGradient id="paint46_linear" x1="474.1" y1="470.6" x2="636.4" y2="388.8" gradientUnits="userSpaceOnUse"><stop stop-color="#fff"/><stop offset="1" stop-color="#7C8AFF"/></linearGradient><linearGradient id="paint47_linear" x1="412" y1="298" x2="402" y2="310" gradientUnits="userSpaceOnUse"><stop stop-color="#5FBA35"/><stop offset="1" stop-color="#298212"/></linearGradient><linearGradient id="paint48_linear" x1="433" y1="331.7" x2="433" y2="396.9" gradientUnits="userSpaceOnUse"><stop stop-color="#3F4DBD"/><stop offset="1" stop-color="#A8B1FF"/></linearGradient><linearGradient id="paint49_linear" x1="484" y1="299" x2="482.1" y2="316.6" gradientUnits="userSpaceOnUse"><stop stop-color="#5FBA35"/><stop offset="1" stop-color="#298212"/></linearGradient><linearGradient id="paint50_linear" x1="526.2" y1="283.1" x2="517.8" y2="316.3" gradientUnits="userSpaceOnUse"><stop stop-color="#5FBA35"/><stop offset="1" stop-color="#298212"/></linearGradient><linearGradient id="paint51_linear" x1="490" y1="301" x2="498.5" y2="329.2" gradientUnits="userSpaceOnUse"><stop stop-color="#5FBA35"/><stop offset="1" stop-color="#298212"/></linearGradient><linearGradient id="paint52_linear" x1="381.2" y1="274.5" x2="343.5" y2="301.7" gradientUnits="userSpaceOnUse"><stop stop-color="#5FBA35"/><stop offset="1" stop-color="#33971A"/></linearGradient><linearGradient id="paint53_linear" x1="375" y1="295" x2="372.9" y2="319.6" gradientUnits="userSpaceOnUse"><stop stop-color="#6CC940"/><stop offset="1" stop-color="#298212"/></linearGradient><linearGradient id="paint54_linear" x1="486.8" y1="343.5" x2="485.9" y2="312" gradientUnits="userSpaceOnUse"><stop stop-color="#3F4DBD"/><stop offset="1" stop-color="#A8B1FF"/></linearGradient><linearGradient id="paint55_linear" x1="163" y1="304" x2="163" y2="314" gradientUnits="userSpaceOnUse"><stop stop-color="#FFE794"/><stop offset="1" stop-color="#F4D156"/></linearGradient><linearGradient id="paint56_linear" x1="615" y1="436.9" x2="474.2" y2="264" gradientUnits="userSpaceOnUse"><stop stop-color="#1E2B99"/><stop offset="1" stop-color="#7C8AFF"/></linearGradient><linearGradient id="paint57_linear" x1="576.1" y1="337" x2="629.7" y2="293.5" gradientUnits="userSpaceOnUse"><stop stop-color="#fff"/><stop offset="1" stop-color="#7C8AFF"/></linearGradient><linearGradient id="paint58_linear" x1="604.1" y1="337" x2="657.7" y2="293.5" gradientUnits="userSpaceOnUse"><stop stop-color="#fff"/><stop offset="1" stop-color="#7C8AFF"/></linearGradient><linearGradient id="paint59_linear" x1="579.7" y1="280.6" x2="601.8" y2="219.3" gradientUnits="userSpaceOnUse"><stop stop-color="#fff"/><stop offset="1" stop-color="#7C8AFF"/></linearGradient><linearGradient id="paint60_linear" x1="599" y1="316" x2="599" y2="369" gradientUnits="userSpaceOnUse"><stop stop-color="#1E2B99" stop-opacity=".4"/><stop offset="1" stop-color="#1E2B99" stop-opacity="0"/></linearGradient><linearGradient id="paint61_linear" x1="629.6" y1="325.5" x2="614.7" y2="318.2" gradientUnits="userSpaceOnUse"><stop stop-color="#FFE68D"/><stop offset="1" stop-color="#FFBC3A"/></linearGradient><linearGradient id="paint62_linear" x1="641.5" y1="209" x2="559" y2="168.4" gradientUnits="userSpaceOnUse"><stop stop-color="#1E2B99" stop-opacity=".2"/><stop offset="1" stop-color="#1E2B99" stop-opacity="0"/></linearGradient><linearGradient id="paint63_linear" x1="665" y1="260.5" x2="596.5" y2="171.5" gradientUnits="userSpaceOnUse"><stop stop-color="#FFE68D"/><stop offset="1" stop-color="#FFBC3A"/></linearGradient><linearGradient id="paint64_linear" x1="205" y1="259.4" x2="154.4" y2="177.2" gradientUnits="userSpaceOnUse"><stop stop-color="#FFE68D"/><stop offset="1" stop-color="#FFBC3A"/></linearGradient><linearGradient id="paint65_linear" x1="572.2" y1="228.6" x2="586.6" y2="168.4" gradientUnits="userSpaceOnUse"><stop stop-color="#6876F1"/><stop offset="1" stop-color="#4A59D6"/></linearGradient><linearGradient id="paint66_linear" x1="112.2" y1="231.4" x2="120" y2="186.6" gradientUnits="userSpaceOnUse"><stop stop-color="#6876F1"/><stop offset="1" stop-color="#4A59D6"/></linearGradient><linearGradient id="paint67_linear" x1="274" y1="171" x2="281.4" y2="193.6" gradientUnits="userSpaceOnUse"><stop stop-color="#FFE68D"/><stop offset="1" stop-color="#FFBC3A"/></linearGradient><linearGradient id="paint68_linear" x1="648.1" y1="301" x2="669.1" y2="301.1" gradientUnits="userSpaceOnUse"><stop stop-color="#F4D156"/><stop offset="1" stop-color="#E09707"/></linearGradient><linearGradient id="paint69_linear" x1="683.5" y1="335.1" x2="675.5" y2="342" gradientUnits="userSpaceOnUse"><stop stop-color="#5FBA35"/><stop offset="1" stop-color="#298212"/></linearGradient><linearGradient id="paint70_linear" x1="665.7" y1="336.3" x2="670.3" y2="351.1" gradientUnits="userSpaceOnUse"><stop stop-color="#5FBA35"/><stop offset="1" stop-color="#298212"/></linearGradient><linearGradient id="paint71_linear" x1="706.9" y1="465.4" x2="615.1" y2="414.9" gradientUnits="userSpaceOnUse"><stop stop-color="#FFE68D"/><stop offset="1" stop-color="#FFBC3A"/></linearGradient><linearGradient id="paint72_linear" x1="690.2" y1="243.5" x2="652" y2="295.5" gradientUnits="userSpaceOnUse"><stop stop-color="#5FBA35"/><stop offset="1" stop-color="#33971A"/></linearGradient><linearGradient id="paint73_linear" x1="657" y1="272.2" x2="670.2" y2="307.4" gradientUnits="userSpaceOnUse"><stop stop-color="#5FBA35"/><stop offset="1" stop-color="#33971A"/></linearGradient><clipPath id="clip0"><path fill="#fff" d="M0 0h693v388H0z"/></clipPath></defs></svg>
