<svg width="706" height="518" fill="none" xmlns="http://www.w3.org/2000/svg"><path opacity=".6" d="M510.383 25.824c66.715-85.265 211.24 52 129.725 245.001-61.233 144.98-389 148-401.5 0-11.134-131.838 132.5-67.001 271.775-245.001z" fill="#1E2B99" fill-opacity=".06"/><path fill="#1E2B99" d="M164.547 124.935h438.049v316.124H164.547z"/><path fill="url(#paint0_linear)" d="M229.031 206.224h122.298v234.835H229.031z"/><rect x="246.819" y="224.288" width="86.72" height="133.224" rx="6.716" fill="url(#paint1_linear)"/><path fill="url(#paint2_linear)" d="M206.795 436.542h166.77v27.096h-166.77z"/><path fill="url(#paint3_linear)" d="M220.137 409.446h140.087v27.096H220.137z"/><ellipse cx="336.32" cy="318.561" rx="6.115" ry="6.21" fill="url(#paint4_linear)"/><path fill="url(#paint5_linear)" d="M394.689 206.224H580.36V324.77H394.689z"/><path fill="url(#paint6_linear)" d="M403.584 206.224h166.77v100.482h-166.77z"/><path d="M394.689 206.224H580.36l11.118 24.838H383.571l11.118-24.838z" fill="url(#paint7_linear)"/><path d="M383.571 231.062h21.124v7.502c0 5.833-4.728 10.562-10.562 10.562-5.833 0-10.562-4.729-10.562-10.562v-7.502z" fill="url(#paint8_linear)"/><path d="M466.956 231.062h21.124v7.502c0 5.833-4.729 10.562-10.562 10.562-5.833 0-10.562-4.729-10.562-10.562v-7.502z" fill="url(#paint9_linear)"/><path d="M404.695 231.062h20.013v8.058c0 5.526-4.48 10.006-10.006 10.006-5.527 0-10.007-4.48-10.007-10.006v-8.058z" fill="url(#paint10_linear)"/><path d="M488.08 231.062h20.012v8.058c0 5.526-4.479 10.006-10.006 10.006-5.526 0-10.006-4.48-10.006-10.006v-8.058z" fill="url(#paint11_linear)"/><path d="M424.708 231.062h21.124v7.502c0 5.833-4.729 10.562-10.562 10.562-5.833 0-10.562-4.729-10.562-10.562v-7.502z" fill="url(#paint12_linear)"/><path d="M508.093 231.062h21.124v7.502c0 5.833-4.729 10.562-10.562 10.562-5.833 0-10.562-4.729-10.562-10.562v-7.502z" fill="url(#paint13_linear)"/><path d="M550.342 231.062h20.012v8.058c0 5.526-4.48 10.006-10.006 10.006s-10.006-4.48-10.006-10.006v-8.058z" fill="url(#paint14_linear)"/><path d="M445.832 231.062h21.124v7.502c0 5.833-4.729 10.562-10.562 10.562-5.833 0-10.562-4.729-10.562-10.562v-7.502z" fill="url(#paint15_linear)"/><path d="M529.217 231.062h21.124v7.502c0 5.833-4.729 10.562-10.562 10.562-5.833 0-10.562-4.729-10.562-10.562v-7.502z" fill="url(#paint16_linear)"/><path d="M570.354 231.062h21.124v7.502c0 5.833-4.729 10.562-10.562 10.562-5.834 0-10.562-4.729-10.562-10.562v-7.502z" fill="url(#paint17_linear)"/><path opacity=".4" d="M410.255 206.224h18.9l-5.559 24.838h-20.012l6.671-24.838z" fill="url(#paint18_linear)" fill-opacity=".6"/><path opacity=".4" d="M470.291 206.224h17.789v24.838h-21.124l3.335-24.838z" fill="url(#paint19_linear)" fill-opacity=".6"/><path opacity=".4" d="M450.279 206.224h20.013l-3.336 24.838h-21.124l4.447-24.838z" fill="url(#paint20_linear)" fill-opacity=".6"/><path opacity=".6" d="M563.683 206.224H543.67l6.671 24.838h20.013l-6.671-24.838z" fill="url(#paint21_linear)" fill-opacity=".6"/><path opacity=".6" d="M525.881 206.224h-20.012l2.224 24.838h21.124l-3.336-24.838z" fill="url(#paint22_linear)" fill-opacity=".6"/><path d="M423.249 306.49c8.741 8.12 5.883 17.533 3.362 21.225-3.923.922-12.86 1.015-17.231-5.999-4.371-7.013-4.903-20.456-4.623-26.3 2.522.307 9.75 2.953 18.492 11.074z" fill="url(#paint23_linear)"/><path d="M431.802 304.962c-5.563 7.001-3.744 15.115-2.14 18.298 2.496.795 8.184.875 10.965-5.171 2.782-6.047 3.12-17.635 2.942-22.673-1.605.265-6.205 2.545-11.767 9.546z" fill="url(#paint24_linear)"/><path d="M574.112 308.349c-5.562 7.001-3.744 15.115-2.139 18.298 2.496.795 8.183.875 10.965-5.171 2.781-6.047 3.12-17.635 2.942-22.673-1.605.265-6.205 2.545-11.768 9.546z" fill="url(#paint25_linear)"/><path d="M438.78 312.085c-4.371 5.6-2.942 12.092-1.681 14.638 1.961.636 6.429.7 8.615-4.137 2.185-4.837 2.451-14.108 2.311-18.138-1.261.212-4.875 2.036-9.245 7.637z" fill="url(#paint26_linear)"/><path d="M446.388 315.173c-.901 5.115 1.68 9.004 2.941 11.55 1.961.636 6.429.7 8.615-4.137 2.185-4.837-2.521-18.624-2.661-22.654-1.261.212-7.85 9.318-8.895 15.241z" fill="url(#paint27_linear)"/><path d="M407.57 312.085c3.973 5.6 2.674 12.092 1.528 14.638-1.783.636-5.845.7-7.832-4.137-1.986-4.837-2.228-14.108-2.101-18.138 1.146.212 4.432 2.036 8.405 7.637z" fill="url(#paint28_linear)"/><path d="M417.458 305.298c-1.146 10.309 5.534 17.168 9.017 19.309 2.9-.755 8.458-4.179 7.488-11.836-.97-7.658-7.665-19.261-10.891-24.105-1.394 1.248-4.468 6.323-5.614 16.632z" fill="url(#paint29_linear)"/><path d="M559.769 308.685c-1.146 10.309 5.533 17.168 9.016 19.309 2.9-.755 8.458-4.179 7.489-11.836-.97-7.658-7.665-19.261-10.891-24.105-1.394 1.248-4.468 6.323-5.614 16.632z" fill="url(#paint30_linear)"/><path d="M385.795 319.125h203.459l-2.439 10.527a11.192 11.192 0 01-10.904 8.666H399.138a11.194 11.194 0 01-10.904-8.666l-2.439-10.527z" fill="url(#paint31_linear)"/><path fill-rule="evenodd" clip-rule="evenodd" d="M653.745 336.06H540.341l-21.583 150.139-5.1 28.245h8.895l3.891-23.709h105.065l22.236-154.675z" fill="url(#paint32_linear)"/><path fill-rule="evenodd" clip-rule="evenodd" d="M540.342 336.06h113.403l44.472 154.675h-.149l7.933 27.097h-11.119l-7.932-27.097h-91.559l7.212 27.097h-11.118l-11.118-41.774h.227L540.342 336.06z" fill="url(#paint33_linear)"/><ellipse rx="26.166" ry="33.257" transform="matrix(.94922 -.31463 .30601 .95203 624.275 413.212)" fill="url(#paint34_linear)"/><path fill="url(#paint35_linear)" d="M11.118 76.387h175.664v364.671H11.118z"/><path d="M186.782 115.903h420.261l22.236 50.805H186.782v-50.805z" fill="url(#paint36_linear)"/><path d="M281.286 250.255l9.45-15.241 12.786 21.451" stroke="#FFE68D" stroke-width="1.119" stroke-linejoin="round"/><path d="M44.472 203.907a6.716 6.716 0 016.715-6.715h95.526a6.716 6.716 0 016.715 6.715v134.47a6.716 6.716 0 01-6.715 6.716H51.187a6.716 6.716 0 01-6.715-6.716v-134.47z" fill="url(#paint37_linear)"/><path d="M57.813 217.456a6.716 6.716 0 016.716-6.716h22.147a6.716 6.716 0 016.715 6.716v38.503a6.716 6.716 0 01-6.716 6.716H64.53a6.716 6.716 0 01-6.715-6.716v-38.503z" fill="url(#paint38_linear)"/><path d="M57.813 280.68a6.716 6.716 0 016.716-6.715h22.147a6.716 6.716 0 016.715 6.715v38.504a6.715 6.715 0 01-6.716 6.715H64.53a6.715 6.715 0 01-6.715-6.715V280.68z" fill="url(#paint39_linear)"/><path d="M104.51 217.456a6.715 6.715 0 016.715-6.716h22.147a6.715 6.715 0 016.715 6.716v38.503a6.715 6.715 0 01-6.715 6.716h-22.147a6.715 6.715 0 01-6.715-6.716v-38.503z" fill="url(#paint40_linear)"/><path d="M104.51 280.68a6.715 6.715 0 016.715-6.715h22.147a6.715 6.715 0 016.715 6.715v38.504a6.714 6.714 0 01-6.715 6.715h-22.147a6.714 6.714 0 01-6.715-6.715V280.68z" fill="url(#paint41_linear)"/><path d="M37.8 338.319H160.1l-1.33 9.544a11.192 11.192 0 01-11.085 9.649H50.216a11.193 11.193 0 01-11.086-9.649l-1.33-9.544z" fill="url(#paint42_linear)"/><rect width="42.146" height="20.361" rx="4.477" transform="matrix(.98435 .17625 -.17108 .98526 269.056 245.74)" fill="url(#paint43_linear)"/><path d="M11.118 73h175.664L197.9 131.71H0L11.118 73z" fill="url(#paint44_linear)"/><path d="M0 131.709h40.025v15.904c0 6.181-5.011 11.192-11.193 11.192h-17.64C5.013 158.805 0 153.794 0 147.613v-15.904z" fill="url(#paint45_linear)"/><path d="M40.024 131.709h38.913v15.904c0 6.181-5.01 11.192-11.192 11.192H51.217c-6.181 0-11.193-5.011-11.193-11.192v-15.904z" fill="url(#paint46_linear)"/><path d="M78.938 131.709h40.024v15.904c0 6.181-5.011 11.192-11.192 11.192H90.13c-6.181 0-11.192-5.011-11.192-11.192v-15.904z" fill="url(#paint47_linear)"/><path d="M118.963 131.709h38.913v15.904c0 6.181-5.011 11.192-11.193 11.192h-16.528c-6.181 0-11.192-5.011-11.192-11.192v-15.904z" fill="url(#paint48_linear)"/><path d="M157.876 131.709h40.025v15.904c0 6.181-5.011 11.192-11.193 11.192h-17.639c-6.182 0-11.193-5.011-11.193-11.192v-15.904z" fill="url(#paint49_linear)"/><rect y="131.709" width="197.9" height="3.387" rx="1.694" fill="url(#paint50_linear)"/><path fill="url(#paint51_linear)" d="M186.782 166.708h442.497v9.032H186.782z"/><rect x="11.118" y="73.001" width="175.664" height="3.387" rx="1.694" fill="url(#paint52_linear)"/><defs><linearGradient id="paint0_linear" x1="320.755" y1="538.694" x2="110.912" y2="226.266" gradientUnits="userSpaceOnUse"><stop stop-color="#1E2B99"/><stop offset="1" stop-color="#7C8AFF"/></linearGradient><linearGradient id="paint1_linear" x1="257.937" y1="494.122" x2="447.187" y2="336.238" gradientUnits="userSpaceOnUse"><stop stop-color="#fff"/><stop offset="1" stop-color="#7C8AFF"/></linearGradient><linearGradient id="paint2_linear" x1="290.18" y1="436.542" x2="290.18" y2="487.348" gradientUnits="userSpaceOnUse"><stop stop-color="#D5D9FF"/><stop offset="1" stop-color="#A2ABFB"/></linearGradient><linearGradient id="paint3_linear" x1="290.18" y1="409.446" x2="290.18" y2="460.252" gradientUnits="userSpaceOnUse"><stop stop-color="#D5D9FF"/><stop offset="1" stop-color="#A2ABFB"/></linearGradient><linearGradient id="paint4_linear" x1="336.32" y1="312.351" x2="336.32" y2="324.77" gradientUnits="userSpaceOnUse"><stop stop-color="#FFE794"/><stop offset="1" stop-color="#F4D156"/></linearGradient><linearGradient id="paint5_linear" x1="473.627" y1="157.112" x2="460.647" y2="316.597" gradientUnits="userSpaceOnUse"><stop stop-color="#1E2B99"/><stop offset="1" stop-color="#7C8AFF"/></linearGradient><linearGradient id="paint6_linear" x1="495.863" y1="195.498" x2="459.232" y2="324.165" gradientUnits="userSpaceOnUse"><stop stop-color="#fff"/><stop offset="1" stop-color="#7C8AFF"/></linearGradient><linearGradient id="paint7_linear" x1="383.571" y1="209.972" x2="385.544" y2="243.918" gradientUnits="userSpaceOnUse"><stop stop-color="#1E2B99"/><stop offset="1" stop-color="#6474FF"/></linearGradient><linearGradient id="paint8_linear" x1="383.571" y1="233.787" x2="392.356" y2="254.905" gradientUnits="userSpaceOnUse"><stop stop-color="#2E3BAC"/><stop offset="1" stop-color="#3140C0"/></linearGradient><linearGradient id="paint9_linear" x1="466.956" y1="233.787" x2="475.741" y2="254.905" gradientUnits="userSpaceOnUse"><stop stop-color="#2E3BAC"/><stop offset="1" stop-color="#3140C0"/></linearGradient><linearGradient id="paint10_linear" x1="404.695" y1="233.787" x2="413.814" y2="254.555" gradientUnits="userSpaceOnUse"><stop stop-color="#2E3BAC"/><stop offset="1" stop-color="#3140C0"/></linearGradient><linearGradient id="paint11_linear" x1="488.08" y1="233.787" x2="497.199" y2="254.555" gradientUnits="userSpaceOnUse"><stop stop-color="#2E3BAC"/><stop offset="1" stop-color="#3140C0"/></linearGradient><linearGradient id="paint12_linear" x1="424.708" y1="233.787" x2="433.493" y2="254.905" gradientUnits="userSpaceOnUse"><stop stop-color="#2E3BAC"/><stop offset="1" stop-color="#3140C0"/></linearGradient><linearGradient id="paint13_linear" x1="508.093" y1="233.787" x2="516.877" y2="254.905" gradientUnits="userSpaceOnUse"><stop stop-color="#2E3BAC"/><stop offset="1" stop-color="#3140C0"/></linearGradient><linearGradient id="paint14_linear" x1="550.342" y1="233.787" x2="559.461" y2="254.555" gradientUnits="userSpaceOnUse"><stop stop-color="#2E3BAC"/><stop offset="1" stop-color="#3140C0"/></linearGradient><linearGradient id="paint15_linear" x1="445.832" y1="233.787" x2="454.617" y2="254.905" gradientUnits="userSpaceOnUse"><stop stop-color="#2E3BAC"/><stop offset="1" stop-color="#3140C0"/></linearGradient><linearGradient id="paint16_linear" x1="529.217" y1="233.787" x2="538.001" y2="254.905" gradientUnits="userSpaceOnUse"><stop stop-color="#2E3BAC"/><stop offset="1" stop-color="#3140C0"/></linearGradient><linearGradient id="paint17_linear" x1="570.354" y1="233.787" x2="579.138" y2="254.905" gradientUnits="userSpaceOnUse"><stop stop-color="#2E3BAC"/><stop offset="1" stop-color="#3140C0"/></linearGradient><linearGradient id="paint18_linear" x1="403.584" y1="209.972" x2="418.655" y2="234.933" gradientUnits="userSpaceOnUse"><stop stop-color="#98A3FF"/><stop offset="1" stop-color="#D3D8FF" stop-opacity=".5"/></linearGradient><linearGradient id="paint19_linear" x1="466.956" y1="209.972" x2="482.027" y2="234.933" gradientUnits="userSpaceOnUse"><stop stop-color="#98A3FF"/><stop offset="1" stop-color="#D3D8FF" stop-opacity=".5"/></linearGradient><linearGradient id="paint20_linear" x1="460.285" y1="190.417" x2="460.503" y2="235.083" gradientUnits="userSpaceOnUse"><stop stop-color="#98A3FF" stop-opacity=".3"/><stop offset="1" stop-color="#D3D8FF" stop-opacity=".5"/></linearGradient><linearGradient id="paint21_linear" x1="611.552" y1="209.972" x2="598.395" y2="237.816" gradientUnits="userSpaceOnUse"><stop stop-color="#98A3FF"/><stop offset="1" stop-color="#D3D8FF" stop-opacity=".5"/></linearGradient><linearGradient id="paint22_linear" x1="516.987" y1="195.498" x2="534.666" y2="236.019" gradientUnits="userSpaceOnUse"><stop stop-color="#98A3FF" stop-opacity=".7"/><stop offset="1" stop-color="#D3D8FF" stop-opacity="0"/></linearGradient><linearGradient id="paint23_linear" x1="413.864" y1="295.321" x2="393.125" y2="305.862" gradientUnits="userSpaceOnUse"><stop stop-color="#FFE68D"/><stop offset="1" stop-color="#FFBC3A"/></linearGradient><linearGradient id="paint24_linear" x1="437.774" y1="295.334" x2="452.331" y2="300.796" gradientUnits="userSpaceOnUse"><stop stop-color="#FFE68D"/><stop offset="1" stop-color="#FFBC3A"/></linearGradient><linearGradient id="paint25_linear" x1="580.084" y1="298.721" x2="594.642" y2="304.183" gradientUnits="userSpaceOnUse"><stop stop-color="#FFE68D"/><stop offset="1" stop-color="#FFBC3A"/></linearGradient><linearGradient id="paint26_linear" x1="443.472" y1="304.382" x2="454.96" y2="308.616" gradientUnits="userSpaceOnUse"><stop stop-color="#FFE68D"/><stop offset="1" stop-color="#FFBC3A"/></linearGradient><linearGradient id="paint27_linear" x1="455.702" y1="304.382" x2="467.19" y2="308.616" gradientUnits="userSpaceOnUse"><stop stop-color="#FFE68D"/><stop offset="1" stop-color="#FFBC3A"/></linearGradient><linearGradient id="paint28_linear" x1="403.304" y1="304.382" x2="392.639" y2="307.955" gradientUnits="userSpaceOnUse"><stop stop-color="#FFE68D"/><stop offset="1" stop-color="#FFBC3A"/></linearGradient><linearGradient id="paint29_linear" x1="417.408" y1="292.153" x2="434.844" y2="288.671" gradientUnits="userSpaceOnUse"><stop stop-color="#FFE68D"/><stop offset="1" stop-color="#FFBC3A"/></linearGradient><linearGradient id="paint30_linear" x1="559.719" y1="295.54" x2="577.154" y2="292.058" gradientUnits="userSpaceOnUse"><stop stop-color="#FFE68D"/><stop offset="1" stop-color="#FFBC3A"/></linearGradient><linearGradient id="paint31_linear" x1="541.725" y1="346.298" x2="540.647" y2="312.724" gradientUnits="userSpaceOnUse"><stop stop-color="#3F4DBD"/><stop offset="1" stop-color="#A8B1FF"/></linearGradient><linearGradient id="paint32_linear" x1="492.102" y1="480.574" x2="530.117" y2="481.083" gradientUnits="userSpaceOnUse"><stop stop-color="#F4D156"/><stop offset="1" stop-color="#E09707"/></linearGradient><linearGradient id="paint33_linear" x1="699.298" y1="477.783" x2="718.173" y2="516.839" gradientUnits="userSpaceOnUse"><stop stop-color="#FFE68D"/><stop offset="1" stop-color="#FFBC3A"/></linearGradient><linearGradient id="paint34_linear" x1="106.866" y1="-33.565" x2="73.796" y2="119.325" gradientUnits="userSpaceOnUse"><stop stop-color="#FFE68D"/><stop offset="1" stop-color="#FFBC3A"/></linearGradient><linearGradient id="paint35_linear" x1="134.26" y1="1340.58" x2="-401.903" y2="1207.82" gradientUnits="userSpaceOnUse"><stop stop-color="#1E2B99"/><stop offset="1" stop-color="#7C8AFF"/></linearGradient><linearGradient id="paint36_linear" x1="496.975" y1="292.029" x2="468.901" y2="86.098" gradientUnits="userSpaceOnUse"><stop stop-color="#7887FF"/><stop offset="1" stop-color="#96A1FF"/></linearGradient><linearGradient id="paint37_linear" x1="90.794" y1="135.919" x2="57.144" y2="330.391" gradientUnits="userSpaceOnUse"><stop stop-color="#1E2B99"/><stop offset="1" stop-color="#7C8AFF"/></linearGradient><linearGradient id="paint38_linear" x1="83.535" y1="282.825" x2="121.033" y2="218.194" gradientUnits="userSpaceOnUse"><stop stop-color="#fff"/><stop offset="1" stop-color="#7C8AFF"/></linearGradient><linearGradient id="paint39_linear" x1="83.535" y1="346.05" x2="121.033" y2="281.418" gradientUnits="userSpaceOnUse"><stop stop-color="#fff"/><stop offset="1" stop-color="#7C8AFF"/></linearGradient><linearGradient id="paint40_linear" x1="130.231" y1="282.825" x2="167.729" y2="218.194" gradientUnits="userSpaceOnUse"><stop stop-color="#fff"/><stop offset="1" stop-color="#7C8AFF"/></linearGradient><linearGradient id="paint41_linear" x1="130.231" y1="346.05" x2="167.729" y2="281.418" gradientUnits="userSpaceOnUse"><stop stop-color="#fff"/><stop offset="1" stop-color="#7C8AFF"/></linearGradient><linearGradient id="paint42_linear" x1="102.285" y1="377.27" x2="98.846" y2="327.6" gradientUnits="userSpaceOnUse"><stop stop-color="#3F4DBD"/><stop offset="1" stop-color="#A8B1FF"/></linearGradient><linearGradient id="paint43_linear" x1="26.349" y1="-.059" x2="41.42" y2="21.168" gradientUnits="userSpaceOnUse"><stop stop-color="#FFE68D"/><stop offset="1" stop-color="#FFBC3A"/></linearGradient><linearGradient id="paint44_linear" x1="138.729" y1="276.524" x2="-21.446" y2="-1.013" gradientUnits="userSpaceOnUse"><stop stop-color="#1E2B99"/><stop offset="1" stop-color="#7C8AFF"/></linearGradient><linearGradient id="paint45_linear" x1="0" y1="135.798" x2="11.04" y2="169.319" gradientUnits="userSpaceOnUse"><stop stop-color="#2E3BAC"/><stop offset="1" stop-color="#3140C0"/></linearGradient><linearGradient id="paint46_linear" x1="40.024" y1="135.798" x2="51.315" y2="169.13" gradientUnits="userSpaceOnUse"><stop stop-color="#2E3BAC"/><stop offset="1" stop-color="#3140C0"/></linearGradient><linearGradient id="paint47_linear" x1="78.938" y1="135.798" x2="89.977" y2="169.319" gradientUnits="userSpaceOnUse"><stop stop-color="#2E3BAC"/><stop offset="1" stop-color="#3140C0"/></linearGradient><linearGradient id="paint48_linear" x1="118.963" y1="135.798" x2="130.254" y2="169.13" gradientUnits="userSpaceOnUse"><stop stop-color="#2E3BAC"/><stop offset="1" stop-color="#3140C0"/></linearGradient><linearGradient id="paint49_linear" x1="157.876" y1="135.798" x2="168.916" y2="169.319" gradientUnits="userSpaceOnUse"><stop stop-color="#2E3BAC"/><stop offset="1" stop-color="#3140C0"/></linearGradient><linearGradient id="paint50_linear" x1="25.372" y1="138.569" x2="25.503" y2="128.79" gradientUnits="userSpaceOnUse"><stop stop-color="#fff"/><stop offset="1" stop-color="#7C8AFF"/></linearGradient><linearGradient id="paint51_linear" x1="401.36" y1="60.017" x2="417.407" y2="250.215" gradientUnits="userSpaceOnUse"><stop stop-color="#fff"/><stop offset="1" stop-color="#7C8AFF"/></linearGradient><linearGradient id="paint52_linear" x1="33.639" y1="79.861" x2="33.786" y2="70.082" gradientUnits="userSpaceOnUse"><stop stop-color="#fff"/><stop offset="1" stop-color="#7C8AFF"/></linearGradient></defs></svg>
