<?xml version="1.0" encoding="utf-8"?>
<!-- Generator: Adobe Illustrator 18.0.0, SVG Export Plug-In . SVG Version: 6.00 Build 0)  -->
<!DOCTYPE svg PUBLIC "-//W3C//DTD SVG 1.1//EN" "http://www.w3.org/Graphics/SVG/1.1/DTD/svg11.dtd">
<svg version="1.1" id="Layer_1" xmlns="http://www.w3.org/2000/svg" xmlns:xlink="http://www.w3.org/1999/xlink" x="0px" y="0px"
	 viewBox="0 0 175 125" enable-background="new 0 0 175 125" xml:space="preserve">
<g>
	
		<linearGradient id="SVGID_1_" gradientUnits="userSpaceOnUse" x1="158.4419" y1="95.7378" x2="106.9349" y2="84.8795" gradientTransform="matrix(1 0 0 -1 0 126)">
		<stop  offset="0" style="stop-color:#273582;stop-opacity:0.5"/>
		<stop  offset="1" style="stop-color:#737FBD"/>
	</linearGradient>
	<path fill="url(#SVGID_1_)" fill-opacity="0.1" d="M95.5,65c18.1,32.6,108.4,14.6,65.7-39.5C135.8-6.7,69.2-4.8,46.3,11.6
		C5.1,41.1,81.1,39,95.5,65z"/>
	<path opacity="0.1" fill="#273582" fill-opacity="0.6" enable-background="new    " d="M63.8,41c-6,0-10.8,4.8-10.8,10.8v47
		c0,6,4.8,10.8,10.8,10.8h49.3c3.3,6.9,8.7,11.9,19.1,14.8c1.8,0.5,3.1-1.4,2.3-3c-2-4.1-3.4-8-3.5-11.8h0.7c6,0,10.8-4.8,10.8-10.8
		v-47c0-6-4.8-10.8-10.8-10.8H63.8z"/>
	
		<linearGradient id="SVGID_2_" gradientUnits="userSpaceOnUse" x1="154.5177" y1="-3.8203" x2="81.5149" y2="56.4865" gradientTransform="matrix(1 0 0 -1 0 126)">
		<stop  offset="0" style="stop-color:#273582"/>
		<stop  offset="1" style="stop-color:#354697"/>
	</linearGradient>
	<path fill="url(#SVGID_2_)" d="M30,31.9c-6,0-10.8,4.8-10.8,10.8v46c0,6,4.8,10.8,10.8,10.8h74.3c3.3,7.1,8.7,12.3,19.3,15.2
		c1.8,0.5,3.1-1.4,2.3-3c-2.1-4.3-3.5-8.3-3.5-12.2h1.3c6,0,10.8-4.8,10.8-10.8v-46c0-6-4.8-10.8-10.8-10.8H30z"/>
	<path fill="#1A1C3B" fill-opacity="0.2" d="M22.8,61.4l-3.1-9.6l-3.1,9.6H6.4l8.2,5.9L11.5,77l8.2-5.9l8.2,5.9l-3.1-9.6l7.9-5.7
		l7.9,5.7L37.3,77l8.2-5.9l8.2,5.9l-3.1-9.6l7.9-5.7l7.9,5.7L63.2,77l8.2-5.9l8.2,5.9l-3.1-9.6l7.9-5.7l7.9,5.7L89,77l8.2-5.9
		l8.2,5.9l-3.1-9.6l7.9-5.7l7.9,5.7l-3.1,9.6l8.2-5.9l8.2,5.9l-3.1-9.6l8.2-5.9h-10.1l-3.1-9.6l-3.1,9.6h-9.5h-0.6h-9.5l-3.1-9.6
		l-3.1,9.6h-9.5H84h-9.5l-3.1-9.6l-3.1,9.6h-9.5h-0.6h-9.5l-3.1-9.6l-3.1,9.6h-9.5h-0.6H22.8z"/>
	
		<linearGradient id="SVGID_3_" gradientUnits="userSpaceOnUse" x1="93.3868" y1="61.5989" x2="3.2289" y2="73.8275" gradientTransform="matrix(1 0 0 -1 0 126)">
		<stop  offset="0" style="stop-color:#F8E08E"/>
		<stop  offset="1" style="stop-color:#F4A51D"/>
	</linearGradient>
	<path fill="url(#SVGID_3_)" d="M19.4,57.4l-3.1-9.6l-3.1,9.6H3l8.2,5.9L8.1,73l8.2-5.9l8.2,5.9l-3.1-9.6l7.9-5.7l7.9,5.7L33.9,73
		l8.2-5.9l8.2,5.9l-3.1-9.6l7.9-5.7l7.9,5.7L59.8,73L68,67l8.2,5.9L73,63.4l7.9-5.7l7.9,5.7L85.6,73l8.2-5.9L102,73l-3.1-9.6
		l7.9-5.7l7.9,5.7l-3.1,9.6l8.2-5.9l8.2,5.9l-3.1-9.6l8.2-5.9h-10.1l-3.1-9.6l-3.1,9.6H107h-0.6h-9.5l-3.1-9.6l-3.1,9.6h-9.5h-0.6
		h-9.5L68,47.8l-3.1,9.6h-9.5h-0.6h-9.5l-3.1-9.6L39,57.4h-9.5h-0.6H19.4z"/>
</g>
</svg>
