<svg width="226" height="152" viewBox="0 0 226 152" fill="none" xmlns="http://www.w3.org/2000/svg">
<path d="M94.9999 87.0004C94.9999 87.0004 136.439 161.994 170 141C200 122.234 207.503 70.3558 184 36.5004C142 -24 57.0615 3.12361 39.4999 30.5003C10.4999 75.7084 94.9999 87.0004 94.9999 87.0004Z" fill="url(#paint0_linear_1211_26128)" fill-opacity="0.1"/>
<path opacity="0.1" fill-rule="evenodd" clip-rule="evenodd" d="M76.8465 48C70.8562 48 66 52.8561 66 58.8465V106.153C66 112.144 70.8561 117 76.8465 117H148.803C152.119 123.899 157.545 128.904 167.988 131.767C169.749 132.25 171.141 130.386 170.347 128.742C168.36 124.631 166.945 120.753 166.828 117H167.153C173.144 117 178 112.144 178 106.153V58.8465C178 52.8562 173.144 48 167.153 48H76.8465Z" fill="#1E2B99" fill-opacity="0.6"/>
<path fill-rule="evenodd" clip-rule="evenodd" d="M48.8465 39C42.8562 39 38 43.8562 38 49.8465V96.1535C38 102.144 42.8561 107 48.8465 107H140.013C143.318 114.022 148.748 119.11 159.311 122.005C161.072 122.488 162.464 120.624 161.67 118.98C159.641 114.782 158.209 110.828 158.145 107H159.153C165.144 107 170 102.144 170 96.1535V49.8465C170 43.8562 165.144 39 159.153 39H48.8465Z" fill="url(#paint1_linear_1211_26128)"/>
<path fill-rule="evenodd" clip-rule="evenodd" d="M57.8721 68.3823L54.7289 58.7085L51.5857 68.3823H41.4141L49.6431 74.361L46.4999 84.0347L54.7289 78.056L62.9578 84.0347L59.8147 74.361L67.7287 68.6111L75.6427 74.361L72.4995 84.0347L80.7285 78.056L88.9575 84.0347L85.8143 74.361L93.7285 68.611L101.643 74.361L98.4995 84.0347L106.729 78.056L114.958 84.0347L111.814 74.361L119.729 68.611L127.643 74.361L124.5 84.0347L132.729 78.056L140.958 84.0347L137.814 74.361L145.729 68.611L153.643 74.361L150.5 84.0347L158.729 78.056L166.958 84.0347L163.814 74.361L172.043 68.3823H161.872L158.729 58.7085L155.585 68.3823H146.043H145.414H135.872L132.729 58.7085L129.585 68.3823H120.043H119.414H109.872L106.729 58.7085L103.585 68.3823H94.0433H93.4137H83.8717L80.7285 58.7085L77.5853 68.3823H68.0436H67.4137H57.8721Z" fill="#000744" fill-opacity="0.2"/>
<path fill-rule="evenodd" clip-rule="evenodd" d="M54.458 64.3823L51.3148 54.7085L48.1716 64.3823H38L46.229 70.361L43.0858 80.0347L51.3148 74.056L59.5438 80.0347L56.4006 70.361L64.315 64.6108L72.2293 70.361L69.0861 80.0347L77.3151 74.056L85.5441 80.0347L82.4009 70.361L90.3153 64.6109L98.2296 70.361L95.0864 80.0347L103.315 74.056L111.544 80.0347L108.401 70.361L116.315 64.611L124.23 70.361L121.086 80.0347L129.315 74.056L137.544 80.0347L134.401 70.361L142.315 64.611L150.23 70.361L147.086 80.0347L155.315 74.056L163.544 80.0347L160.401 70.361L168.63 64.3823H158.459L155.315 54.7085L152.172 64.3823H142.63H142.001H132.459L129.315 54.7085L126.172 64.3823H116.63H116.001H106.459L103.315 54.7085L100.172 64.3823H90.6299H90.0006H80.4583L77.3151 54.7085L74.1719 64.3823H64.6296H64.0003H54.458Z" fill="url(#paint2_linear_1211_26128)"/>
<path d="M104 123C104 137.083 92.0538 152 73 152C53.9462 152 32 124.083 32 110C32 75.8649 104 88.8648 104 123Z" fill="url(#paint3_linear_1211_26128)" fill-opacity="0.1"/>
<defs>
<linearGradient id="paint0_linear_1211_26128" x1="177.303" y1="148.205" x2="124.415" y2="156.202" gradientUnits="userSpaceOnUse">
<stop stop-color="#1E2B99" stop-opacity="0.5"/>
<stop offset="1" stop-color="#7C8AFF"/>
</linearGradient>
<linearGradient id="paint1_linear_1211_26128" x1="189.064" y1="138.759" x2="115.653" y2="78.1148" gradientUnits="userSpaceOnUse">
<stop stop-color="#1E2B99"/>
<stop offset="1" stop-color="#3140C0"/>
</linearGradient>
<linearGradient id="paint2_linear_1211_26128" x1="129.816" y1="64.5878" x2="39.1546" y2="52.2908" gradientUnits="userSpaceOnUse">
<stop stop-color="#FFE68E"/>
<stop offset="1" stop-color="#FFAA04"/>
</linearGradient>
<linearGradient id="paint3_linear_1211_26128" x1="89.3894" y1="146.233" x2="67.4081" y2="150.204" gradientUnits="userSpaceOnUse">
<stop stop-color="#1E2B99" stop-opacity="0.5"/>
<stop offset="1" stop-color="#7C8AFF"/>
</linearGradient>
</defs>
</svg>
