<svg width="142" height="118" viewBox="0 0 142 118" fill="none" xmlns="http://www.w3.org/2000/svg">
    <path d="M62.9997 91.5002C81.1829 137.272 171.999 112.001 129 36.0007C103.446 -9.16458 36.5001 -6.49949 13.5005 16.4999C-27.8835 57.8837 48.4999 55.0002 62.9997 91.5002Z" fill="url(#paint0_linear)" fill-opacity="0.1"/>
    <path opacity="0.1" fill-rule="evenodd" clip-rule="evenodd" d="M61.8573 33.1934C55.8669 33.1934 51.0107 38.0495 51.0107 44.0399V91.3468C51.0107 97.3372 55.8669 102.193 61.8573 102.193H111.441C114.753 109.143 120.18 114.182 130.673 117.058C132.434 117.541 133.826 115.677 133.032 114.033C131.028 109.886 129.605 105.977 129.51 102.193H130.164C136.155 102.193 141.011 97.3372 141.011 91.3468V44.0399C141.011 38.0495 136.155 33.1934 130.164 33.1934H61.8573Z" fill="#1E2B99" fill-opacity="0.6"/>
    <path fill-rule="evenodd" clip-rule="evenodd" d="M27.8465 24C21.8562 24 17 28.8562 17 34.8465V81.1535C17 87.1438 21.8561 92 27.8465 92H102.562C105.854 99.1728 111.287 104.361 121.996 107.296C123.756 107.779 125.148 105.915 124.354 104.271C122.274 99.9664 120.821 95.9181 120.828 92H122.153C128.144 92 133 87.1438 133 81.1535V34.8465C133 28.8562 128.144 24 122.153 24H27.8465Z" fill="url(#paint1_linear)"/>
    <path fill-rule="evenodd" clip-rule="evenodd" d="M20.5556 53.6738L17.4124 44L14.2693 53.6738H4.09766L12.3266 59.6525L9.18345 69.3262L17.4124 63.3475L25.6414 69.3262L22.4982 59.6525L30.4123 53.9026L38.3263 59.6525L35.1831 69.3262L43.4121 63.3475L51.6411 69.3262L48.4979 59.6525L56.4121 53.9025L64.3263 59.6525L61.1831 69.3262L69.4121 63.3475L77.6411 69.3262L74.4979 59.6525L82.4121 53.9025L90.3263 59.6525L87.1831 69.3262L95.4121 63.3475L103.641 69.3262L100.498 59.6525L108.412 53.9025L116.326 59.6525L113.183 69.3262L121.412 63.3475L129.641 69.3262L126.498 59.6525L134.727 53.6738H124.555L121.412 44L118.269 53.6738H108.727H108.097H98.5553L95.4121 44L92.2689 53.6738H82.7269H82.0973H72.5553L69.4121 44L66.2689 53.6738H56.7269H56.0973H46.5553L43.4121 44L40.2689 53.6738H30.7272H30.0973H20.5556Z" fill="#000744" fill-opacity="0.2"/>
    <path fill-rule="evenodd" clip-rule="evenodd" d="M17.1416 49.6738L13.9984 40L10.8552 49.6738H0.683594L8.91259 55.6525L5.76939 65.3262L13.9984 59.3475L22.2274 65.3262L19.0842 55.6525L26.9986 49.9023L34.9129 55.6525L31.7697 65.3262L39.9987 59.3475L48.2277 65.3262L45.0845 55.6525L52.9989 49.9024L60.9132 55.6525L57.77 65.3262L65.999 59.3475L74.228 65.3262L71.0848 55.6525L78.999 49.9025L86.9132 55.6525L83.77 65.3262L91.999 59.3475L100.228 65.3262L97.0848 55.6525L104.999 49.9025L112.913 55.6525L109.77 65.3262L117.999 59.3475L126.228 65.3262L123.085 55.6525L131.314 49.6738H121.142L117.999 40L114.856 49.6738H105.314H104.684H95.1422L91.999 40L88.8558 49.6738H79.3138H78.6842H69.1422L65.999 40L62.8558 49.6738H53.3135H52.6842H43.1419L39.9987 40L36.8555 49.6738H27.3132H26.6839H17.1416Z" fill="url(#paint2_linear)"/>
    <defs>
        <linearGradient id="paint0_linear" x1="139.993" y1="133.499" x2="87.1048" y2="141.497" gradientUnits="userSpaceOnUse">
            <stop stop-color="#1E2B99" stop-opacity="0.5"/>
            <stop offset="1" stop-color="#7C8AFF"/>
        </linearGradient>
        <linearGradient id="paint1_linear" x1="151.748" y1="124.05" x2="78.3371" y2="63.4058" gradientUnits="userSpaceOnUse">
            <stop stop-color="#1E2B99"/>
            <stop offset="1" stop-color="#3140C0"/>
        </linearGradient>
        <linearGradient id="paint2_linear" x1="92.5" y1="49.8793" x2="1.83821" y2="37.5823" gradientUnits="userSpaceOnUse">
            <stop stop-color="#FFE68E"/>
            <stop offset="1" stop-color="#FFAA04"/>
        </linearGradient>
    </defs>
</svg>
