<svg width="153" height="125" viewBox="0 0 153 125" fill="none" xmlns="http://www.w3.org/2000/svg">
    <path d="M124 106.499C169 82 158 6.9991 104.5 20.4993C57.1112 32.4572 36.4999 -16.0002 13.5004 6.99913C-27.8837 48.383 36.8693 153.935 124 106.499Z" fill="url(#paint0_linear)" fill-opacity="0.1"/>
    <path opacity="0.1" fill-rule="evenodd" clip-rule="evenodd" d="M43.8573 40.1934C37.8669 40.1934 33.0107 45.0495 33.0107 51.0399V98.3468C33.0107 104.337 37.8669 109.193 43.8573 109.193H93.4414C96.7529 116.143 102.18 121.182 112.673 124.058C114.434 124.541 115.826 122.677 115.032 121.033C113.028 116.886 111.605 112.977 111.51 109.193H112.164C118.155 109.193 123.011 104.337 123.011 98.3468V51.0399C123.011 45.0495 118.155 40.1934 112.164 40.1934H43.8573Z" fill="#1E2B99" fill-opacity="0.6"/>
    <path fill-rule="evenodd" clip-rule="evenodd" d="M35.8573 31.1934C29.8669 31.1934 25.0107 36.0495 25.0107 42.0399V88.3468C25.0107 94.3372 29.8669 99.1934 35.8573 99.1934H84.6519C87.9527 106.266 93.3837 111.387 103.996 114.296C105.756 114.779 107.148 112.915 106.354 111.271C104.309 107.037 102.869 103.051 102.829 99.1934H104.164C110.155 99.1934 115.011 94.3372 115.011 88.3468V42.0399C115.011 36.0495 110.155 31.1934 104.164 31.1934H35.8573Z" fill="url(#paint1_linear)"/>
    <path fill-rule="evenodd" clip-rule="evenodd" d="M82 34V40.8179C82 41.4707 81.4707 42 80.8179 42H67.1821C66.5293 42 66 41.4707 66 40.8179V34C66 29.5817 69.5817 26 74 26C78.4183 26 82 29.5817 82 34ZM60 34V40.8179C60 41.4707 59.4707 42 58.8179 42H53.1821C52.5293 42 52 42.5293 52 43.1821V76.8179C52 77.4707 52.5293 78 53.1821 78H94.8179C95.4707 78 96 77.4707 96 76.8179V43.1821C96 42.5293 95.4707 42 94.8179 42H89.1821C88.5293 42 88 41.4707 88 40.8179V34C88 26.268 81.732 20 74 20C66.268 20 60 26.268 60 34ZM74 49C71.1652 49 69.2585 51.9043 70.3856 54.5053L72.3445 59.0258C72.6267 59.6769 72.5427 60.4288 72.1238 61.0016L70.3629 63.4097C69.8798 64.0704 70.3516 65 71.1701 65H76.8299C77.6484 65 78.1202 64.0704 77.6371 63.4097L75.8762 61.0016C75.4573 60.4288 75.3733 59.6769 75.6555 59.0258L77.6144 54.5053C78.7415 51.9043 76.8348 49 74 49Z" fill="#000744" fill-opacity="0.2"/>
    <path fill-rule="evenodd" clip-rule="evenodd" d="M78 29V37H62V29C62 24.5817 65.5817 21 70 21C74.4183 21 78 24.5817 78 29ZM56 29V37H49.1821C48.5293 37 48 37.5293 48 38.1821V71.8179C48 72.4707 48.5293 73 49.1821 73H90.8179C91.4707 73 92 72.4707 92 71.8179V38.1821C92 37.5293 91.4707 37 90.8179 37H84V29C84 21.268 77.732 15 70 15C62.268 15 56 21.268 56 29ZM70 44C67.1652 44 65.2585 46.9043 66.3856 49.5053L68.3445 54.0258C68.6267 54.6769 68.5427 55.4288 68.1238 56.0016L66.3629 58.4097C65.8798 59.0704 66.3516 60 67.1701 60H72.8299C73.6484 60 74.1202 59.0704 73.6371 58.4097L71.8762 56.0016C71.4573 55.4288 71.3733 54.6769 71.6555 54.0258L73.6144 49.5053C74.7415 46.9043 72.8348 44 70 44Z" fill="url(#paint2_linear)"/>
    <defs>
        <linearGradient id="paint0_linear" x1="122" y1="140.5" x2="69.1117" y2="148.498" gradientUnits="userSpaceOnUse">
            <stop stop-color="#1E2B99" stop-opacity="0.5"/>
            <stop offset="1" stop-color="#7C8AFF"/>
        </linearGradient>
        <linearGradient id="paint1_linear" x1="133.748" y1="131.05" x2="60.3371" y2="70.4058" gradientUnits="userSpaceOnUse">
            <stop stop-color="#1E2B99"/>
            <stop offset="1" stop-color="#3140C0"/>
        </linearGradient>
        <linearGradient id="paint2_linear" x1="85.9861" y1="29.5282" x2="57.9703" y2="8.38573" gradientUnits="userSpaceOnUse">
            <stop stop-color="#FFE68E"/>
            <stop offset="1" stop-color="#FFAA04"/>
        </linearGradient>
    </defs>
</svg>
