<svg width="132" height="117" viewBox="0 0 132 117" fill="none" xmlns="http://www.w3.org/2000/svg">
    <path opacity="0.1" fill-rule="evenodd" clip-rule="evenodd" d="M37.8573 25.1934C31.8669 25.1934 27.0107 30.0495 27.0107 36.0399V83.3468C27.0107 89.3372 31.8669 94.1934 37.8573 94.1934H87.4414C90.7529 101.143 96.1804 106.182 106.673 109.058C108.434 109.541 109.826 107.677 109.032 106.033C107.028 101.886 105.605 97.9771 105.51 94.1934H106.164C112.155 94.1934 117.011 89.3372 117.011 83.3468V36.0399C117.011 30.0495 112.155 25.1934 106.164 25.1934H37.8573Z" fill="#1E2B99" fill-opacity="0.6"/>
    <path fill-rule="evenodd" clip-rule="evenodd" d="M29.8465 16C23.8562 16 19 20.8562 19 26.8465V73.1535C19 79.1438 23.8561 84 29.8465 84H78.5624C81.8544 91.1728 87.2872 96.3609 97.9959 99.2962C99.7564 99.7787 101.148 97.9147 100.354 96.2711C98.2744 91.9664 96.8208 87.9181 96.8277 84H98.1535C104.144 84 109 79.1438 109 73.1535V26.8465C109 20.8562 104.144 16 98.1535 16H29.8465Z" fill="url(#paint0_linear)"/>
    <path d="M38.5957 102.45C56.7788 148.222 178.081 74.6392 112.096 17.4514C82.0963 -8.54942 7.47849 -4.07101 1.09705 21.451C-5.90379 49.4502 24.0959 65.9502 38.5957 102.45Z" fill="url(#paint1_linear)" fill-opacity="0.1"/>
    <path d="M40 20C40 17.7909 41.7909 16 44 16H96C98.2091 16 100 17.7909 100 20V57C100 59.2091 98.2091 61 96 61H44C41.7909 61 40 59.2091 40 57V20Z" fill="#000744" fill-opacity="0.2"/>
    <path d="M34 12C34 10.8954 34.8954 10 36 10H92C93.1046 10 94 10.8954 94 12V51C94 53.2091 92.2091 55 90 55H38C35.7909 55 34 53.2091 34 51V12Z" fill="url(#paint2_linear)"/>
    <path d="M92 55H36L61.2235 30.6774C62.773 29.1832 65.227 29.1832 66.7765 30.6774L92 55Z" fill="url(#paint3_linear)"/>
    <path d="M36 10H92L66.7765 34.3226C65.227 35.8168 62.773 35.8168 61.2235 34.3226L36 10Z" fill="url(#paint4_linear)"/>
    <path d="M39.2647 42.2246L40.8356 42.4864L40.9882 42.5118L41.1414 42.4899L44.5 42.0102L47.8586 42.4899L48.0118 42.5118L48.1644 42.4864L49.7353 42.2246L49.5194 43.3039L49.4802 43.5L49.5194 43.6961L49.9802 46L49.5194 48.3039L49.4802 48.5L49.5194 48.6961L49.7422 49.8102L47.6414 49.5101L47.4882 49.4882L47.3356 49.5136L44.4882 49.9882L41.1414 49.5101L40.9882 49.4882L40.8356 49.5136L39.2647 49.7754L39.4806 48.6961L39.5198 48.5L39.4806 48.3039L39.0198 46L39.4806 43.6961L39.5198 43.5L39.4806 43.3039L39.2647 42.2246Z" fill="#1E2B99" stroke="white" stroke-width="2"/>
    <defs>
        <linearGradient id="paint0_linear" x1="127.748" y1="116.05" x2="54.3371" y2="55.4058" gradientUnits="userSpaceOnUse">
            <stop stop-color="#1E2B99"/>
            <stop offset="1" stop-color="#3140C0"/>
        </linearGradient>
        <linearGradient id="paint1_linear" x1="127.589" y1="138.449" x2="74.7005" y2="146.447" gradientUnits="userSpaceOnUse">
            <stop stop-color="#1E2B99" stop-opacity="0.5"/>
            <stop offset="1" stop-color="#7C8AFF"/>
        </linearGradient>
        <linearGradient id="paint2_linear" x1="98.256" y1="29.8112" x2="59.0996" y2="-16.6243" gradientUnits="userSpaceOnUse">
            <stop stop-color="#FFE68E"/>
            <stop offset="1" stop-color="#FFAA04"/>
        </linearGradient>
        <linearGradient id="paint3_linear" x1="64" y1="56" x2="65.5" y2="32" gradientUnits="userSpaceOnUse">
            <stop stop-color="#FFE68E" stop-opacity="0"/>
            <stop offset="1" stop-color="#FFAA04"/>
        </linearGradient>
        <linearGradient id="paint4_linear" x1="69.5" y1="30.5" x2="70" y2="2.5" gradientUnits="userSpaceOnUse">
            <stop stop-color="#FFE68E"/>
            <stop offset="1" stop-color="#FFAA04"/>
        </linearGradient>
    </defs>
</svg>
