<svg width="104" height="60" viewBox="0 0 104 60" fill="none" xmlns="http://www.w3.org/2000/svg">
    <path fill-rule="evenodd" clip-rule="evenodd" d="M0 4.77457C0 2.13765 2.13765 0 4.77457 0H73.8467C76.4836 0 78.6212 2.13765 78.6212 4.77457V19.8056C78.6212 22.4425 76.4836 24.5801 73.8467 24.5801H29.3795L22.7588 32.7735V24.5801H4.77456C2.13764 24.5801 0 22.4425 0 19.8056V4.77457ZM11.7382 10.3912L10.3446 6.14513L8.95109 10.3912H4.44148L8.08983 13.0155L6.69629 17.2616L10.3446 14.6374L13.993 17.2616L12.5994 13.0155L16.2478 10.3912H11.7382ZM24.828 6.14513L26.2216 10.3912H30.7312L27.0828 13.0155L28.4764 17.2616L24.828 14.6374L21.1797 17.2616L22.5732 13.0155L18.9249 10.3912H23.4345L24.828 6.14513ZM40.704 10.3912L39.3105 6.14513L37.9169 10.3912H33.4073L37.0557 13.0155L35.6621 17.2616L39.3105 14.6374L42.9588 17.2616L41.5653 13.0155L45.2136 10.3912H40.704ZM53.7939 6.14513L55.1874 10.3912H59.697L56.0487 13.0155L57.4422 17.2616L53.7939 14.6374L50.1455 17.2616L51.5391 13.0155L47.8907 10.3912H52.4003L53.7939 6.14513ZM69.6698 10.3912L68.2763 6.14513L66.8827 10.3912H62.3731L66.0215 13.0155L64.6279 17.2616L68.2763 14.6374L71.9246 17.2616L70.5311 13.0155L74.1794 10.3912H69.6698Z" fill="#1E2B99"/>
    <path d="M10.0037 28.6768V38.9185H8.31853V31.1028L4.90226 35.8321L1.63919 31.1335V38.9185H0V28.6768H1.76175L4.97886 33.4368L8.27257 28.6768H10.0037Z" fill="#1E2B99"/>
    <path d="M16.9825 34.3427V38.9185H15.2973V34.3274L11.4521 28.6768H13.5202L16.2471 32.9301L18.8668 28.6768H20.6898L16.9825 34.3427Z" fill="#1E2B99"/>
    <path d="M33.8028 38.9185C30.5781 38.9185 28.9658 37.2115 28.9658 33.7976C28.9658 30.3837 30.5781 28.6768 33.8028 28.6768C34.8506 28.6768 35.9034 28.9199 36.9613 29.4062V30.8799C35.9848 30.3242 35.0032 30.0463 34.0164 30.0463C32.8771 30.0463 32.0379 30.344 31.4988 30.9395C30.9698 31.5349 30.7053 32.4926 30.7053 33.8125C30.7053 35.1324 30.9749 36.0851 31.514 36.6707C32.0532 37.2463 32.9025 37.5341 34.0622 37.5341C35.0591 37.5341 36.0255 37.2661 36.9613 36.7302V38.2039C36.4934 38.4322 35.9797 38.6108 35.4202 38.7399C34.8709 38.8589 34.3318 38.9185 33.8028 38.9185Z" fill="#1E2B99"/>
    <path d="M38.9755 28.8405H40.6692V37.3703H45.5367V38.7696H38.9755V28.8405Z" fill="#1E2B99"/>
    <path d="M47.171 28.8405H48.8647V38.7696H47.171V28.8405Z" fill="#1E2B99"/>
    <path d="M51.2688 28.8405H57.9368V30.2249H52.9625V33.098H57.296V34.4973H52.9473V37.3852H57.9368V38.7696H51.2688V28.8405Z" fill="#1E2B99"/>
    <path d="M68.8305 28.8405V38.7696H67.3199L61.8116 31.3861V38.7696H60.2094V28.8405H61.8268L67.2284 36.1348V28.8405H68.8305Z" fill="#1E2B99"/>
    <path d="M73.647 30.2249H70.3664V28.8405H78.6213V30.2249H75.3255V38.7696H73.647V30.2249Z" fill="#1E2B99"/>
    <path d="M10.1049 59.7046L6.23177 53.5104H2.73105V59.7046H0V43.3096H7.34902C9.08696 43.3096 10.4111 43.7275 11.3215 44.5632C12.2484 45.3825 12.7118 46.6115 12.7118 48.2502C12.7118 49.4301 12.3808 50.4624 11.7187 51.3473C11.0732 52.2322 10.1959 52.7975 9.08696 53.0433L13.5063 59.7046H10.1049ZM2.73105 51.2982H6.57936C7.67178 51.2982 8.48282 51.0606 9.01248 50.5853C9.55869 50.1101 9.83179 49.3891 9.83179 48.4223C9.83179 47.4882 9.60835 46.7836 9.16145 46.3084C8.7311 45.8332 8.01937 45.5956 7.02626 45.5956H2.73105V51.2982Z" fill="#1E2B99"/>
    <path d="M16.5114 43.3096H27.3612V45.5956H19.2673V50.3395H26.3184V52.6501H19.2425V57.4186H27.3612V59.7046H16.5114V43.3096Z" fill="#1E2B99"/>
    <path d="M45.0618 43.3096L38.6562 59.7046H35.8011L29.5196 43.3096H32.5983L37.4149 56.5337L42.1818 43.3342L45.0618 43.3096Z" fill="#1E2B99"/>
    <path d="M47.4492 43.3096H50.205V59.7046H47.4492V43.3096Z" fill="#1E2B99"/>
    <path d="M54.1168 43.3096H64.9665V45.5956H56.8726V50.3395H63.9237V52.6501H56.8478V57.4186H64.9665V59.7046H54.1168V43.3096Z" fill="#1E2B99"/>
    <path d="M90.6617 43.3096L85.6216 59.7046H82.8906L78.9926 47.3899L75.0947 59.7046H72.3388L67.3236 43.3096H70.2781L73.9526 56.2879L77.8257 43.3096H80.1844L84.0823 56.2633L87.7072 43.3096H90.6617Z" fill="#1E2B99"/>
    <path d="M98.3144 59.9995C97.1393 59.9995 96.1544 59.9012 95.3599 59.7046C94.5655 59.4915 93.7213 59.1556 92.8275 58.6968V55.993C93.473 56.5173 94.2592 56.9434 95.1861 57.2711C96.1296 57.5825 97.1144 57.7382 98.1406 57.7382C99.1503 57.7382 99.9117 57.5333 100.425 57.1237C100.938 56.714 101.194 56.1323 101.194 55.3785C101.194 54.8705 101.045 54.4526 100.748 54.1249C100.45 53.7971 100.077 53.5268 99.6303 53.3137C99.1834 53.1007 98.5544 52.8467 97.7434 52.5517L97.1972 52.3551C96.2868 52.0438 95.5337 51.7242 94.9379 51.3965C94.3586 51.0687 93.8703 50.6017 93.473 49.9954C93.0758 49.3891 92.8772 48.6107 92.8772 47.6603C92.8772 46.8737 93.0758 46.1281 93.473 45.4235C93.8703 44.7189 94.491 44.1453 95.3351 43.7029C96.1793 43.2441 97.2386 43.0146 98.5131 43.0146C99.44 43.0146 100.21 43.1048 100.822 43.285C101.451 43.4489 102.196 43.7357 103.057 44.1453V46.8C102.212 46.2756 101.484 45.8905 100.872 45.6447C100.259 45.3825 99.531 45.2514 98.6869 45.2514C97.7103 45.2514 96.9655 45.4481 96.4524 45.8414C95.9393 46.2346 95.6827 46.7508 95.6827 47.3899C95.6827 47.9307 95.8234 48.3731 96.1048 48.7172C96.3862 49.045 96.7503 49.3154 97.1972 49.5284C97.6606 49.725 98.3227 49.9626 99.1834 50.2412C100.193 50.5689 101.029 50.9131 101.691 51.2736C102.37 51.6177 102.924 52.1011 103.354 52.7238C103.785 53.3301 104 54.1085 104 55.0589C104 55.9602 103.793 56.7877 103.379 57.5415C102.982 58.2789 102.353 58.877 101.492 59.3359C100.648 59.7783 99.5889 59.9995 98.3144 59.9995Z" fill="#1E2B99"/>
</svg>
