<svg width="84" height="48" viewBox="0 0 84 48" fill="none" xmlns="http://www.w3.org/2000/svg">
    <path fill-rule="evenodd" clip-rule="evenodd" d="M0 4.77457C0 2.13765 2.13765 0 4.77457 0H58.7272C61.3641 0 63.5018 2.13765 63.5018 4.77457V14.8897C63.5018 17.5266 61.3641 19.6643 58.7272 19.6643H23.7297L18.3818 26.2195V19.6643H4.77457C2.13765 19.6643 0 17.5266 0 14.8897V4.77457ZM9.48065 8.31258L8.35509 4.91566L7.22954 8.31258H3.58717L6.53391 10.412L5.40835 13.8089L8.35509 11.7095L11.3018 13.8089L10.1763 10.412L13.123 8.31258H9.48065ZM20.0533 4.91566L21.1789 8.31258H24.8213L21.8745 10.412L23.0001 13.8089L20.0533 11.7095L17.1066 13.8089L18.2322 10.412L15.2854 8.31258H18.9278L20.0533 4.91566ZM32.8762 8.31258L31.7506 4.91566L30.625 8.31258H26.9827L29.9294 10.412L28.8039 13.8089L31.7506 11.7095L34.6973 13.8089L33.5718 10.412L36.5185 8.31258H32.8762ZM43.4488 4.91566L44.5744 8.31258H48.2168L45.27 10.412L46.3956 13.8089L43.4488 11.7095L40.5021 13.8089L41.6277 10.412L38.6809 8.31258H42.3233L43.4488 4.91566ZM56.2717 8.31258L55.1461 4.91566L54.0206 8.31258H50.3782L53.3249 10.412L52.1994 13.8089L55.1461 11.7095L58.0929 13.8089L56.9673 10.412L59.914 8.31258H56.2717Z" fill="#0F1441" fill-opacity="0.4"/>
    <path d="M8.0799 22.9414V31.1349H6.71881V24.8823L3.95952 28.6658L1.32396 24.9069V31.1349H0V22.9414H1.42295L4.02139 26.7495L6.68169 22.9414H8.0799Z" fill="#0F1441" fill-opacity="0.4"/>
    <path d="M13.7166 27.4742V31.1349H12.3555V27.4619L9.24977 22.9414H10.9202L13.1227 26.3441L15.2385 22.9414H16.711L13.7166 27.4742Z" fill="#0F1441" fill-opacity="0.4"/>
    <path d="M27.3023 31.1349C24.6978 31.1349 23.3955 29.7693 23.3955 27.0381C23.3955 24.307 24.6978 22.9414 27.3023 22.9414C28.1486 22.9414 28.9989 23.1359 29.8534 23.525V24.7039C29.0647 24.2593 28.2718 24.037 27.4748 24.037C26.5546 24.037 25.8768 24.2752 25.4413 24.7516C25.0141 25.2279 24.8005 25.9941 24.8005 27.05C24.8005 28.106 25.0182 28.8682 25.4537 29.3366C25.8891 29.7971 26.5752 30.0273 27.5118 30.0273C28.317 30.0273 29.0975 29.8129 29.8534 29.3842V30.5632C29.4755 30.7458 29.0606 30.8887 28.6087 30.9919C28.165 31.0872 27.7295 31.1349 27.3023 31.1349Z" fill="#0F1441" fill-opacity="0.4"/>
    <path d="M31.4802 23.0724H32.8482V29.8963H36.7797V31.0158H31.4802V23.0724Z" fill="#0F1441" fill-opacity="0.4"/>
    <path d="M38.0997 23.0724H39.4677V31.0158H38.0997V23.0724Z" fill="#0F1441" fill-opacity="0.4"/>
    <path d="M41.4095 23.0724H46.7952V24.18H42.7775V26.4784H46.2776V27.5979H42.7651V29.9082H46.7952V31.0158H41.4095V23.0724Z" fill="#0F1441" fill-opacity="0.4"/>
    <path d="M55.5939 23.0724V31.0158H54.3738L49.9248 25.1089V31.0158H48.6307V23.0724H49.9371L54.2999 28.9079V23.0724H55.5939Z" fill="#0F1441" fill-opacity="0.4"/>
    <path d="M59.4842 24.18H56.8345V23.0724H63.5019V24.18H60.8399V31.0158H59.4842V24.18Z" fill="#0F1441" fill-opacity="0.4"/>
    <path d="M8.16165 47.7632L5.03335 42.8078H2.20585V47.7632H0V34.6471H5.93575C7.33947 34.6471 8.40897 34.9814 9.14426 35.65C9.89291 36.3055 10.2672 37.2887 10.2672 38.5996C10.2672 39.5435 9.99986 40.3694 9.46511 41.0773C8.94372 41.7852 8.23518 42.2375 7.33947 42.4342L10.9089 47.7632H8.16165ZM2.20585 41.038H5.3141C6.19644 41.038 6.85151 40.8479 7.27931 40.4677C7.72048 40.0876 7.94106 39.5107 7.94106 38.7373C7.94106 37.99 7.76059 37.4263 7.39963 37.0461C7.05204 36.666 6.47718 36.4759 5.67505 36.4759H2.20585V41.038Z" fill="#0F1441" fill-opacity="0.4"/>
    <path d="M13.3362 34.6471H22.0994V36.4759H15.5621V40.2711H21.2572V42.1195H15.542V45.9344H22.0994V47.7632H13.3362V34.6471Z" fill="#0F1441" fill-opacity="0.4"/>
    <path d="M36.3961 34.6471L31.2224 47.7632H28.9162L23.8428 34.6471H26.3294L30.2197 45.2265L34.0699 34.6668L36.3961 34.6471Z" fill="#0F1441" fill-opacity="0.4"/>
    <path d="M38.3243 34.6471H40.5502V47.7632H38.3243V34.6471Z" fill="#0F1441" fill-opacity="0.4"/>
    <path d="M43.7097 34.6471H52.4729V36.4759H45.9356V40.2711H51.6307V42.1195H45.9155V45.9344H52.4729V47.7632H43.7097V34.6471Z" fill="#0F1441" fill-opacity="0.4"/>
    <path d="M73.2267 34.6471L69.1559 47.7632H66.9501L63.8017 37.9114L60.6534 47.7632H58.4275L54.3767 34.6471H56.7631L59.7309 45.0298L62.8592 34.6471H64.7643L67.9126 45.0102L70.8404 34.6471H73.2267Z" fill="#0F1441" fill-opacity="0.4"/>
    <path d="M79.4078 47.9991C78.4586 47.9991 77.6632 47.9205 77.0215 47.7632C76.3798 47.5928 75.698 47.324 74.9761 46.9569V44.7939C75.4974 45.2134 76.1325 45.5542 76.8811 45.8164C77.6431 46.0655 78.4386 46.19 79.2674 46.19C80.0829 46.19 80.6979 46.0262 81.1123 45.6984C81.5268 45.3707 81.734 44.9053 81.734 44.3023C81.734 43.8959 81.6137 43.5616 81.373 43.2994C81.1324 43.0372 80.8316 42.8209 80.4706 42.6505C80.1097 42.48 79.6017 42.2768 78.9466 42.0409L78.5054 41.8836C77.7701 41.6345 77.1619 41.3788 76.6806 41.1166C76.2127 40.8545 75.8183 40.4808 75.4974 39.9958C75.1766 39.5107 75.0162 38.888 75.0162 38.1277C75.0162 37.4984 75.1766 36.9019 75.4974 36.3382C75.8183 35.7745 76.3196 35.3157 77.0014 34.9617C77.6832 34.5947 78.5388 34.4111 79.5682 34.4111C80.3169 34.4111 80.9385 34.4832 81.4332 34.6274C81.9412 34.7585 82.5428 34.988 83.238 35.3157V37.4394C82.5562 37.0199 81.9679 36.7119 81.4733 36.5152C80.9787 36.3055 80.3904 36.2006 79.7086 36.2006C78.9199 36.2006 78.3183 36.3579 77.9038 36.6725C77.4894 36.9872 77.2822 37.4001 77.2822 37.9114C77.2822 38.344 77.3958 38.6979 77.6231 38.9732C77.8503 39.2354 78.1445 39.4517 78.5054 39.6222C78.8797 39.7795 79.4145 39.9696 80.1097 40.1924C80.9252 40.4546 81.6003 40.7299 82.135 41.0183C82.6832 41.2936 83.131 41.6804 83.4786 42.1785C83.8262 42.6636 84 43.2863 84 44.0466C84 44.7677 83.8329 45.4297 83.4987 46.0327C83.1778 46.6226 82.6698 47.1011 81.9746 47.4682C81.2928 47.8222 80.4372 47.9991 79.4078 47.9991Z" fill="#0F1441" fill-opacity="0.4"/>
</svg>
